<?xml version="1.0" encoding="UTF-8" standalone="no"?>
<svg
   xmlns:dc="http://purl.org/dc/elements/1.1/"
   xmlns:cc="http://creativecommons.org/ns#"
   xmlns:rdf="http://www.w3.org/1999/02/22-rdf-syntax-ns#"
   xmlns:svg="http://www.w3.org/2000/svg"
   xmlns="http://www.w3.org/2000/svg"
   xmlns:xlink="http://www.w3.org/1999/xlink"
   xmlns:sodipodi="http://sodipodi.sourceforge.net/DTD/sodipodi-0.dtd"
   xmlns:inkscape="http://www.inkscape.org/namespaces/inkscape"
   width="270"
   height="270"
   version="1.1"
   id="svg95"
   sodipodi:docname="financial-service-3.svg"
   inkscape:version="1.0.1 (3bc2e813f5, 2020-09-07)">
  <metadata
     id="metadata99">
    <rdf:RDF>
      <cc:Work
         rdf:about="">
        <dc:format>image/svg+xml</dc:format>
        <dc:type
           rdf:resource="http://purl.org/dc/dcmitype/StillImage" />
      </cc:Work>
    </rdf:RDF>
  </metadata>
  <sodipodi:namedview
     pagecolor="#ffffff"
     bordercolor="#666666"
     borderopacity="1"
     objecttolerance="10"
     gridtolerance="10"
     guidetolerance="10"
     inkscape:pageopacity="0"
     inkscape:pageshadow="2"
     inkscape:window-width="1368"
     inkscape:window-height="850"
     id="namedview97"
     showgrid="false"
     inkscape:zoom="1.1851852"
     inkscape:cx="169.66577"
     inkscape:cy="125.924"
     inkscape:window-x="-6"
     inkscape:window-y="-6"
     inkscape:window-maximized="1"
     inkscape:current-layer="svg95" />
  <defs
     id="defs28">
    <linearGradient
       id="b"
       x1="-302.27232"
       y1="69.035871"
       x2="176.93188"
       y2="366.9102"
       gradientTransform="scale(1.2081887,0.8276853)"
       gradientUnits="userSpaceOnUse">
      <stop
         stop-color="#93A9D6"
         offset="0%"
         id="stop2" />
      <stop
         stop-color="#E0E7F7"
         offset="100%"
         id="stop4" />
    </linearGradient>
    <linearGradient
       id="d"
       x1="206.19805"
       y1="111.97274"
       x2="1.6880829"
       y2="196.2239"
       gradientTransform="scale(0.87281194,1.1457222)"
       gradientUnits="userSpaceOnUse">
      <stop
         stop-color="#93A9D6"
         offset="0%"
         id="stop7" />
      <stop
         stop-color="#E0E7F7"
         offset="100%"
         id="stop9" />
    </linearGradient>
    <linearGradient
       id="e"
       x1="71.456569"
       y1="111.0038"
       x2="-55.270323"
       y2="229.38158"
       gradientTransform="scale(1.3157064,0.760048)"
       gradientUnits="userSpaceOnUse">
      <stop
         stop-color="#93A9D6"
         offset="0%"
         id="stop12" />
      <stop
         stop-color="#E0E7F7"
         offset="100%"
         id="stop14" />
    </linearGradient>
    <linearGradient
       id="f"
       x1="138.19653"
       y1="103.58508"
       x2="31.400241"
       y2="103.58508"
       gradientTransform="scale(1.1163949,0.8957404)"
       gradientUnits="userSpaceOnUse">
      <stop
         stop-color="#93A9D6"
         offset="0%"
         id="stop17" />
      <stop
         stop-color="#E0E7F7"
         offset="100%"
         id="stop19" />
    </linearGradient>
    <linearGradient
       id="g"
       x1="4.998943"
       y1="38.0811"
       x2="152.17037"
       y2="68.334564"
       gradientTransform="scale(1.1270151,0.88729956)"
       gradientUnits="userSpaceOnUse">
      <stop
         stop-color="#6BA3DE"
         offset="0%"
         id="stop22" />
      <stop
         stop-color="#202873"
         offset="100%"
         id="stop24" />
    </linearGradient>
    <rect
       id="a"
       x="0"
       y="0"
       width="270"
       height="270"
       rx="10" />
    <mask
       id="c"
       fill="#fff">
      <use
         xlink:href="#a"
         id="use30" />
    </mask>
  </defs>
  <path
     fill="url(#b)"
     mask="url(#c)"
     d="M 0,239.984 270,85.033 V 270 H 0 Z"
     id="path35"
     style="fill:url(#b);fill-rule:evenodd" />
  <g
     fill-rule="nonzero"
     mask="url(#c)"
     id="g91"
     style="fill:none">
    <path
       fill="#dfe6f6"
       d="m 125.418,204.623 107.069,61.861 107.095,-61.86 -107,-61.806 z"
       id="path37" />
    <path
       fill="#bdcbe8"
       d="m 339.582,204.623 v 9.516 L 232.487,276 v -9.516 z"
       id="path39" />
    <path
       fill="#d2dcf1"
       d="m 125.418,204.623 v 9.516 L 232.487,276 v -9.516 z"
       id="path41" />
    <path
       fill="url(#d)"
       d="m 107.487,201.968 90.62,-52.345 v -66.61 l -90.62,52.337 z"
       transform="translate(125,55)"
       id="path43"
       style="fill:url(#d)" />
    <path
       fill="#bdcbe8"
       d="m 141.892,138.012 v 66.611 l 90.595,52.345 V 190.35 Z"
       id="path45" />
    <path
       fill="#d2dcf1"
       d="m 133.655,133.254 v 9.516 l 98.832,57.103 98.858,-57.103 v -9.516 L 232.5,76.16 Z"
       id="path47" />
    <path
       fill="#dfe6f6"
       d="M 133.655,133.254 232.487,190.35 331.345,133.254 232.5,76.16 Z"
       id="path49" />
    <path
       fill="url(#e)"
       d="M 25.129,78.255 107.487,125.842 189.871,78.255 107.5,30.675 Z"
       transform="translate(125,55)"
       id="path51"
       style="fill:url(#e)" />
    <path
       fill="#bdcbe8"
       d="m 158.36,138.016 74.127,-42.833 0.013,-9.508 -82.371,47.58 z"
       id="path53" />
    <path
       fill="#bdcbe8"
       d="m 314.871,133.255 -8.244,4.761 -74.14,-42.833 0.013,-9.508"
       id="path55" />
    <path
       fill="#29407a"
       d="m 207.78,252.195 -0.006,-66.608 -49.408,-28.725 v 66.607 l 8.237,4.757 -0.005,-56.912 32.945,19.03 v 57.093 z"
       id="path57" />
    <g
       fill="#172750"
       id="g61">
      <path
         d="m 207.776,185.597 0.013,66.603 8.228,-4.752 v -57.106 z m -41.173,42.629 8.237,-4.75 v -47.4 l -8.242,-4.762 z"
         id="path59" />
    </g>
    <path
       d="m 193.021,211.284 c 0.002,-9.512 -2.694,-18.79 -5.992,-20.618 -3.298,-1.827 -5.996,4.46 -5.996,13.972 v 22.364 l 11.993,6.94 z"
       fill="#29407a"
       id="path63" />
    <path
       d="m 191.827,215.027 c 0.002,-7.617 -2.157,-15.048 -4.799,-16.511 -2.641,-1.464 -4.802,3.571 -4.802,11.189 v 17.91 l 9.605,5.557 z"
       fill="#344b89"
       id="path65" />
    <g
       fill="#ffffff"
       id="g69">
      <path
         d="m 228.384,211.264 v 14.672 l -8.4,-4.76 0.01,-13.689 c 0,-2.352 2.524,-3.838 4.58,-2.697 a 7.403,7.403 0 0 1 3.81,6.474 z M 154.25,168.443 v 14.672 l -8.399,-4.76 0.009,-13.69 c 0,-2.35 2.525,-3.837 4.58,-2.696 a 7.402,7.402 0 0 1 3.81,6.474 z m 86.487,40.54 v 14.672 l 8.4,-4.85 -0.01,-13.6 c 0,-2.351 -2.524,-3.837 -4.58,-2.696 a 7.405,7.405 0 0 0 -3.81,6.474 z m 16.474,-9.516 v 14.673 l 8.4,-4.85 -0.009,-13.6 c -10e-4,-2.351 -2.525,-3.838 -4.58,-2.696 a 7.402,7.402 0 0 0 -3.81,6.473 z"
         id="path67" />
    </g>
    <path
       fill="#dfe6f6"
       d="m 169.088,229.868 -4.139,2.28 24.673,14.32 4.091,-2.375 z"
       id="path71" />
    <path
       fill="#bdcbe8"
       d="m 164.949,232.147 v 4.779 l 24.666,14.248 0.007,-4.705 z"
       id="path73" />
    <path
       fill="#dfe6f6"
       d="m 164.985,236.978 -4.143,2.278 24.673,14.322 4.096,-2.375 z"
       id="path75" />
    <path
       fill="#bdcbe8"
       d="m 160.842,239.256 v 4.817 l 24.666,14.248 0.007,-4.743 z"
       id="path77" />
    <path
       fill="#a6bbda"
       d="m 189.622,246.469 -0.003,4.736 -4.104,2.373 -0.007,4.743 4.103,-2.375 0.004,-0.038 v 0.045 l 4.098,-2.377 v -9.483 z"
       id="path79" />
    <path
       d="m 158.997,57.335 v -0.031 h -0.001 c 0.063,-7.575 -4.865,-15.145 -14.807,-20.888 -19.917,-11.505 -52.729,-11.505 -72.916,0 -10.1,5.757 -15.196,13.35 -15.27,20.942 V 80.86 c -0.075,7.584 4.86,15.169 14.827,20.926 19.943,11.519 52.755,11.519 72.916,0 10.076,-5.758 15.166,-13.342 15.25,-20.926 h 0.001 V 80.853 57.336 Z"
       fill="url(#f)"
       transform="translate(125,55)"
       id="path81"
       style="fill:url(#f)" />
    <path
       d="m 195.83,133.279 c -19.943,-11.52 -19.743,-30.357 0.443,-41.862 20.187,-11.505 52.999,-11.505 72.916,0 19.918,11.505 19.718,30.342 -0.443,41.862 -20.162,11.52 -52.974,11.519 -72.916,0 z"
       fill="#dfe6f6"
       id="path83" />
    <path
       d="m 152.54,56.46 c -0.025,6.675 -4.482,13.359 -13.344,18.419 -17.636,10.078 -46.342,10.078 -63.788,0 C 66.833,69.926 62.516,63.432 62.442,56.905 62.434,56.79 62.434,56.674 62.434,56.567 c 0,-24.888 20.173,-45.07 45.057,-45.07 24.76,0 44.86,19.993 45.04,44.716 0.009,0.082 0.009,0.165 0.009,0.247 z"
       fill="url(#g)"
       transform="translate(125,55)"
       id="path85"
       style="fill:url(#g)" />
    <path
       d="m 232.5,55.444 -2.118,16.274 c -0.003,0.312 0.2,0.624 0.61,0.86 0.82,0.474 2.17,0.474 2.998,0 0.415,-0.236 0.624,-0.548 0.628,-0.86 L 232.5,55.443 Z"
       fill="#7aa5da"
       id="path87" />
    <path
       fill="#bdcbe8"
       d="m 232.487,190.35 v 9.523 l 98.858,-57.103 v -9.516 z"
       id="path89" />
  </g>
</svg>
