<?xml version="1.0" encoding="UTF-8" standalone="no"?>
<svg
   xmlns:dc="http://purl.org/dc/elements/1.1/"
   xmlns:cc="http://creativecommons.org/ns#"
   xmlns:rdf="http://www.w3.org/1999/02/22-rdf-syntax-ns#"
   xmlns:svg="http://www.w3.org/2000/svg"
   xmlns="http://www.w3.org/2000/svg"
   xmlns:xlink="http://www.w3.org/1999/xlink"
   xmlns:sodipodi="http://sodipodi.sourceforge.net/DTD/sodipodi-0.dtd"
   xmlns:inkscape="http://www.inkscape.org/namespaces/inkscape"
   width="270"
   height="270"
   version="1.1"
   id="svg117"
   sodipodi:docname="financial-service-4.svg"
   inkscape:version="1.0.1 (3bc2e813f5, 2020-09-07)">
  <metadata
     id="metadata121">
    <rdf:RDF>
      <cc:Work
         rdf:about="">
        <dc:format>image/svg+xml</dc:format>
        <dc:type
           rdf:resource="http://purl.org/dc/dcmitype/StillImage" />
      </cc:Work>
    </rdf:RDF>
  </metadata>
  <sodipodi:namedview
     pagecolor="#ffffff"
     bordercolor="#666666"
     borderopacity="1"
     objecttolerance="10"
     gridtolerance="10"
     guidetolerance="10"
     inkscape:pageopacity="0"
     inkscape:pageshadow="2"
     inkscape:window-width="1368"
     inkscape:window-height="850"
     id="namedview119"
     showgrid="false"
     inkscape:zoom="1.676105"
     inkscape:cx="139.8929"
     inkscape:cy="136.22322"
     inkscape:window-x="-6"
     inkscape:window-y="-6"
     inkscape:window-maximized="1"
     inkscape:current-layer="svg117" />
  <defs
     id="defs38">
    <linearGradient
       id="b"
       x1="183.92632"
       y1="497.40821"
       x2="-7.6637342"
       y2="286.70318"
       gradientTransform="scale(1.6431677,0.60858062)"
       gradientUnits="userSpaceOnUse">
      <stop
         stop-color="#93A9D6"
         offset="0%"
         id="stop2" />
      <stop
         stop-color="#E0E7F7"
         offset="100%"
         id="stop4" />
    </linearGradient>
    <linearGradient
       id="d"
       x1="21.36278"
       y1="140.27356"
       x2="114.96006"
       y2="9.834707"
       gradientTransform="scale(0.84394019,1.1849181)"
       gradientUnits="userSpaceOnUse">
      <stop
         stop-color="#F1F4FB"
         offset="0%"
         id="stop7" />
      <stop
         stop-color="#CED6EA"
         offset="100%"
         id="stop9" />
    </linearGradient>
    <linearGradient
       id="e"
       x1="82.565085"
       y1="15.629042"
       x2="82.565085"
       y2="155.25996"
       gradientTransform="scale(0.84394632,1.1849095)"
       gradientUnits="userSpaceOnUse">
      <stop
         stop-color="#F1F4FB"
         offset="0%"
         id="stop12" />
      <stop
         stop-color="#CED6EA"
         offset="100%"
         id="stop14" />
    </linearGradient>
    <linearGradient
       id="f"
       x1="-73.814114"
       y1="232.91907"
       x2="150.17639"
       y2="15.341287"
       gradientTransform="scale(0.8353497,1.1971034)"
       gradientUnits="userSpaceOnUse">
      <stop
         stop-color="#93A9D6"
         offset="0%"
         id="stop17" />
      <stop
         stop-color="#E0E7F7"
         offset="100%"
         id="stop19" />
    </linearGradient>
    <linearGradient
       id="g"
       x1="-63.037%"
       y1="31.424%"
       x2="121.04%"
       y2="69.264%">
      <stop
         stop-color="#6BA3DE"
         offset="0%"
         id="stop22" />
      <stop
         stop-color="#202873"
         offset="100%"
         id="stop24" />
    </linearGradient>
    <linearGradient
       id="h"
       x1="-128.84594"
       y1="44.710622"
       x2="88.416947"
       y2="89.059524"
       gradientTransform="scale(0.92622221,1.0796545)"
       gradientUnits="userSpaceOnUse">
      <stop
         stop-color="#6BA3DE"
         offset="0%"
         id="stop27" />
      <stop
         stop-color="#202873"
         offset="100%"
         id="stop29" />
    </linearGradient>
    <linearGradient
       id="i"
       x1="-76.235352"
       y1="7.3317053"
       x2="38.493216"
       y2="37.423535"
       gradientTransform="scale(1.2931526,0.77330394)"
       gradientUnits="userSpaceOnUse">
      <stop
         stop-color="#6BA3DE"
         offset="0%"
         id="stop32" />
      <stop
         stop-color="#202873"
         offset="100%"
         id="stop34" />
    </linearGradient>
    <rect
       id="a"
       x="0"
       y="0"
       width="270"
       height="270"
       rx="10" />
    <linearGradient
       inkscape:collect="always"
       xlink:href="#g"
       id="linearGradient946"
       x1="-47.267484"
       y1="42.499673"
       x2="91.406461"
       y2="71.006343"
       gradientTransform="scale(0.92622653,1.0796495)"
       gradientUnits="userSpaceOnUse" />
    <linearGradient
       inkscape:collect="always"
       xlink:href="#g"
       id="linearGradient948"
       x1="-33.322642"
       y1="44.690061"
       x2="64.440835"
       y2="64.786923"
       gradientTransform="scale(1.3138178,0.76114053)"
       gradientUnits="userSpaceOnUse" />
    <mask
       id="c"
       fill="#fff">
      <use
         xlink:href="#a"
         id="use40" />
    </mask>
  </defs>
  <path
     fill="url(#b)"
     mask="url(#c)"
     d="M 0,170 H 312 V 280 H 0 Z"
     id="path45"
     style="fill:url(#b);fill-rule:evenodd" />
  <g
     fill-rule="nonzero"
     mask="url(#c)"
     id="g81"
     style="fill:none">
    <path
       d="m 288.293,259.033 -116.86,-67.792 c -2.57,-1.491 -4.167,-4.659 -4.18,-9.156 l 116.86,67.791 c 0.013,4.498 1.61,7.666 4.18,9.157 z"
       fill="#a6b8df"
       id="path47" />
    <path
       fill="#becbe9"
       d="M 303.925,138.784 187.065,70.993 195.571,65.909 312.746,133.7 Z"
       id="path49" />
    <path
       fill="#a9bae0"
       d="M 303.925,238.458 187.065,170.666 V 70.993 l 11.865,6.882 V 60.07 l 30.78,17.815 v 17.847 l 74.215,43.053 z"
       id="path51" />
    <path
       fill="url(#d)"
       d="M 130.823,85.283 12.983,17.368 v 97.536 l 117.563,67.915 0.277,-97.536"
       transform="translate(167,55)"
       id="path53"
       style="fill:url(#d)" />
    <path
       fill="url(#e)"
       d="M 128.6,86.434 10.76,18.519 v 97.536 l 117.564,67.914 0.277,-97.535"
       transform="translate(167,55)"
       id="path55"
       style="fill:url(#e)" />
    <path
       fill="#becbe9"
       d="m 284.113,150.202 -116.86,-67.79 8.51,-5.086 117.174,67.791 z"
       id="path57" />
    <path
       fill="url(#f)"
       d="M 117.113,194.877 0.253,127.085 V 27.41 l 116.86,67.791 z"
       transform="translate(167,55)"
       id="path59"
       style="fill:url(#f)" />
    <path
       fill="#becbe9"
       d="M 229.71,77.884 198.93,60.07 207.755,55 238.536,72.815 Z"
       id="path61" />
    <path
       fill="#c8d3ed"
       d="m 238.536,72.815 v 17.95 l -8.826,4.966 V 77.884 Z"
       id="path63" />
    <path
       fill="#a50020"
       d="M 238.477,160.789 V 140.05 l -18.707,-10.815 -6.82,3.957 v 12.884 l -11.318,-6.523 -6.821,3.957 v 21.525 l 18.018,10.42 -0.059,20.738 18.825,10.814 6.82,-3.957 v -12.863 l 11.32,6.502 6.82,-3.957 V 171.21 Z"
       id="path65" />
    <path
       fill="#232d78"
       d="m 231.595,186.27 6.82,-3.956 v 20.737 l -6.82,3.957 z"
       id="path67" />
    <path
       fill="#344b89"
       d="m 194.811,143.511 6.82,-3.957 18.08,10.42 -6.762,3.957 z"
       id="path69" />
    <path
       fill="#232d78"
       d="m 249.735,175.166 6.82,-3.957 v 21.524 l -6.82,3.957 z"
       id="path71" />
    <path
       fill="#344b89"
       d="m 231.656,164.746 6.82,-3.957 18.08,10.42 -6.82,3.957 z"
       id="path73" />
    <path
       fill="#232d78"
       d="m 231.656,144.008 6.82,-3.957 v 20.738 l -6.82,3.957 z"
       id="path75" />
    <path
       fill="#344b89"
       d="m 212.95,133.193 6.82,-3.957 18.707,10.815 -6.821,3.957 z"
       id="path77" />
    <path
       fill="#29407a"
       d="m 231.656,144.008 v 20.738 l 18.08,10.42 v 21.524 l -18.141,-10.42 v 20.738 l -18.825,-10.815 0.06,-20.737 -18.019,-10.42 V 143.51 l 18.138,10.42 v -20.738 z"
       id="path79" />
  </g>
  <g
     fill-rule="nonzero"
     mask="url(#c)"
     id="g113"
     style="fill:none">
    <path
       d="m 191.977,176.82 c 0.103,-5.271 -3.33,-10.566 -10.294,-14.588 -13.67,-7.893 -35.759,-7.893 -49.34,0 -6.768,3.934 -10.144,9.087 -10.137,14.242 l -0.001,-0.05 v 61.025 c -0.015,5.205 3.233,10.42 10.112,14.391 13.668,7.893 35.758,7.894 49.34,0 6.746,-3.921 10.31,-9.053 10.325,-14.192 v -61.024 c 0,0.065 -0.003,0.13 -0.005,0.195 z"
       fill="#a66206"
       id="path83" />
    <path
       d="m 69.982,20.525 v 61.024 c -0.015,5.139 -3.58,10.27 -10.325,14.192 -13.581,7.894 -35.671,7.893 -49.34,0 C 3.44,91.77 0.191,86.555 0.205,81.35 V 20.326 c -0.014,5.205 3.421,10.42 10.3,14.391 13.668,7.893 35.758,7.894 49.339,0 6.747,-3.921 10.124,-9.053 10.138,-14.192 z"
       fill="url(#g)"
       transform="translate(122,156.1)"
       id="path85"
       style="fill:url(#linearGradient946)" />
    <path
       d="m 68.033,43.153 -0.177,57.614 c -0.014,4.853 -3.202,9.697 -9.571,13.4 -12.822,7.452 -33.678,7.452 -46.583,0 -6.494,-3.75 -9.56,-8.673 -9.547,-13.588 V 42.965 c -0.014,4.915 3.23,9.838 9.724,13.588 12.904,7.452 33.76,7.452 46.582,0 6.37,-3.703 9.558,-8.548 9.572,-13.4 z"
       fill="url(#h)"
       transform="translate(122,135)"
       id="path87"
       style="fill:url(#h)" />
    <path
       d="m 155.954,207.61 c -8.508,-0.177 -16.935,-2.144 -23.45,-5.906 -6.878,-3.972 -10.313,-9.186 -10.299,-14.392 l -0.187,41.793 c -0.015,5.205 3.42,10.42 10.3,14.391 6.562,3.79 15.065,5.759 23.636,5.91 v -41.797 z"
       fill="#ffffff"
       id="path89" />
    <path
       d="m 147.23,223.252 a 50.423,50.423 0 0 1 -8.244,-2.124 v -8.087 c -2.305,-0.817 -4.484,-1.8 -6.481,-2.953 a 32.42,32.42 0 0 1 -1.431,-0.878 v 8.086 c -2.01,-1.306 -3.683,-2.724 -5.01,-4.22 v 9.055 c 1.337,1.464 3.01,2.853 5.01,4.131 v 6.804 c 0.4,0.256 0.815,0.508 1.243,0.755 2.052,1.184 4.294,2.191 6.669,3.02 v -6.803 a 50.748,50.748 0 0 0 8.245,2.09 v -8.876 z"
       fill="#5884c3"
       id="path91" />
    <path
       d="m 59.683,27.233 c 13.669,7.892 13.742,20.69 0.161,28.584 -13.58,7.893 -35.67,7.893 -49.34,0 -13.669,-7.894 -13.74,-20.69 -0.16,-28.584 13.58,-7.894 35.67,-7.894 49.34,0 z"
       fill="url(#g)"
       transform="translate(122,135)"
       id="path93"
       style="fill:url(#linearGradient948)" />
    <path
       d="m 177.508,158.411 c 0.06,-3.102 -1.96,-6.217 -6.058,-8.584 -8.044,-4.645 -21.042,-4.645 -29.034,0 -3.983,2.315 -5.97,5.347 -5.966,8.38 v -0.028 l -0.055,12.634 c -0.009,3.063 2.013,6.131 6.061,8.469 8.043,4.644 21.042,4.645 29.034,0 3.97,-2.308 5.957,-5.328 5.966,-8.352 l 0.055,-12.634 z"
       fill="#a66206"
       id="path95" />
    <path
       d="m 41.127,12.027 -0.055,12.634 c -0.009,3.025 -1.996,6.044 -5.966,8.352 -7.992,4.645 -20.99,4.645 -29.034,0 -4.048,-2.337 -6.07,-5.405 -6.06,-8.469 L 0.066,11.91 c -0.008,3.063 2.013,6.131 6.061,8.469 8.043,4.645 21.043,4.645 29.034,0 3.97,-2.308 5.957,-5.328 5.966,-8.352 z"
       fill="url(#i)"
       transform="translate(136.384,146.269)"
       id="path97"
       style="fill:url(#i)" />
    <path
       d="m 171.45,149.827 c 8.043,4.645 8.086,12.176 0.095,16.82 -7.992,4.645 -20.991,4.645 -29.034,0 -8.044,-4.644 -8.086,-12.175 -0.095,-16.82 7.992,-4.645 20.99,-4.645 29.034,0 z"
       fill="#d07400"
       id="path99" />
    <g
       id="g105">
      <path
         d="m 183.962,150.857 c 0.08,-4.076 -2.575,-8.17 -7.96,-11.28 -10.57,-6.103 -27.65,-6.103 -38.15,0 -5.234,3.043 -7.845,7.026 -7.84,11.013 v -0.038 l -0.072,10.834 c -0.012,4.025 2.645,8.057 7.964,11.128 10.569,6.103 27.65,6.104 38.15,0 5.217,-3.033 7.829,-7 7.84,-10.974 l 0.072,-10.834 c 0,0.05 -0.003,0.1 -0.004,0.15 z"
         fill="#d8d8da"
         id="path101" />
      <path
         d="m 183.966,150.706 -0.072,10.834 c -0.011,3.974 -2.622,7.942 -7.84,10.974 -10.5,6.103 -27.581,6.103 -38.15,0 -5.32,-3.072 -7.975,-7.103 -7.964,-11.128 l 0.072,-10.834 c -0.012,4.025 2.645,8.057 7.964,11.128 10.569,6.103 27.65,6.103 38.15,0 5.217,-3.032 7.829,-7 7.84,-10.974 z"
         fill="#ebeff8"
         id="path103" />
    </g>
    <g
       fill="#dee5f5"
       id="g111">
      <path
         d="m 176.002,139.578 c 10.57,6.103 10.626,15.998 0.125,22.102 -10.501,6.103 -27.582,6.103 -38.151,0 -10.57,-6.104 -10.626,-15.999 -0.125,-22.102 10.501,-6.104 27.582,-6.104 38.151,0 z"
         id="path107" />
      <path
         d="m 138.077,172.609 c 0.56,0.318 1.138,0.62 1.732,0.903 v -10.87 a 27.628,27.628 0 0 1 -1.732,-0.907 z m 10.663,-7.117 a 41.727,41.727 0 0 1 -1.732,-0.36 v 10.85 c 0.571,0.132 1.15,0.25 1.733,0.357 v -10.847 z m 4.467,0.605 a 44.935,44.935 0 0 1 -1.733,-0.183 v 10.843 c 0.575,0.07 1.152,0.13 1.733,0.179 v -10.84 z m -8.932,-1.707 a 35.166,35.166 0 0 1 -1.733,-0.59 v 10.86 c 0.569,0.208 1.145,0.405 1.733,0.587 z m 33.993,6.667 c 0.631,-0.47 1.208,-0.958 1.733,-1.458 v -10.765 c -0.526,0.495 -1.103,0.977 -1.733,1.443 z m -16.13,-5.077 c -0.575,0.063 -1.154,0.113 -1.733,0.154 v 10.83 c 0.58,-0.043 1.158,-0.093 1.733,-0.157 z m -28.527,3.316 c 0.522,0.518 1.1,1.023 1.733,1.51 v -10.888 a 18.257,18.257 0 0 1 -1.733,-1.529 z m 41.924,-7.289 c -0.562,0.307 -1.139,0.598 -1.733,0.872 v 10.802 c 0.595,-0.276 1.171,-0.57 1.733,-0.88 z m -8.932,3.241 c -0.572,0.126 -1.149,0.242 -1.732,0.344 v 10.82 c 0.583,-0.102 1.16,-0.219 1.732,-0.345 z m 4.466,-1.262 c -0.568,0.2 -1.145,0.388 -1.732,0.562 v 10.813 a 35.19,35.19 0 0 0 1.732,-0.568 z m -13.397,13.096 V 166.25 c -0.578,0.007 -1.155,0.007 -1.733,-0.007 v 10.835 c 0.578,0.012 1.155,0.013 1.733,0.005 z"
         id="path109" />
    </g>
  </g>
</svg>
