<?xml version="1.0" encoding="UTF-8" standalone="no"?>
<svg
   xmlns:dc="http://purl.org/dc/elements/1.1/"
   xmlns:cc="http://creativecommons.org/ns#"
   xmlns:rdf="http://www.w3.org/1999/02/22-rdf-syntax-ns#"
   xmlns:svg="http://www.w3.org/2000/svg"
   xmlns="http://www.w3.org/2000/svg"
   xmlns:xlink="http://www.w3.org/1999/xlink"
   xmlns:sodipodi="http://sodipodi.sourceforge.net/DTD/sodipodi-0.dtd"
   xmlns:inkscape="http://www.inkscape.org/namespaces/inkscape"
   width="270"
   height="270"
   version="1.1"
   id="svg319"
   sodipodi:docname="financial-service-2.svg"
   inkscape:version="1.0.1 (3bc2e813f5, 2020-09-07)">
  <metadata
     id="metadata323">
    <rdf:RDF>
      <cc:Work
         rdf:about="">
        <dc:format>image/svg+xml</dc:format>
        <dc:type
           rdf:resource="http://purl.org/dc/dcmitype/StillImage" />
      </cc:Work>
    </rdf:RDF>
  </metadata>
  <sodipodi:namedview
     pagecolor="#ffffff"
     bordercolor="#666666"
     borderopacity="1"
     objecttolerance="10"
     gridtolerance="10"
     guidetolerance="10"
     inkscape:pageopacity="0"
     inkscape:pageshadow="2"
     inkscape:window-width="1368"
     inkscape:window-height="850"
     id="namedview321"
     showgrid="false"
     inkscape:zoom="1.1851852"
     inkscape:cx="127.15964"
     inkscape:cy="130.86657"
     inkscape:window-x="-6"
     inkscape:window-y="-6"
     inkscape:window-maximized="1"
     inkscape:current-layer="svg319" />
  <defs
     id="defs38">
    <linearGradient
       id="b"
       x1="23.628026"
       y1="148.90017"
       x2="514.84964"
       y2="649.5308"
       gradientTransform="scale(1.6514456,0.60553007)"
       gradientUnits="userSpaceOnUse">
      <stop
         stop-color="#93A9D6"
         offset="0%"
         id="stop2" />
      <stop
         stop-color="#E0E7F7"
         offset="100%"
         id="stop4" />
    </linearGradient>
    <linearGradient
       id="d"
       x1="-314.76174"
       y1="151.96814"
       x2="273.45594"
       y2="151.96814"
       gradientTransform="scale(0.96497025,1.0363014)"
       gradientUnits="userSpaceOnUse">
      <stop
         stop-color="#6BA3DE"
         offset="0%"
         id="stop7" />
      <stop
         stop-color="#202873"
         offset="100%"
         id="stop9" />
    </linearGradient>
    <linearGradient
       id="e"
       x1="-83.180136"
       y1="41.625234"
       x2="225.51282"
       y2="132.11433"
       gradientTransform="scale(1.0117656,0.98837119)"
       gradientUnits="userSpaceOnUse">
      <stop
         stop-color="#6BA3DE"
         offset="0%"
         id="stop12" />
      <stop
         stop-color="#202873"
         offset="100%"
         id="stop14" />
    </linearGradient>
    <linearGradient
       id="f"
       x1="-156.40757"
       y1="11.28775"
       x2="226.16426"
       y2="138.45355"
       gradientTransform="scale(1.0534531,0.94925919)"
       gradientUnits="userSpaceOnUse">
      <stop
         stop-color="#6BA3DE"
         offset="0%"
         id="stop17" />
      <stop
         stop-color="#202873"
         offset="100%"
         id="stop19" />
    </linearGradient>
    <linearGradient
       id="g"
       x1="-200.00883"
       y1="-16.743598"
       x2="222.23612"
       y2="127.28025"
       gradientTransform="scale(1.3136261,0.76125163)"
       gradientUnits="userSpaceOnUse">
      <stop
         stop-color="#6BA3DE"
         offset="0%"
         id="stop22" />
      <stop
         stop-color="#202873"
         offset="100%"
         id="stop24" />
    </linearGradient>
    <linearGradient
       id="h"
       x1="50%"
       y1="0%"
       x2="50%"
       y2="100%">
      <stop
         stop-color="#F1F4FB"
         offset="0%"
         id="stop27" />
      <stop
         stop-color="#CED6EA"
         offset="100%"
         id="stop29" />
    </linearGradient>
    <linearGradient
       id="i"
       x1="-52.981%"
       y1="150.13%"
       x2="107.134%"
       y2="-5.401%">
      <stop
         stop-color="#93A9D6"
         offset="0%"
         id="stop32" />
      <stop
         stop-color="#E0E7F7"
         offset="100%"
         id="stop34" />
    </linearGradient>
    <rect
       id="a"
       x="0"
       y="0"
       width="270"
       height="270"
       rx="10" />
    <linearGradient
       inkscape:collect="always"
       xlink:href="#h"
       id="linearGradient1148"
       x1="129.12364"
       y1="63.783409"
       x2="129.12364"
       y2="115.48285"
       gradientTransform="scale(1.1122944,0.89904257)"
       gradientUnits="userSpaceOnUse" />
    <linearGradient
       inkscape:collect="always"
       xlink:href="#i"
       id="linearGradient1150"
       x1="-88.731568"
       y1="252.33478"
       x2="179.89896"
       y2="-8.6050091"
       gradientTransform="scale(1.2204193,0.81939051)"
       gradientUnits="userSpaceOnUse" />
    <linearGradient
       inkscape:collect="always"
       xlink:href="#i"
       id="linearGradient1152"
       x1="-88.731568"
       y1="252.33478"
       x2="179.89896"
       y2="-8.6050091"
       gradientTransform="scale(1.2204193,0.81939051)"
       gradientUnits="userSpaceOnUse" />
    <linearGradient
       inkscape:collect="always"
       xlink:href="#h"
       id="linearGradient1154"
       x1="22.268627"
       y1="0.36786062"
       x2="22.268627"
       y2="44.34917"
       gradientTransform="scale(0.8703937,1.1489054)"
       gradientUnits="userSpaceOnUse" />
    <mask
       id="c"
       fill="#fff">
      <use
         xlink:href="#a"
         id="use40" />
    </mask>
  </defs>
  <path
     fill="url(#b)"
     mask="url(#c)"
     d="M -21,171 H 291 V 281 H -21 Z"
     id="path45"
     style="fill:url(#b);fill-rule:evenodd" />
  <g
     fill-rule="nonzero"
     mask="url(#c)"
     id="g315"
     style="fill:none">
    <path
       fill="#378b4f"
       d="M 209.681,115.581 102,178.158 v 53.226 L 235.356,308.578 343.037,246 l 0.151,-53.225 z"
       id="path47" />
    <path
       fill="url(#d)"
       d="m 241.189,77.275 -0.151,53.225 -107.681,62.578 0.15,-53.226 z"
       transform="translate(102,115.5)"
       id="path49"
       style="fill:url(#d)" />
    <path
       fill="url(#e)"
       d="m 133.507,77.352 -0.15,53.226 L 0,53.384 V 0.158 Z"
       transform="translate(102,178)"
       id="path51"
       style="fill:url(#e)" />
    <path
       fill="url(#f)"
       d="M 6.091,49.871 V 10.715 l 121.316,70.145 -0.111,39.172 z"
       transform="translate(102,178)"
       id="path53"
       style="fill:url(#f)" />
    <path
       fill="url(#g)"
       d="M 241.189,77.275 133.507,139.852 0,62.658 107.681,0.082 Z"
       transform="translate(102,115.5)"
       id="path55"
       style="fill:url(#g)" />
    <path
       d="m 165.137,250.599 2.924,-1.701 c 1.226,-0.713 1.986,-2.228 1.992,-4.383 0.012,-4.336 -3.037,-9.618 -6.81,-11.796 -1.899,-1.097 -3.62,-1.198 -4.862,-0.476 l -2.923,1.7 c 1.242,-0.723 2.963,-0.62 4.862,0.475 3.773,2.179 6.824,7.461 6.81,11.797 -0.006,2.155 -0.766,3.67 -1.993,4.383 z"
       fill="#ffffff"
       id="path57" />
    <path
       d="m 153.454,238.32 c 0.012,-4.334 3.09,-6.088 6.861,-3.91 3.772,2.177 6.83,7.474 6.818,11.807 -0.013,4.334 -3.091,6.087 -6.863,3.91 -3.77,-2.177 -6.829,-7.474 -6.816,-11.808 z"
       fill="#e0e7f7"
       id="path59" />
    <path
       fill="#a3b6dd"
       d="m 283.049,204.772 -120.195,-69.85 16.283,-28.203 120.195,69.849 z"
       id="path61" />
    <path
       fill="url(#h)"
       d="m 172.376,83.904 -46.005,-26.56 -11.5,19.92 46.004,26.56 11.501,-19.92"
       transform="translate(117.5,93)"
       id="path63"
       style="fill:url(#linearGradient1148)" />
    <g
       fill="url(#i)"
       transform="translate(117.5,93)"
       id="g67"
       style="fill:url(#linearGradient1152)">
      <path
         d="M 181.833,83.568 61.638,13.718 84.75,0.374 204.945,70.224 Z M 120.386,137.846 0.191,67.997 45.354,41.922 l 120.195,69.85 z"
         id="path65"
         style="fill:url(#linearGradient1150)" />
    </g>
    <path
       fill="#a3b6dd"
       d="m 237.928,245.534 -120.195,-69.85 -0.042,-14.687 120.195,69.85 z"
       id="path69" />
    <path
       fill="#a3b6dd"
       d="m 322.447,163.223 0.053,18.772 0.042,14.688 -84.614,48.851 -0.042,-14.688 45.163,-26.075 16.284,-28.203 z"
       id="path71" />
    <g
       fill="#e0e7f7"
       id="g75">
      <path
         d="m 249.469,190.281 0.008,-3.085 -8.796,-5.079 -7.07,4.109 -0.008,3.086 8.796,5.077 z m -4.219,5.755 8.795,5.077 7.07,-4.108 0.008,-3.085 -8.794,-5.078 -7.07,4.108 z m 18.726,-0.47 -7.07,4.109 -0.008,3.086 8.794,5.077 7.07,-4.108 0.009,-3.086 z m -24.378,0.452 0.009,-3.086 -8.796,-5.078 -7.07,4.108 -0.008,3.086 8.795,5.078 z m 11.646,6.724 0.009,-3.086 -8.794,-5.078 -7.07,4.108 -0.01,3.086 8.795,5.078 z m -4.208,2.669 -0.008,3.086 8.794,5.078 7.07,-4.109 0.009,-3.085 -8.795,-5.078 z m -17.31,-3.657 0.009,-3.085 -8.796,-5.079 -7.068,4.108 -0.009,3.086 8.796,5.078 z m -4.208,2.669 -0.009,3.086 8.795,5.077 7.069,-4.108 0.008,-3.086 -8.794,-5.077 z m -5.654,-0.018 -8.795,-5.079 -7.069,4.108 -0.009,3.086 8.796,5.078 7.068,-4.107 z m 11.646,6.724 -8.794,-5.078 -7.069,4.109 -0.008,3.085 8.794,5.077 7.069,-4.108 z"
         id="path73" />
    </g>
    <path
       fill="#3a5399"
       d="m 227.294,216.884 -0.008,3.086 8.795,5.077 16.939,-9.845 0.008,-3.084 -8.794,-5.078 z"
       id="path77" />
    <path
       fill="#a9bcdc"
       d="m 249.477,187.196 -0.008,3.085 -7.07,4.108 0.009,-3.085 z"
       id="path79" />
    <path
       fill="#e0e7f7"
       d="m 242.408,191.305 -0.009,3.085 -8.796,-5.078 0.008,-3.086 z"
       id="path81" />
    <path
       fill="#ffffff"
       d="m 249.477,187.196 -7.069,4.109 -8.796,-5.079 7.07,-4.108 z"
       id="path83" />
    <path
       fill="#a9bcdc"
       d="m 261.124,193.92 -0.009,3.085 -7.07,4.108 0.009,-3.085 z"
       id="path85" />
    <path
       fill="#e0e7f7"
       d="m 254.054,198.028 -0.009,3.085 -8.794,-5.077 0.008,-3.085 z"
       id="path87" />
    <path
       fill="#ffffff"
       d="m 261.124,193.92 -7.07,4.108 -8.794,-5.077 7.069,-4.109 z"
       id="path89" />
    <path
       fill="#a9bcdc"
       d="m 272.771,200.644 -0.009,3.086 -7.07,4.109 0.009,-3.086 z"
       id="path91" />
    <path
       fill="#e0e7f7"
       d="m 265.701,204.753 -0.008,3.086 -8.795,-5.078 0.008,-3.086 z"
       id="path93" />
    <path
       fill="#ffffff"
       d="m 272.771,200.644 -7.07,4.109 -8.795,-5.078 7.07,-4.109 z"
       id="path95" />
    <path
       fill="#a9bcdc"
       d="m 239.607,192.932 -0.009,3.086 -7.07,4.108 0.009,-3.085 z"
       id="path97" />
    <path
       fill="#e0e7f7"
       d="m 232.537,197.04 -0.009,3.086 -8.795,-5.078 0.009,-3.086 z"
       id="path99" />
    <path
       fill="#ffffff"
       d="m 239.607,192.932 -7.07,4.109 -8.796,-5.079 7.07,-4.109 z"
       id="path101" />
    <path
       fill="#a9bcdc"
       d="m 251.253,199.656 -0.009,3.085 -7.07,4.109 0.009,-3.085 z"
       id="path103" />
    <path
       fill="#e0e7f7"
       d="m 244.183,203.764 -0.009,3.086 -8.794,-5.077 0.008,-3.087 z"
       id="path105" />
    <path
       fill="#ffffff"
       d="m 251.253,199.656 -7.07,4.108 -8.794,-5.078 7.07,-4.108 z"
       id="path107" />
    <path
       fill="#a9bcdc"
       d="m 262.9,206.38 -0.008,3.086 -7.07,4.108 0.008,-3.085 z"
       id="path109" />
    <path
       fill="#e0e7f7"
       d="m 255.83,210.489 -0.008,3.085 -8.794,-5.077 0.008,-3.086 z"
       id="path111" />
    <path
       fill="#ffffff"
       d="m 262.9,206.38 -7.07,4.109 -8.794,-5.078 7.07,-4.108 z"
       id="path113" />
    <path
       fill="#a9bcdc"
       d="m 229.735,198.669 -0.009,3.085 -7.069,4.108 0.01,-3.085 z"
       id="path115" />
    <path
       fill="#e0e7f7"
       d="m 222.666,202.776 -0.009,3.086 -8.795,-5.078 0.009,-3.086 z"
       id="path117" />
    <path
       fill="#ffffff"
       d="m 229.735,198.669 -7.069,4.107 -8.795,-5.078 7.068,-4.108 z"
       id="path119" />
    <path
       fill="#a9bcdc"
       d="m 241.381,205.393 -0.008,3.085 -7.069,4.108 0.008,-3.086 z"
       id="path121" />
    <path
       fill="#e0e7f7"
       d="m 234.313,209.5 -0.009,3.086 -8.794,-5.078 0.008,-3.085 z"
       id="path123" />
    <path
       fill="#ffffff"
       d="m 241.381,205.393 -7.069,4.107 -8.794,-5.077 7.069,-4.108 z"
       id="path125" />
    <path
       fill="#a9bcdc"
       d="m 219.865,204.405 -0.01,3.085 -7.068,4.108 0.008,-3.086 z"
       id="path127" />
    <path
       fill="#e0e7f7"
       d="m 212.796,208.512 -0.009,3.086 -8.796,-5.078 0.009,-3.086 z"
       id="path129" />
    <path
       fill="#ffffff"
       d="m 219.865,204.405 -7.07,4.107 -8.795,-5.078 7.069,-4.107 z"
       id="path131" />
    <path
       fill="#a9bcdc"
       d="m 231.51,211.129 -0.008,3.085 -7.069,4.108 0.009,-3.085 z"
       id="path133" />
    <path
       fill="#e0e7f7"
       d="m 224.442,215.237 -0.009,3.085 -8.794,-5.077 0.009,-3.085 z"
       id="path135" />
    <path
       fill="#ffffff"
       d="m 231.51,211.129 -7.068,4.108 -8.794,-5.077 7.068,-4.109 z"
       id="path137" />
    <path
       fill="#e0e7f7"
       d="m 237.822,183.652 0.009,-3.085 -8.795,-5.079 -7.07,4.109 -0.009,3.085 8.796,5.079 z"
       id="path139" />
    <path
       fill="#a9bcdc"
       d="m 227.952,189.388 0.009,-3.085 -8.796,-5.079 -7.07,4.109 -0.008,3.086 8.795,5.078 z"
       id="path141" />
    <path
       fill="#e0e7f7"
       d="m 218.08,195.125 0.008,-3.085 -8.795,-5.079 -7.069,4.108 -0.008,3.086 8.795,5.078 z m -9.861,2.65 -8.796,-5.078 -7.069,4.108 -0.009,3.086 8.796,5.078 7.069,-4.108 z"
       id="path143" />
    <path
       fill="#a9bcdc"
       d="m 237.831,180.566 -0.009,3.086 -7.07,4.109 0.009,-3.086 z"
       id="path145" />
    <path
       fill="#ffffff"
       d="m 237.831,180.567 -7.07,4.108 -8.795,-5.078 7.07,-4.109 z"
       id="path147" />
    <g
       fill="#e0e7f7"
       id="g151">
      <path
         d="m 220.89,190.411 -0.008,3.085 -8.796,-5.078 0.009,-3.086 z m 9.871,-5.736 -0.008,3.086 -8.796,-5.078 0.008,-3.086 z"
         id="path149" />
    </g>
    <path
       fill="#ffffff"
       d="m 227.96,186.303 -7.07,4.108 -8.795,-5.079 7.07,-4.108 z"
       id="path153" />
    <path
       fill="#a9bcdc"
       d="m 218.089,192.04 -0.009,3.085 -7.069,4.107 0.009,-3.085 z"
       id="path155" />
    <path
       fill="#e0e7f7"
       d="m 211.02,196.147 -0.009,3.085 -8.795,-5.078 0.008,-3.085 z"
       id="path157" />
    <path
       fill="#ffffff"
       d="m 218.089,192.04 -7.069,4.107 -8.795,-5.078 7.068,-4.108 z"
       id="path159" />
    <path
       fill="#a9bcdc"
       d="m 208.219,197.775 -0.01,3.086 -7.069,4.108 0.01,-3.085 z"
       id="path161" />
    <path
       fill="#e0e7f7"
       d="m 201.15,201.883 -0.01,3.085 -8.795,-5.077 0.009,-3.085 z"
       id="path163" />
    <path
       fill="#ffffff"
       d="m 208.219,197.775 -7.07,4.108 -8.795,-5.078 7.068,-4.108 z"
       id="path165" />
    <path
       fill="#a9bcdc"
       d="m 208.386,166.349 0.009,-3.086 -8.797,-5.078 -7.07,4.108 -0.008,3.086 8.796,5.078 z"
       id="path167" />
    <path
       fill="#e0e7f7"
       d="m 204.167,172.103 8.794,5.078 7.07,-4.108 0.01,-3.086 -8.795,-5.077 -7.07,4.108 z m -5.652,-0.018 0.008,-3.086 -8.795,-5.078 -7.07,4.108 -0.009,3.086 8.796,5.078 z"
       id="path169" />
    <path
       fill="#a9bcdc"
       d="m 210.161,178.809 0.008,-3.086 -8.794,-5.077 -7.07,4.108 -0.008,3.085 8.794,5.078 z"
       id="path171" />
    <path
       fill="#e0e7f7"
       d="m 188.643,177.822 0.009,-3.085 -8.796,-5.079 -7.069,4.108 -0.009,3.086 8.797,5.078 z m -4.208,2.668 -0.009,3.086 8.795,5.078 7.068,-4.108 0.009,-3.085 -8.795,-5.079 z m -5.654,-0.018 -8.795,-5.078 -7.07,4.108 -0.007,3.086 8.795,5.078 7.068,-4.108 z m 11.646,6.725 -8.794,-5.078 -7.069,4.108 -0.009,3.086 8.795,5.077 7.069,-4.108 z m 10.898,-19.825 -0.01,3.085 -8.795,-5.078 0.008,-3.085 z"
       id="path173" />
    <path
       fill="#ffffff"
       d="m 208.394,163.263 -7.07,4.109 -8.796,-5.079 7.07,-4.108 z"
       id="path175" />
    <path
       fill="#a9bcdc"
       d="m 220.04,169.987 -0.008,3.086 -7.07,4.108 0.009,-3.085 z"
       id="path177" />
    <path
       fill="#e0e7f7"
       d="m 212.97,174.096 -0.008,3.085 -8.795,-5.078 0.009,-3.085 z"
       id="path179" />
    <path
       fill="#ffffff"
       d="m 220.04,169.987 -7.07,4.109 -8.794,-5.078 7.07,-4.108 z"
       id="path181" />
    <path
       fill="#a9bcdc"
       d="m 198.524,168.999 -0.009,3.086 -7.07,4.108 0.009,-3.085 z"
       id="path183" />
    <path
       fill="#e0e7f7"
       d="m 191.454,173.108 -0.009,3.085 -8.795,-5.078 0.008,-3.085 z"
       id="path185" />
    <path
       fill="#ffffff"
       d="m 198.524,168.999 -7.07,4.109 -8.796,-5.079 7.07,-4.108 z"
       id="path187" />
    <path
       fill="#e0e7f7"
       d="m 203.1,179.832 -0.009,3.086 -8.794,-5.078 0.009,-3.085 z"
       id="path189" />
    <path
       fill="#ffffff"
       d="m 210.17,175.723 -7.07,4.109 -8.794,-5.078 7.069,-4.108 z"
       id="path191" />
    <path
       fill="#a9bcdc"
       d="m 188.652,174.737 -0.009,3.085 -7.069,4.108 0.009,-3.086 z"
       id="path193" />
    <path
       fill="#e0e7f7"
       d="m 181.583,178.844 -0.008,3.086 -8.796,-5.078 0.009,-3.086 z"
       id="path195" />
    <path
       fill="#ffffff"
       d="m 188.652,174.737 -7.069,4.107 -8.796,-5.078 7.07,-4.108 z"
       id="path197" />
    <path
       fill="#a9bcdc"
       d="m 200.298,181.46 -0.009,3.086 -7.069,4.107 0.01,-3.085 z"
       id="path199" />
    <path
       fill="#e0e7f7"
       d="m 193.23,185.568 -0.01,3.085 -8.794,-5.077 0.009,-3.086 z"
       id="path201" />
    <path
       fill="#ffffff"
       d="m 200.298,181.46 -7.069,4.108 -8.794,-5.078 7.069,-4.108 z"
       id="path203" />
    <path
       fill="#a9bcdc"
       d="m 178.781,180.472 -0.009,3.086 -7.068,4.108 0.009,-3.085 z"
       id="path205" />
    <path
       fill="#e0e7f7"
       d="m 171.713,184.58 -0.009,3.086 -8.795,-5.078 0.008,-3.086 z"
       id="path207" />
    <path
       fill="#ffffff"
       d="m 178.781,180.472 -7.068,4.108 -8.796,-5.078 7.068,-4.108 z"
       id="path209" />
    <path
       fill="#a9bcdc"
       d="m 190.427,187.197 -0.008,3.085 -7.069,4.108 0.009,-3.085 z"
       id="path211" />
    <path
       fill="#e0e7f7"
       d="m 183.359,191.305 -0.009,3.085 -8.795,-5.077 0.01,-3.086 z"
       id="path213" />
    <path
       fill="#ffffff"
       d="m 190.427,187.197 -7.068,4.108 -8.794,-5.078 7.068,-4.108 z"
       id="path215" />
    <path
       fill="#e0e7f7"
       d="m 196.74,159.72 0.008,-3.086 -8.795,-5.078 -7.07,4.108 -0.01,3.086 8.796,5.078 z"
       id="path217" />
    <path
       fill="#a9bcdc"
       d="m 186.868,165.456 0.01,-3.085 -8.796,-5.079 -7.07,4.108 -0.009,3.086 8.796,5.078 z"
       id="path219" />
    <path
       fill="#e0e7f7"
       d="m 176.997,171.192 0.009,-3.085 -8.796,-5.079 -7.068,4.109 -0.01,3.086 8.796,5.078 z m -9.862,2.651 -8.796,-5.078 -7.069,4.107 -0.008,3.086 8.796,5.078 7.068,-4.108 z"
       id="path221" />
    <path
       fill="#a9bcdc"
       d="m 196.748,156.633 -0.008,3.086 -7.07,4.109 0.008,-3.085 z"
       id="path223" />
    <path
       fill="#ffffff"
       d="m 196.748,156.633 -7.07,4.11 -8.796,-5.079 7.07,-4.108 z"
       id="path225" />
    <g
       fill="#e0e7f7"
       id="g229">
      <path
         d="m 179.808,166.478 -0.009,3.086 -8.795,-5.078 0.008,-3.086 z m 9.87,-5.735 -0.009,3.085 -8.796,-5.079 0.01,-3.085 z"
         id="path227" />
    </g>
    <path
       fill="#ffffff"
       d="m 186.877,162.37 -7.07,4.108 -8.795,-5.078 7.07,-4.108 z"
       id="path231" />
    <path
       fill="#a9bcdc"
       d="m 177.006,168.107 -0.009,3.085 -7.069,4.108 0.009,-3.085 z"
       id="path233" />
    <path
       fill="#e0e7f7"
       d="m 169.937,172.215 -0.009,3.085 -8.795,-5.078 0.008,-3.086 z"
       id="path235" />
    <path
       fill="#ffffff"
       d="m 177.006,168.107 -7.069,4.108 -8.795,-5.079 7.068,-4.107 z"
       id="path237" />
    <path
       fill="#a9bcdc"
       d="m 167.135,173.843 -0.009,3.086 -7.068,4.108 0.008,-3.086 z"
       id="path239" />
    <path
       fill="#e0e7f7"
       d="m 160.066,177.951 -0.008,3.086 -8.796,-5.079 0.008,-3.086 z"
       id="path241" />
    <path
       fill="#ffffff"
       d="m 167.135,173.843 -7.069,4.108 -8.796,-5.078 7.07,-4.108 z"
       id="path243" />
    <path
       fill="#a9bcdc"
       d="m 185.093,153.123 0.008,-3.086 -8.795,-5.079 -7.07,4.109 -0.009,3.085 8.795,5.079 z"
       id="path245" />
    <path
       fill="#e0e7f7"
       d="m 175.221,158.858 0.01,-3.086 -8.796,-5.078 -7.07,4.109 -0.009,3.085 8.797,5.079 z m -9.871,5.738 0.008,-3.086 -8.795,-5.078 -7.068,4.107 -0.009,3.086 8.796,5.078 z m -9.862,2.65 -8.796,-5.078 -7.068,4.108 -0.009,3.086 8.796,5.077 7.069,-4.107 z m 22.543,-13.101 -0.009,3.086 -8.795,-5.078 0.009,-3.086 z"
       id="path247" />
    <path
       fill="#ffffff"
       d="m 185.101,150.036 -7.07,4.11 -8.795,-5.079 7.07,-4.109 z"
       id="path249" />
    <path
       fill="#a9bcdc"
       d="m 175.23,155.772 -0.008,3.087 -7.07,4.108 0.008,-3.086 z"
       id="path251" />
    <path
       fill="#e0e7f7"
       d="m 168.16,159.882 -0.007,3.085 -8.797,-5.079 0.009,-3.085 z"
       id="path253" />
    <path
       fill="#ffffff"
       d="m 175.23,155.772 -7.07,4.11 -8.795,-5.079 7.07,-4.108 z"
       id="path255" />
    <path
       fill="#a9bcdc"
       d="m 165.358,161.51 -0.008,3.085 -7.069,4.108 0.01,-3.086 z"
       id="path257" />
    <path
       fill="#e0e7f7"
       d="m 158.29,165.618 -0.008,3.085 -8.796,-5.079 0.009,-3.085 z"
       id="path259" />
    <path
       fill="#ffffff"
       d="m 165.358,161.51 -7.068,4.108 -8.795,-5.079 7.068,-4.108 z"
       id="path261" />
    <path
       fill="#a9bcdc"
       d="m 155.488,167.246 -0.009,3.085 -7.068,4.108 0.008,-3.085 z"
       id="path263" />
    <path
       fill="#e0e7f7"
       d="m 148.42,171.353 -0.009,3.086 -8.796,-5.077 0.009,-3.087 z"
       id="path265" />
    <path
       fill="#ffffff"
       d="m 155.488,167.246 -7.069,4.107 -8.795,-5.078 7.068,-4.108 z"
       id="path267" />
    <g
       id="g277">
      <path
         fill="#e0e7f7"
         d="m 173.447,146.493 0.008,-3.086 -8.796,-5.078 -7.07,4.109 -0.008,3.085 8.796,5.079 z"
         id="path269" />
      <path
         fill="#a9bcdc"
         d="m 163.576,152.229 0.009,-3.086 -8.796,-5.078 -7.07,4.108 -0.009,3.086 8.795,5.078 z"
         id="path271" />
      <path
         fill="#e0e7f7"
         d="m 153.704,157.966 0.008,-3.085 -8.795,-5.079 -7.069,4.108 -0.009,3.086 8.796,5.078 z m -9.862,2.651 -8.796,-5.079 -7.069,4.108 -0.008,3.086 8.795,5.078 7.07,-4.108 z"
         id="path273" />
      <path
         fill="#a9bcdc"
         d="m 173.455,143.407 -0.009,3.086 -7.07,4.108 0.01,-3.085 z"
         id="path275" />
    </g>
    <path
       fill="#ffffff"
       d="m 173.455,143.407 -7.07,4.109 -8.796,-5.078 7.07,-4.109 z"
       id="path279" />
    <g
       fill="#e0e7f7"
       id="g283">
      <path
         d="m 156.514,153.252 -0.009,3.085 -8.795,-5.078 0.009,-3.085 z m 9.872,-5.736 -0.01,3.085 -8.795,-5.078 0.009,-3.085 z"
         id="path281" />
    </g>
    <path
       fill="#ffffff"
       d="m 163.584,149.144 -7.07,4.108 -8.795,-5.078 7.07,-4.108 z"
       id="path285" />
    <path
       fill="#a9bcdc"
       d="m 153.713,154.88 -0.009,3.086 -7.069,4.107 0.009,-3.085 z"
       id="path287" />
    <path
       fill="#e0e7f7"
       d="m 146.644,158.988 -0.008,3.085 -8.796,-5.077 0.009,-3.086 z"
       id="path289" />
    <path
       fill="#ffffff"
       d="m 153.713,154.88 -7.069,4.108 -8.795,-5.078 7.068,-4.108 z"
       id="path291" />
    <path
       fill="#a9bcdc"
       d="m 143.842,160.617 -0.009,3.085 -7.069,4.108 0.01,-3.085 z"
       id="path293" />
    <path
       fill="#e0e7f7"
       d="m 136.774,164.725 -0.01,3.085 -8.795,-5.078 0.008,-3.086 z"
       id="path295" />
    <path
       fill="#ffffff"
       d="m 143.842,160.617 -7.069,4.108 -8.796,-5.079 7.07,-4.108 z"
       id="path297" />
    <path
       fill="#405ca0"
       d="m 253.029,212.118 -0.009,3.085 -16.939,9.844 0.008,-3.086 z"
       id="path299" />
    <path
       fill="#4a6daf"
       d="m 236.089,221.961 -0.008,3.085 -8.794,-5.076 0.007,-3.086 z"
       id="path301" />
    <path
       fill="#5077b8"
       d="m 253.029,212.118 -16.94,9.843 -8.794,-5.077 16.94,-9.844 z"
       id="path303" />
    <path
       fill="#3a5399"
       d="m 228.403,117.748 -7.575,4.386 -26.348,-15.233 7.575,-4.388 z"
       id="path305" />
    <path
       d="m 238.523,88.61 -0.006,-1.962 c -0.008,-2.794 -1.002,-4.76 -2.601,-5.68 l 0.016,0.008 -20.571,-11.954 c -1.611,-0.936 -3.84,-0.807 -6.296,0.611 -4.881,2.818 -8.839,9.674 -8.822,15.282 l 0.062,22.084 20.571,11.955 0.207,-0.12 -0.063,-22.084 c -0.014,-4.898 3.076,-10.768 7.139,-13.923 l 10.156,5.902 z"
       fill="#c6c5cb"
       id="path307" />
    <g
       id="g313">
      <path
         d="m 238.31,86.769 c -0.008,-2.722 -0.972,-4.639 -2.525,-5.54 L 215.214,69.273 c 1.553,0.903 2.517,2.819 2.525,5.54 l 0.005,1.962 20.571,11.955 -0.005,-1.962 z"
         fill="#c2cfea"
         id="path309" />
      <path
         d="m 38.517,18.648 c -0.009,-2.794 -1.003,-4.76 -2.602,-5.68 L 35.931,12.976 15.36,1.021 C 13.75,0.086 11.52,0.215 9.065,1.633 4.184,4.45 0.225,11.307 0.242,16.915 L 0.305,38.999 20.875,50.953 21.082,50.834 21.02,28.75 c -0.015,-5.477 3.85,-12.172 8.617,-14.925 4.767,-2.752 8.657,-0.535 8.673,4.942 l 0.005,1.962 0.208,-0.12 -0.007,-1.96 z"
         fill="url(#h)"
         transform="translate(200,68)"
         id="path311"
         style="fill:url(#linearGradient1154)" />
    </g>
  </g>
</svg>
