<svg width="370" height="180" xmlns="http://www.w3.org/2000/svg" xmlns:xlink="http://www.w3.org/1999/xlink"><defs><linearGradient id="c" x1="171.302%" y1="169.409%" x2="-4.664%" y2="4.482%"><stop stop-color="#93A9D6" offset="0%"/><stop stop-color="#E0E7F7" offset="100%"/></linearGradient><linearGradient id="d" x1="66.067%" y1="11.522%" x2="22.411%" y2="82.175%"><stop stop-color="#E8EDF7" stop-opacity="0" offset="0%"/><stop stop-color="#C2CCE1" offset="100%"/></linearGradient><linearGradient id="e" x1="8.68%" y1="-72.654%" x2="58.734%" y2="120.934%"><stop stop-color="#93A9D6" offset="0%"/><stop stop-color="#E0E7F7" offset="100%"/></linearGradient><linearGradient id="f" x1="119.933%" y1="6.082%" x2="-13.987%" y2="113.699%"><stop stop-color="#6BA3DE" offset="0%"/><stop stop-color="#5677BF" offset="100%"/></linearGradient><linearGradient id="g" x1="100%" y1="-31.414%" x2="-9.579%" y2="160.3%"><stop stop-color="#6BA3DE" offset="0%"/><stop stop-color="#202873" offset="100%"/></linearGradient><linearGradient id="h" x1="-13.987%" y1="-45.197%" x2="100%" y2="119.51%"><stop stop-color="#6BA3DE" offset="0%"/><stop stop-color="#485CAC" offset="100%"/></linearGradient><linearGradient id="i" x1="-172.005%" y1="135.266%" x2="166.12%" y2="-76.214%"><stop stop-color="#4551A2" offset="0%"/><stop stop-color="#95D0F6" offset="100%"/></linearGradient><linearGradient id="j" x1="-172.005%" y1="135.266%" x2="167.565%" y2="-47.663%"><stop stop-color="#4551A2" offset="0%"/><stop stop-color="#95D0F6" offset="100%"/></linearGradient><linearGradient id="k" x1="-172.005%" y1="135.266%" x2="258.076%" y2="-71.158%"><stop stop-color="#4551A2" offset="0%"/><stop stop-color="#95D0F6" offset="100%"/></linearGradient><linearGradient id="l" x1="100%" y1="-31.414%" x2="-173.293%" y2="376.651%"><stop stop-color="#6BA3DE" offset="0%"/><stop stop-color="#202873" offset="100%"/></linearGradient><linearGradient id="m" x1="165.037%" y1="147.456%" x2="38.968%" y2="27.42%"><stop stop-color="#C5D5EA" stop-opacity="0" offset="0%"/><stop stop-color="#93AAD0" offset="100%"/></linearGradient><linearGradient id="n" x1="-18.808%" y1="94.976%" x2="100%" y2="36.909%"><stop stop-color="#E8EDF7" stop-opacity="0" offset="0%"/><stop stop-color="#CCD6EC" offset="100%"/></linearGradient><rect id="a" x="0" y="0" width="370" height="180" rx="7"/></defs><g fill="none" fill-rule="evenodd"><mask id="b" fill="#fff"><use xlink:href="#a"/></mask><use fill="#FFF" xlink:href="#a"/><g mask="url(#b)"><g transform="translate(192.7 5.9)"><ellipse fill="url(#c)" cx="101.5" cy="172.922" rx="101.5" ry="101.478"/><ellipse fill="url(#c)" cx="8.881" cy="93.853" rx="8.881" ry="8.879"/><path fill="#A9BCDC" d="M101.412 106.09l45.02 18.59 11.654-11.94-44.835-18.358z"/><path fill="url(#d)" d="M73.412 106.017L118.42 124.6l-.038 24.857-44.969-6.826z" transform="translate(28)"/><path fill="#E0E7F7" d="M54.142 122.413l47.492-16.396H87.971l-47.86 16.79z"/><path fill="#A9BCDC" d="M54.078 122.364l48.11-16.649v47.13l-48.11 16.78z"/><path fill="#D4DDEF" d="M101.412 106.017l45.007 18.584v46.575l-45.007-18.617z"/><path d="M33.09 52.654h33.367c1.552 8.316 2.328 15.915 2.328 22.796 0 6.88-.517 13.762-1.552 20.643H33.866c1.035-6.163 1.552-13.044 1.552-20.643s-.776-15.198-2.328-22.796z" fill="url(#e)" transform="rotate(-15 64.938 -31.967)"/><path d="M47.725 73.078h33.367c1.552 8.316 2.328 15.915 2.328 22.796s-.517 13.762-1.552 20.643H48.501c1.035-6.163 1.552-13.044 1.552-20.643 0-7.598-.776-15.197-2.328-22.796z" fill="url(#e)" transform="rotate(-4 79.573 -306.11)"/><path fill="#172750" d="M84.201 82.306l-10.916-3.891-8.224 9.8 11.035 3.751z"/><path fill="#29407A" d="M84.142 82.376l-10.908-3.903-5.736-10.063 11.027 3.763z"/><path fill="#344B89" d="M67.557 68.34l5.728 10.075-8.224 9.8L59.451 78z"/><path fill="#172750" d="M40.687 74.96l-3.883 6.426 5.085 6.28 3.81-6.516z"/><path fill="#344B89" d="M40.724 75.006l-3.89 6.419-7.086 2.469 3.817-6.51z"/><path fill="#29407A" d="M29.712 83.849l7.092-2.463 5.085 6.28-7.165 2.372z"/><path d="M41.244 83.519c-6.584 2.818-9.255 5.35-8.01 7.594 1.063 1.916 4.168-.355 5.884-2.802.523-.746 1.232-2.343 2.126-4.792z" fill="url(#f)" transform="translate(97.926)"/><path d="M23.155 91.507c-4.953-2.541-8.314-4.539-10.082-5.991-1.77-1.453-3.715-3.45-5.837-5.992 7.782-.726 12.381-.363 13.796 1.09 1.415 1.452 2.123 5.083 2.123 10.893zM24.233 59.089c-10.514-8.833-16.121-15.38-16.82-19.645-1.05-6.396-5.248-8.528-6.823-18.123C-.46 14.925-.11 7.818 1.64 0c7.696 4.62 12.07 10.128 13.119 16.524 1.574 9.594 1.574 19.722 2.623 24.52.7 3.197 2.983 7.436 6.85 12.714v5.33z" fill="url(#g)" transform="translate(97.926)"/><path d="M23.155 68.994c-3.618 0-6.15-1.614-7.598-4.842-1.447-3.228-1.447-6.456 0-9.683 2.533 3.048 4.16 5.469 4.884 7.262.724 1.793 1.628 4.214 2.714 7.263z" fill="url(#h)" transform="translate(97.926)"/><path d="M30.39 82.792c-3.376 11.762-5.065 24.592-5.065 38.492" stroke="url(#i)" stroke-width="1.983" stroke-linecap="round" transform="translate(97.926)"/><path d="M23.818 47.206c-3.171-3.584-4.58-6.81-4.228-9.677.528-4.3 4.228-6.989 4.228-10.214 0-3.226 1.586-10.753 4.757-14.516C30.69 10.29 34.037 7.96 38.618 5.81c2.114 5.018 2.466 11.29 1.057 18.816-1.41 7.527-6.695 15.054-15.857 22.58zM36.37 71.172c-2.76-2.497-4.486-7.491-5.176-14.983-.608-6.597 2.263-14.024 8.612-22.281a1.487 1.487 0 012.665.85c.088 2.297.47 3.91 1.145 4.842 1.553 2.14 2.588 4.816 1.553 8.027-1.035 3.21-1.553 6.421-2.588 10.702-.69 2.854-2.76 7.135-6.211 12.843z" fill="url(#g)" transform="translate(97.926)"/><path d="M39.073 6.536c-8.49 13.53-13.265 27.061-14.327 40.592-1.06 13.53-1.591 39.702-1.591 78.513" stroke="url(#j)" stroke-width="1.983" stroke-linecap="round" transform="translate(97.926)"/><path d="M42.114 31.824c-2.871 7.532-4.488 16.26-4.85 26.185-.361 9.926-4.37 35.78-12.027 77.564" stroke="url(#k)" stroke-width="1.983" stroke-linecap="round" transform="translate(97.926)"/><path d="M30.636 79.087c1.431-3.24 5.905-6.12 13.42-8.64 0 5.76-1.61 9-4.83 9.72-1.272.284-2.654 1.044-4.147 2.28a2.862 2.862 0 01-4.443-3.36z" fill="url(#l)" transform="translate(97.926)"/><g><path fill="#172750" d="M130.23 118.73l-23.988 1.006-7.48 23.024 24.106-1.37z"/><path fill="#29407A" d="M130.172 118.91l-23.983.98-18.82-14.888 24.1-1.34z"/><path fill="#344B89" d="M87.416 105.013l18.826 14.723-7.48 23.024-18.698-15.277z"/></g><path fill="#A9BCDC" d="M99.085 140.676l47.333-16.042v47.44l-47.333 16.189z"/><path fill="url(#m)" d="M71.085 140.943l47.322-16.309v26.775l-25.594 9.694z" transform="translate(28)"/><path fill="#E0E7F7" d="M99.051 140.683l47.352-16.049 7.768 14.467-47.945 16.59z"/><path fill="#DFE6F6" d="M54.078 122.307l45.007 18.73v47.205l-45.007-18.63z"/><path fill="url(#n)" d="M26.175 122.307l44.919 18.348-.047 24.809-44.969-18.669z" transform="translate(28)"/><path fill="#FFF" d="M54.098 122.41l45.005 18.346-9.072-13.56-45.265-18.851z"/><path d="M92.575 100.959c-2.826-1.05-5.987-.52-8.164 3.119-1.451 2.426-1.814 6.238-1.088 11.436 5.805-4.158 9.252-7.104 10.34-8.837 1.633-2.599 1.737-4.669-1.088-5.718z" fill="url(#g)" transform="translate(28)"/></g></g></g></svg>