<svg width="370" height="180" xmlns="http://www.w3.org/2000/svg" xmlns:xlink="http://www.w3.org/1999/xlink"><defs><linearGradient id="b" x1="14.452%" y1="-81.653%" x2="314.906%" y2="224.556%"><stop stop-color="#93A9D6" offset="0%"/><stop stop-color="#E0E7F7" offset="100%"/></linearGradient><rect id="a" x="0" y="0" width="370" height="180" rx="7"/></defs><g fill="none" fill-rule="evenodd"><path d="M0 0h370v180H0z"/><g><mask id="c" fill="#fff"><use xlink:href="#a"/></mask><use fill="#FFF" xlink:href="#a"/><path fill="url(#b)" mask="url(#c)" d="M128.17 180L370 46.218V180z"/><g mask="url(#c)"><path fill="#E0E7F7" d="M317.882 84.65l-.08 28.34-26.586-15.47.08-28.34z"/><path fill="#EBEEF6" d="M344.295 69.18L317.88 84.65l-26.585-15.47 26.413-15.47z"/><path fill="#DDE4F6" d="M300.459 74.512l7.333 4.267 26.5-15.42-7.334-4.266z"/><path d="M300.459 74.507v10.536l.09.052a.84.84 0 01.182-.04c.034.007.802.23.802.23l.307.377.07.225.23.134c.115-.05.255-.105.31-.11.102-.006.623.008.623.008s.215.572.238.625c.01.025.057.12.106.22l.61.355.166-.12s.125.09.204.177c.033.036.146.17.267.312l.48.28c.041-.03.084-.052.113-.039.08.032.26-.005.373.106.114.111.284.381.386.44l.6.35a.259.259 0 01.146-.034c.125.02.464.007.464.007l.18.21.137.238.102.177.147.086V78.774l-7.333-4.267z" fill="#B0C0E3"/><path fill="#26327C" d="M344.295 69.18l-.08 28.34-26.413 15.47.08-28.34z"/><path fill="#FFF" d="M291.296 69.18v.001l26.549 15.45-.08 28.338.037.02.08-28.339z"/><g><path fill="#A9BCDC" d="M331.626 89.633l-.08 28.34-26.413 15.47.08-28.34z"/><path fill="#E0E7F7" d="M305.213 105.102l-.08 28.342-26.586-15.47.08-28.34z"/><path fill="#EBEEF6" d="M331.626 89.633l-26.414 15.47-26.585-15.47 26.413-15.47z"/></g><g><path fill="#A9BCDC" d="M352.882 111.707l-.08 28.34-26.413 15.47.08-28.34z"/><path fill="#E0E7F7" d="M326.47 127.177l-.081 28.34-26.585-15.47.08-28.34z"/><path fill="#EBEEF6" d="M352.882 111.707l-26.413 15.47-26.586-15.47 26.414-15.47z"/></g><g><path fill="#E0E7F7" d="M377.325 128.895l-.08 28.34-26.585-15.47.08-28.34z"/><path fill="#EBEEF6" d="M403.738 113.425l-26.413 15.47-26.586-15.47 26.414-15.47z"/></g><g><path fill="#A9BCDC" d="M350.906 50.139l-.08 28.34-26.413 15.47.08-28.34z"/><path fill="#E0E7F7" d="M324.493 65.608l-.08 28.34-26.585-15.468.079-28.34z"/><path fill="#EBEEF6" d="M350.906 50.139l-26.413 15.47-26.586-15.47 26.413-15.47z"/></g><g><path fill="#A9BCDC" d="M376.275 75.37l-.08 28.34-26.413 15.47.08-28.34z"/><path fill="#FFF" d="M323.277 75.371v.001l26.548 15.448-.08 28.34.038.02.079-28.339z"/><path fill="#FFF" d="M349.862 90.784l-26.537-15.44-.048.027 26.585 15.47 26.414-15.47-.049-.028z"/><path fill="#E0E7F7" d="M349.862 90.84l-.08 28.341-26.585-15.47.08-28.34z"/><path fill="#EBEEF6" d="M376.275 75.37l-26.413 15.47-26.585-15.47L349.69 59.9z"/></g><g><path d="M302.117 41.448c0 2.51-1.337 4.544-2.986 4.544-1.649 0-2.985-2.034-2.985-4.544s1.336-4.544 2.985-4.544c1.649 0 2.986 2.034 2.986 4.544M278.569 40.846c0 2.51-1.336 4.544-2.986 4.544-1.648 0-2.985-2.035-2.985-4.544 0-2.51 1.337-4.545 2.985-4.545 1.65 0 2.986 2.035 2.986 4.545" fill="#B2C2E4"/><path d="M291.501 162.867l-7.608 7.526s-1.104 2.955 2.863 3.774c3.968.818 7.035-.615 9.449-2.784 2.412-2.17 6.38-6.101 6.38-6.101v-4.872l-11.084 2.457z" fill="#344B89"/><path d="M291.501 161.365l-7.403 8.189s-1.309 2.293 2.658 3.111c3.968.82 7.035-.614 9.449-2.784 2.412-2.17 6.38-6.1 6.38-6.1v-4.872l-11.084 2.456z" fill="#FFF"/><path d="M278.835 152.424l-8.09 7.004s-1.298 2.876 2.607 3.956c3.903 1.08 7.06-.145 9.611-2.15 2.551-2.005 6.77-5.663 6.77-5.663l.323-4.861-11.221 1.714z" fill="#344B89"/><path d="M278.934 150.927l-7.93 7.679s-1.457 2.2 2.447 3.28c3.904 1.081 7.06-.144 9.612-2.15 2.55-2.004 6.77-5.662 6.77-5.662l.323-4.861-11.222 1.714z" fill="#FFF"/><path d="M271.425 82.646l-1.15 6.432-12.474 10.18s-1.187-.042-2.25-.491c-1.063-.451-3.312-1.393-3.64-1.393-.452 0-1.152-.108-1.358.435-.139.37.09 1.14.433 1.29l2.192.96c.245.108.515.242.598.495.034.107.03.222.026.335-.024.618-.025 1.048-.299 1.583-.261.508-.545.995-.78 1.517-.426.953-.82 1.907-1.753 2.475-1.349.818-3.066 1.596-3.067 1.596.083-.037.488.147.577.169.746.189 1.543.278 2.308.33.738.05 1.423-.264 2.122-.502 7.907-2.694 14.925-7.035 21.923-11.5.224-.142.448-.286.672-.43.25-.163.627-.325.823-.558.205-.242 1.594-.692 1.717-2.658.123-1.965 2.29-10.563 2.29-10.563S276.41 81.08 276 81.161c-.409.082-4.575 1.485-4.575 1.485" fill="#FAC59D"/><path d="M278.947 83.462l-6.631-1.346c-1.549-.315-2.525-1.947-2.18-3.647l2.752-13.581c.728-3.594 3.974-5.968 7.249-5.303l.377.077c3.276.665 5.34 4.117 4.612 7.712l-2.752 13.58c-.345 1.7-1.88 2.822-3.427 2.508" fill="#344B89"/><path d="M281.084 82.64l-9.745-1.979a3.87 3.87 0 01-1.637-.767c.019 1.415.92 2.649 2.246 2.917l6.63 1.346c1.198.244 2.384-.374 3.021-1.452a3.804 3.804 0 01-.515-.065" fill="#FFF"/><path d="M304.258 100.634c.222 2.04.05 4.128.01 6.182a4663.37 4663.37 0 01-.242 11.451 19122.493 19122.493 0 01-.635 27.708l-.245 10.364-.098 4.112s-5.453 3.603-11.888 1.747l-1.09-45.964-.272.159.271 33.25s-4.144 3.166-11.451 1.528l-2.945-54.806 1.2-2.294h21.239c.677 0 1.36.03 2.034-.037.535-.053 1.158-.27 1.687-.085 1.46.51 1.785 3.103 2.03 4.376l.225 1.169c.073.378.128.758.17 1.14" fill="#344B89"/><path d="M296.122 105.072c7.444-1.23 8.24-4.095 8.24-4.095l-.26-7.329c-.082-2.294-.145-4.59-.245-6.884-.03-.662-.137-1.17.03-1.827.272-1.07.552-2.139.808-3.214.512-2.149.97-4.31 1.374-6.482.428-2.3.756-4.832-.436-6.843-.238-.404-.533-.771-.837-1.129-2.012-2.362-4.747-4.621-7.61-5.84 0 0 .127-2.865-2.572-4.83l-.128-2.95h-12.923v3.52s-2.29.574-2.536.983c-.245.41-.327.9-.327.9-.99.6-2.918.917-2.972 2.275-.028.702 0 1.41 0 2.111l.002 13.001.002 8.352c-.063 2.864-.044 5.727-.05 8.597l-.006 3.125c-.001.33-.206 2.884-.003 2.99 0 0 13.007 6.796 20.449 5.569z" fill="#344B89"/><path d="M285.158 64.071c.068.018.136.034.204.05 1.09.24 2.23.143 3.325-.067.802-.152 1.601-.367 2.312-.766 1.149-.645 1.984-1.718 2.788-2.762.242-.317.486-.635.66-.993.579-1.2.105-2.338.169-3.565.01-.182-.111-2.32-.13-2.32h-12.923c0 .928.008 1.857 0 2.786-.007.765-.053 1.486.053 2.262.122.897.331 1.782.626 2.638.114.332.242.66.421.964.53.903 1.48 1.503 2.495 1.773" fill="#B2C2E4"/><path d="M296.561 101.91c-6.728 1.111-17.726-3.938-20.888-5.486v3.08s13.006 6.795 20.45 5.567c7.443-1.228 8.24-4.094 8.24-4.094l-.073-2.044c-1.099.98-3.316 2.249-7.729 2.977" fill="#26327C"/><path d="M244.444 87.024v8.898l.077.044a.839.839 0 01.154-.033c.029.006.683.195.683.195l.26.317.06.19.196.113c.097-.042.215-.09.263-.092.086-.006.53.005.53.005l.201.529.091.185.52.3c.068-.05.14-.1.14-.1s.106.077.173.148c.029.031.125.144.227.265l.408.237c.035-.028.071-.045.096-.035.068.029.222-.003.318.09s.24.322.327.372l.511.295a.229.229 0 01.124-.028c.106.017.395.005.395.005l.154.179.115.2.087.15.124.072v-8.897l-6.234-3.604z" fill="#FFEAB0"/><path fill="#A9BCDC" d="M281.715 82.526l-.068 23.933-22.458 13.065.069-23.934z"/><path fill="#E0E7F7" d="M259.258 95.59l-.069 23.934-22.604-13.065.069-23.933z"/><path fill="#EBEEF6" d="M281.715 82.526L259.258 95.59l-22.605-13.064 22.458-13.064z"/><path d="M278.855 106.437c-.1.056-.181.011-.181-.104v-1.906c0-.037.026-.081.058-.1.032-.018.058-.003.058.034v1.905c0 .04.03.058.065.037a.143.143 0 00.065-.112v-.159c0-.037.025-.08.058-.1.032-.018.057-.003.057.034v.159c0 .114-.08.255-.18.312" fill="#7E4F01"/><path d="M293.592 87.64l-1.15 6.432-12.475 10.18s-1.185-.04-2.249-.49c-1.064-.451-3.312-1.393-3.64-1.393-.454 0-1.035-.156-1.234.388-.23.625.047 1.396.621 1.731.18.106.379.17.57.25 1.283.534 2.23 1.709 1.434 3.076-.859 1.474-.982 2.826-2.332 3.645-1.35.818-3.067 1.596-3.067 1.596s2.005.737 4.09.287c3.26-.705 6.475-2.469 9.441-3.948 4.51-2.25 8.764-4.924 13.024-7.608.555-.35 1.438-.711 1.87-1.222.205-.242 1.595-.692 1.718-2.658.122-1.965 2.29-10.563 2.29-10.563s-3.927-1.269-4.335-1.187c-.41.081-4.576 1.485-4.576 1.485" fill="#E0E7F7"/><path d="M300.929 89.052l-6.701-.939c-1.565-.219-2.64-1.787-2.4-3.504l1.919-13.726c.508-3.63 3.602-6.199 6.912-5.735l.381.053c3.31.463 5.582 3.783 5.074 7.414l-1.918 13.725c-.24 1.718-1.702 2.931-3.267 2.712" fill="#344B89"/><path d="M303.337 87.384l-9.849-1.379a3.871 3.871 0 01-1.68-.666c.105 1.41 1.081 2.588 2.419 2.775l6.702.938c1.21.17 2.356-.52 2.926-1.634-.172-.001-.345-.01-.518-.034M278.7 59.053s.204 6.469.123 8.27c0 0 2.74-3.194 5.93-3.03 0 0 3.6 2.293 6.053 6.1 0 0 5.236-3.035 6.55-8.89-.058-.025-.11-.05-.17-.075 0 0 .154-3.03-2.438-4.999-1.407 2.157-4.811 6.597-9.669 7.62 0 0-2.29-.328-3.517-6.879 0 0-2.29.573-2.535.983-.245.41-.327.9-.327.9z" fill="#FFF"/><path d="M287.04 58.261c-6.373 0-11.539-5.17-11.539-11.549V31.825c0-2.102-.235-4.035 1.668-5.467 1.022-.768 2.324-1.036 3.583-1.258 2.938-.52 5.943-.903 8.9-.508 2.958.394 5.896 1.643 7.822 3.926.707.838 1.11 1.48 1.102 2.551-.008.99 0 1.978 0 2.966v12.677c0 6.379-5.165 11.55-11.537 11.55" fill="#E0E7F7"/><path d="M296.832 44.833h1.734a23.772 23.772 0 01-.324-5.297c.022-.423.07-.88.353-1.194.394-.436 1.087-.423 1.645-.24.624.208 1.19.587 1.616 1.087-.397-2.356-.129-4.766-.057-7.155.125-4.21-.866-8.685-4.733-10.986-5.418-3.226-12.279-3.5-17.7-.229-.726.438-1.436.91-2.047 1.498-2.093 2.01-3.114 5.513-3.38 8.323-.095 1.008-.419 11.529-.052 11.627a5.222 5.222 0 001.616.164c.111-.006-.013-7.097.017-7.753.056-1.242.435-2.514.437-3.74.001-.985.357-1.808 1.302-2.281a5.016 5.016 0 00-.787 2.245c.909-.839 2.166-1.163 3.366-1.459l-1.227 1.022c1.675-.586 3.51-.225 5.285-.185a14.314 14.314 0 004.252-.546 4.052 4.052 0 01-2.74 1.034c3.551.108 7.127-.68 10.304-2.271-.758.757-1.568 1.634-1.568 2.706.578-.76 1.357-1.439 2.3-1.578a6.056 6.056 0 00-1.242 3.97 3.213 3.213 0 011.563 1.852c.272.827.066 1.806.066 2.664v6.722" fill="#26327C"/><path d="M302.169 32.32h-28.781v-5.38c0-5.216 4.225-9.446 9.437-9.446h9.908c5.21 0 9.436 4.23 9.436 9.446v5.38z" fill="#5279BA"/><path d="M295.712 37.303a37.034 37.034 0 011.233-1.365c.406-.428.824-.845 1.254-1.25.456-.427.928-.841 1.425-1.22.44-.336.901-.655 1.404-.89a3.18 3.18 0 01.598-.215c.09-.022.182-.038.276-.046.07-.005.24.027.293-.012a.972.972 0 00-.297-.2c-.106-.043-.222-.057-.334-.08-.336-.069-.648-.225-.985-.284a3.515 3.515 0 00-.734-.028c-.033.001-.065.002-.096.01-.14.031-.257.182-.358.28l-.203.192-.557.534-1.352 1.296-.945.904-.074.071-.548 2.303" fill="#5178B9"/><path d="M295.99 36.492s-1.936-.478-2.087-.556c-.151-.079-4.48-1.787-8.659-2.795-4.178-1.008-8.306.706-10.773 1.613-2.467.907-4.382 1.738-4.382 1.738l3.247-4.232s8.41-7.687 26.57 0l-3.916 4.232" fill="#557FBF"/><path d="M295.153 37.516a.832.832 0 01-.454-.134c-12.742-8.257-23.147-.132-23.25-.05a.837.837 0 11-1.046-1.307c.117-.093 2.904-2.298 7.413-3.414 4.158-1.03 10.622-1.282 17.792 3.365a.838.838 0 01-.455 1.54" fill="#5178B9"/></g></g></g></g></svg>