<svg width="370" height="180" xmlns="http://www.w3.org/2000/svg" xmlns:xlink="http://www.w3.org/1999/xlink"><defs><linearGradient id="c" x1="-135.26%" y1="-15.08%" x2="128.726%" y2="139.247%"><stop stop-color="#93A9D6" offset="0%"/><stop stop-color="#E0E7F7" offset="100%"/></linearGradient><linearGradient id="d" x1="-35.625%" y1="23.711%" x2="239.939%" y2="118.027%"><stop stop-color="#93A9D6" offset="0%"/><stop stop-color="#E0E7F7" offset="100%"/></linearGradient><linearGradient id="e" x1="35.268%" y1="0%" x2="405.877%" y2="7.264%"><stop stop-color="#93A9D6" offset="0%"/><stop stop-color="#E0E7F7" offset="100%"/></linearGradient><linearGradient id="f" x1="-65.891%" y1="42.72%" x2="127.465%" y2="42.72%"><stop stop-color="#93A9D6" offset="0%"/><stop stop-color="#E0E7F7" offset="100%"/></linearGradient><linearGradient id="g" x1="3.267%" y1="98.195%" x2="101.76%" y2="43.792%"><stop stop-color="#6494D4" offset="0%"/><stop stop-color="#4565A8" offset="100%"/></linearGradient><linearGradient id="h" x1="143.23%" y1="122.977%" x2="-50.647%" y2="9.653%"><stop stop-color="#6BA3DE" offset="0%"/><stop stop-color="#202873" offset="100%"/></linearGradient><linearGradient id="i" x1="42.02%" y1="-5.937%" x2="42.02%" y2="166.799%"><stop stop-color="#6BA3DE" offset="0%"/><stop stop-color="#202873" offset="100%"/></linearGradient><linearGradient id="j" x1="143.23%" y1="122.977%" x2="61.974%" y2="-73.036%"><stop stop-color="#6BA3DE" offset="0%"/><stop stop-color="#202873" offset="100%"/></linearGradient><rect id="a" x="0" y="0" width="370" height="180" rx="10"/></defs><g fill="none" fill-rule="evenodd"><mask id="b" fill="#fff"><use xlink:href="#a"/></mask><use fill="#FFF" xlink:href="#a"/><g mask="url(#b)"><path d="M190.628 21.659a2.128 2.128 0 00-1.58 1.071l-2.635 4.728-15.095-.902a2.131 2.131 0 00-1.83.844l-6.9 9.169a2.114 2.114 0 00-.378 1.722l.925 4.235-4.056-3.368a2.133 2.133 0 00-1.7-.463l-8.992 1.445-2.51-3.002a2.133 2.133 0 00-2.91-.339l-3.371 2.519-.758-1.259a2.128 2.128 0 00-1.448-.995l-40.093-7.203c-.097-.018-7.147.189-21.149.62a2.133 2.133 0 00-1.229.438l-8.545 6.55a2.116 2.116 0 00-.721 2.35l5.137 15.355-.254 7.34-2.836.404a2.13 2.13 0 00-1.297.698L51.943 79.99a2.115 2.115 0 00-.478 1.87l1.644 7.204c.02.09.33.816.928 2.179l-1.57-.435a2.13 2.13 0 00-2.502 1.154l-5.916 12.771a2.115 2.115 0 00.642 2.574l12.488 9.496c.349.265.77.416 1.209.433l16.963.65 5.318.836 2.445 2.976a2.133 2.133 0 002.527.588l3.51-1.59 15.671-5.204c.067-.023 5.659-2.853 16.774-8.49l22.045 10.532 2.118 12.666c.06.352.207.684.43.965l9.292 11.73-.537 3.747-12.247-2.496a2.134 2.134 0 00-1.795.455 2.117 2.117 0 00-.757 1.684l.306 10.386-7.763 10.211a2.114 2.114 0 00-.09 2.432l3.614 5.566a2.132 2.132 0 002.69.768l9.11-4.254 3.216 3.45a2.13 2.13 0 001.32.664l20.376 2.292c.434.05.872-.036 1.256-.244l33.192-18.009c.396-.215.713-.549.905-.954l1.93-4.061 5.426 3.407-1.47.284a2.125 2.125 0 00-1.657 1.566l-1.08 4.304-13.927 7.094a2.12 2.12 0 00.136 3.838l14.07 5.966-.574 10.303a2.123 2.123 0 001.943 2.23l11.502.982a2.133 2.133 0 001.544-.485l11.831-9.822c.023-.02 1.771-1.664 5.245-4.933l2.902.482c.06.01 3.108.13 9.144.357.889.033 1.704-.49 2.044-1.308l3.944-9.496c.267-.644.2-1.378-.18-1.963a2.13 2.13 0 00-1.725-.967l-11.502-.328a2.133 2.133 0 00-1.303.398l-4.723 3.383-4.846.109-.92-3.893a2.12 2.12 0 00-.719-1.151l-1.28-1.052 19.074-.76a2.127 2.127 0 001.908-1.379l5.999-16.044 13.543-8.787a2.12 2.12 0 00.94-1.437l1.77-10.875 4.397-1.546c.52-.183.948-.56 1.194-1.051l1.024-2.04 12.418.59a2.133 2.133 0 001.535-.552c.418-.38.667-.91.691-1.473l.658-15.063a2.119 2.119 0 00-1.07-1.933l-1.087-.619.439-3.934 5.566-7.397a2.115 2.115 0 00-.268-2.838l-11.173-10.15a2.129 2.129 0 00-.631-.397l-17.747-7.204a2.132 2.132 0 00-2.572.787l-.985 1.472-7.063-9.122a2.133 2.133 0 00-2.507-.66l-9.146 3.821-7.6-4.951a2.134 2.134 0 00-2.291-.029l-3.131 1.95-7.25-17.34a2.129 2.129 0 00-2.2-1.291l-10.028 1.11-1.652-5.97 2.893-1.236a2.113 2.113 0 001.012-2.996l-8.215-14.407a2.13 2.13 0 00-1.948-1.07c-.041.001-6.675.883-19.901 2.644z" fill="url(#c)" transform="translate(154 -8)"/><path fill="url(#d)" d="M0 12.63l18.694 13.9.192 18.667L0 31.727z" transform="translate(154 94.487)"/><path fill="url(#e)" d="M38.062 14.293L18.667 26.519l.22 18.678L38.061 32.27z" transform="translate(154 94.487)"/><path fill="url(#f)" d="M38.055 14.344L18.68 26.565.016 12.655 19.176 0z" transform="translate(154 94.487)"/><path fill="url(#d)" d="M0 10.75l15.818 11.83.163 15.886L0 27z" transform="translate(225.862 125.847)"/><path fill="url(#e)" d="M32.206 12.164L15.796 22.57l.185 15.897 16.225-11.003z" transform="translate(225.862 125.847)"/><path fill="url(#f)" d="M32.2 12.207L15.807 22.61.014 10.77 16.226 0z" transform="translate(225.862 125.847)"/><g><path fill="url(#d)" d="M0 7.794l11.504 8.576.118 11.518L0 19.576z" transform="translate(183.6 27.963)"/><path fill="url(#e)" d="M23.423 8.819l-11.935 7.544.134 11.525 11.8-7.977z" transform="translate(183.6 27.963)"/><path fill="url(#f)" d="M23.418 8.85l-11.922 7.541L.01 7.81 11.8 0z" transform="translate(183.6 27.963)"/></g><path d="M87.46 145.315c16.222-30.341 39.15-47.117 68.784-50.328" stroke="url(#g)" stroke-width="1.955" stroke-linecap="round" stroke-dasharray="2.932799927425378,6.843199512767796" transform="translate(154 -8)"/><path d="M54.857 109.183c18.491-44.772 51.773-74.08 99.847-87.925" stroke="url(#g)" stroke-width="1.955" stroke-linecap="round" stroke-dasharray="2.932799927425378,6.843199512767796" transform="rotate(61 188.571 191.94)"/><path d="M19.158 115.445c40.996-41.804 87.96-50.473 140.892-26.008" stroke="url(#g)" stroke-width="1.955" stroke-linecap="round" stroke-dasharray="2.932799927425378,6.843199512767796" transform="translate(154 -8)"/><g fill-rule="nonzero"><path d="M330.068 47.884c5.072 2.92 9.17 9.996 9.154 15.807-.017 5.81-4.142 8.153-9.214 5.234-5.073-2.92-9.172-9.996-9.155-15.806.016-5.811 4.141-8.155 9.215-5.235z" fill="#ADBDE1"/><path d="M21.959 28.628c-5.074-2.92-9.172-9.997-9.156-15.807.004-1.14.167-2.146.464-3.006-3.63-.68-6.253 1.745-6.266 6.374-.016 5.81 4.082 12.887 9.156 15.806 4.076 2.346 7.538 1.291 8.75-2.228-.926-.174-1.917-.546-2.948-1.14z" fill="url(#h)" transform="translate(313.851 36.93)"/><path d="M350.042 91.383h-.003c0-.582-.08-1.163-.246-1.737 0 0-.005-.005-.005-.01a6.989 6.989 0 00-.489-1.222c-.004-.01-.009-.014-.013-.023-.825-1.604-2.333-3.11-4.523-4.37-7.035-4.053-18.55-4.053-25.59 0-2.19 1.264-3.697 2.77-4.522 4.375a6.868 6.868 0 00-.484 1.2 6.207 6.207 0 00-.265 1.787v3.258c-.002 2.669 1.754 5.34 5.27 7.362 7.04 4.054 18.556 4.054 25.591 0 3.52-2.022 5.275-4.692 5.275-7.362h.004v-3.258z" fill="#081E54"/><path d="M344.764 98.745c-7.035 4.053-18.551 4.053-25.59 0-4.306-2.477-5.975-5.924-5.007-9.15a6.878 6.878 0 01.484-1.2c.825-1.603 2.333-3.11 4.523-4.374 7.04-4.053 18.555-4.053 25.59 0 2.19 1.259 3.697 2.766 4.522 4.37.005.01.01.014.014.023a6.966 6.966 0 01.493 1.232c.931 3.212-.742 6.635-5.03 9.099z" fill="#29407A"/><path d="M16.232 5.372c8.052 4.634 14.559 15.867 14.533 25.091-.027 9.224-13.945 25.09-14.678 25.926-.725-1.675-14.51-33.485-14.483-42.708C1.63 4.457 8.18.738 16.232 5.372zm-.075 26.623c5.072 2.92 9.197.576 9.214-5.234.016-5.811-4.082-12.887-9.154-15.807-5.074-2.92-9.2-.576-9.216 5.235-.016 5.81 4.082 12.887 9.156 15.806z" fill="url(#i)" transform="translate(313.851 36.93)"/><path d="M22.064 1.994C18.01-.338 14.339-.555 11.688.98L5.857 4.359c2.651-1.536 6.323-1.32 10.375 1.013 8.052 4.634 14.559 15.867 14.533 25.091-.027 9.224-13.945 25.09-14.678 25.926l5.832-3.379c.732-.835 14.65-16.701 14.677-25.925.026-9.224-6.48-20.457-14.532-25.091z" fill="url(#j)" transform="translate(313.851 36.93)"/></g></g></g></svg>