<svg width="370" height="180" fill="none" xmlns="http://www.w3.org/2000/svg"><g fill-rule="evenodd" clip-path="url(#clip0)"><rect width="370" height="180" rx="10" fill="#fff"/><rect y="-1" width="370" height="180" rx="7" fill="#fff"/><mask id="a" maskUnits="userSpaceOnUse" x="0" y="-1" width="370" height="180"><rect y="-1" width="370" height="180" rx="7" fill="#fff"/></mask><rect y="-1" width="370" height="180" rx="10" fill="#fff" class="liki"/><path d="M207.5 144.5L367 80l3.155 89.253c.2 5.658-4.333 10.353-9.994 10.353H170l37.5-35.106z" fill="url(#paint0_linear)"/><path clip-rule="evenodd" d="M336.349 78.67l46.869 19.354 12.132-12.431-46.677-19.112-12.324 12.189z" fill="#A9BCDC"/><path clip-rule="evenodd" d="M336.349 78.594l46.855 19.346-.039 25.878-46.816-7.106V78.594z" fill="url(#paint1_linear)"/><path clip-rule="evenodd" d="M287.136 95.664l49.443-17.07h-14.225l-49.826 17.48 14.608-.41z" fill="#E0E7F7"/><path clip-rule="evenodd" d="M287.07 95.613l50.087-17.333v49.067l-50.087 17.469V95.613z" fill="#A9BCDC"/><path clip-rule="evenodd" d="M336.349 78.594l46.855 19.348v48.488l-46.855-19.382V78.594z" fill="#D4DDEF"/><path clip-rule="evenodd" d="M289.151 28.618l33.554-8.99s5.702 11.916 8.483 22.296c2.782 10.38 4.002 21.177 4.002 21.177l-33.554 8.99s-.93-9.714-4.002-21.176c-3.071-11.462-8.483-22.297-8.483-22.297z" fill="url(#paint2_linear)"/><path clip-rule="evenodd" d="M308.074 45.653l34.654-2.423s3.323 12.787 4.073 23.506c.749 10.72-.113 21.552-.113 21.552l-34.653 2.423s.94-9.715.113-21.552c-.828-11.837-4.074-23.506-4.074-23.506z" fill="url(#paint3_linear)"/><path clip-rule="evenodd" d="M318.431 53.91l-11.365-4.052-8.562 10.203 11.488 3.905 8.439-10.057z" fill="#172750"/><path clip-rule="evenodd" d="M318.369 53.982l-11.357-4.063-5.971-10.477 11.48 3.917 5.848 10.623z" fill="#29407A"/><path clip-rule="evenodd" d="M301.103 39.37l5.963 10.488-8.562 10.203-5.84-10.635 8.439-10.057z" fill="#344B89"/><path clip-rule="evenodd" d="M273.129 46.262l-4.043 6.689 5.294 6.538 3.967-6.783-5.218-6.444z" fill="#172750"/><path clip-rule="evenodd" d="M273.167 46.309l-4.05 6.683-7.377 2.57 3.974-6.776 7.453-2.477z" fill="#344B89"/><path clip-rule="evenodd" d="M261.702 55.515l7.384-2.564 5.294 6.538-7.46 2.47-5.218-6.444z" fill="#29407A"/><path clip-rule="evenodd" d="M366.351 91.829l-24.974 1.048-7.788 23.97 25.096-1.426 7.666-23.592z" fill="#172750"/><path clip-rule="evenodd" d="M366.29 92.017l-24.968 1.02-19.594-15.499 25.091-1.396 19.471 15.875z" fill="#29407A"/><path clip-rule="evenodd" d="M321.777 77.549l19.6 15.328-7.788 23.97-19.466-15.905 7.654-23.393z" fill="#344B89"/><path clip-rule="evenodd" d="M333.925 114.677l49.278-16.7v49.388l-49.278 16.854v-49.542z" fill="#A9BCDC"/><path clip-rule="evenodd" d="M333.925 114.955l49.266-16.979v27.875l-26.645 10.092-22.621-20.988z" fill="url(#paint4_linear)"/><path clip-rule="evenodd" d="M333.89 114.684l49.298-16.708 8.087 15.061-49.914 17.272-7.471-15.625z" fill="#E0E7F7"/><path clip-rule="evenodd" d="M287.07 95.553l46.855 19.499v49.145l-46.855-19.395V95.554z" fill="#DFE6F6"/><path clip-rule="evenodd" d="M287.17 95.553l46.765 19.102-.049 25.828-46.816-19.435.1-25.495z" fill="url(#paint5_linear)"/><path clip-rule="evenodd" d="M287.09 95.66l46.854 19.101-9.444-14.118-47.125-19.626 9.715 14.643z" fill="#fff"/><path d="M314.549 121.641c.058-2.979-1.882-5.973-5.819-8.246-7.728-4.462-20.215-4.462-27.893 0-3.826 2.224-5.735 5.137-5.731 8.051v-.028 34.498c-.009 2.943 1.828 5.89 5.716 8.136 7.727 4.462 20.215 4.462 27.892 0 3.814-2.217 5.83-5.118 5.838-8.023v-34.498c0 .037-.002.073-.003.11z" fill="#A66206"/><path d="M314.552 121.531v34.498c-.008 2.905-2.023 5.806-5.837 8.023-7.678 4.462-20.166 4.462-27.893 0-3.888-2.245-5.724-5.193-5.716-8.136v-34.498c-.008 2.943 1.934 5.891 5.822 8.136 7.727 4.462 20.215 4.463 27.893 0 3.814-2.217 5.723-5.118 5.731-8.023z" fill="url(#paint6_linear)"/><path d="M313.45 122.395l-.1 32.571c-.008 2.743-1.81 5.481-5.411 7.574-7.248 4.213-19.038 4.213-26.334.001-3.671-2.12-5.405-4.903-5.397-7.682v-32.57c-.008 2.779 1.826 5.561 5.497 7.681 7.295 4.213 19.086 4.213 26.334 0 3.601-2.093 5.403-4.832 5.411-7.575z" fill="url(#paint7_linear)"/><path d="M294.184 139.047c-4.809-.099-9.573-1.211-13.256-3.338-3.888-2.246-5.83-5.193-5.822-8.136L275 151.199c-.008 2.943 1.934 5.89 5.822 8.136 3.71 2.142 8.517 3.255 13.362 3.341v-23.629z" fill="#fff"/><path d="M289.253 147.891a28.52 28.52 0 01-4.661-1.201v-4.572a22.13 22.13 0 01-3.664-1.669c-.28-.162-.548-.328-.809-.497v4.572c-1.136-.739-2.082-1.541-2.832-2.386v5.119c.756.828 1.702 1.613 2.832 2.335v3.846c.227.145.462.288.703.427 1.16.67 2.428 1.239 3.77 1.708v-3.846c1.478.515 3.046.909 4.661 1.182v-5.018z" fill="#5884C3"/><path d="M308.73 113.395c7.727 4.462 7.768 11.697.091 16.159-7.678 4.463-20.166 4.462-27.893 0s-7.768-11.696-.091-16.159c7.678-4.462 20.165-4.462 27.893 0z" fill="url(#paint8_linear)"/><path d="M306.37 111.235c.034-1.754-1.108-3.515-3.425-4.853-4.547-2.626-11.896-2.626-16.413 0-2.252 1.309-3.375 3.023-3.373 4.738v-.016l-.031 7.142c-.005 1.732 1.138 3.466 3.426 4.787 4.547 2.626 11.896 2.626 16.414 0 2.244-1.304 3.367-3.011 3.372-4.721l.031-7.142-.001.065z" fill="#A66206"/><path d="M306.371 111.17l-.031 7.142c-.005 1.71-1.128 3.417-3.373 4.722-4.518 2.625-11.866 2.625-16.413 0-2.288-1.322-3.431-3.056-3.426-4.788l.031-7.142c-.005 1.731 1.138 3.466 3.426 4.787 4.547 2.626 11.896 2.626 16.413 0 2.245-1.304 3.368-3.011 3.373-4.721z" fill="url(#paint9_linear)"/><path d="M302.945 106.382c4.547 2.626 4.571 6.883.053 9.509-4.517 2.626-11.866 2.626-16.413 0-4.547-2.626-4.571-6.883-.054-9.509 4.518-2.626 11.866-2.626 16.414 0z" fill="#D07400"/><path d="M310.018 106.964c.045-2.304-1.455-4.618-4.5-6.376-5.975-3.45-15.631-3.45-21.567 0-2.959 1.72-4.435 3.972-4.432 6.226v-.022l-.041 6.124c-.006 2.276 1.495 4.555 4.502 6.291 5.975 3.451 15.631 3.451 21.568 0 2.949-1.714 4.425-3.957 4.432-6.203l.04-6.125-.002.085z" fill="#D8D8DA"/><path d="M310.02 106.879l-.04 6.124c-.007 2.247-1.483 4.49-4.432 6.204-5.937 3.451-15.593 3.45-21.568 0-3.007-1.736-4.508-4.015-4.502-6.291l.041-6.124c-.007 2.275 1.495 4.554 4.502 6.291 5.975 3.45 15.631 3.45 21.568 0 2.949-1.714 4.425-3.958 4.431-6.204z" fill="#EBEFF8"/><path d="M305.518 100.588c5.975 3.45 6.007 9.044.071 12.495-5.937 3.45-15.593 3.45-21.568 0-5.975-3.451-6.007-9.044-.07-12.495 5.936-3.45 15.592-3.45 21.567 0z" fill="#DEE5F5"/><path d="M284.078 119.261c.317.18.644.35.98.511v-6.145a15.908 15.908 0 01-.98-.513v6.147zM290.107 115.238a23.941 23.941 0 01-.98-.203v6.133c.323.074.651.141.98.202v-6.132zM292.631 115.58a28.706 28.706 0 01-.979-.103v6.129c.325.039.651.074.979.101v-6.127zM287.582 114.615a20.099 20.099 0 01-.979-.334v6.139c.321.118.647.23.979.333v-6.138zM306.799 118.384c.357-.266.683-.542.979-.824v-6.086c-.296.28-.623.552-.979.815v6.095zM297.68 115.514c-.325.036-.652.063-.979.087v6.122c.328-.024.654-.052.979-.088v-6.121zM281.554 117.388c.295.293.621.578.979.854v-6.155a10.32 10.32 0 01-.979-.864v6.165zM305.254 113.268c-.318.173-.644.338-.98.493v6.106c.337-.156.663-.322.98-.497v-6.102zM300.205 115.1c-.324.071-.65.137-.98.195v6.117c.33-.058.656-.124.98-.196V115.1zM302.729 114.386c-.321.114-.647.22-.979.318v6.113c.332-.099.658-.207.979-.321v-6.11zM295.156 121.79v-6.124c-.327.004-.653.003-.98-.004v6.125c.327.007.653.007.98.003z" fill="#DEE5F5"/><path d="M207.5 144.5L367 80l3.155 89.253c.2 5.658-4.333 10.353-9.994 10.353H170l37.5-35.106z" fill="url(#paint10_linear)"/><path clip-rule="evenodd" d="M336.349 78.67l46.869 19.354 12.132-12.431-46.677-19.112-12.324 12.189z" fill="#A9BCDC"/><path clip-rule="evenodd" d="M336.349 78.594l46.855 19.346-.039 25.878-46.816-7.106V78.594z" fill="url(#paint11_linear)"/><path clip-rule="evenodd" d="M287.136 95.664l49.443-17.07h-14.225l-49.826 17.48 14.608-.41z" fill="#E0E7F7"/><path clip-rule="evenodd" d="M287.07 95.613l50.087-17.333v49.067l-50.087 17.469V95.613z" fill="#A9BCDC"/><path clip-rule="evenodd" d="M336.349 78.594l46.855 19.348v48.488l-46.855-19.382V78.594z" fill="#D4DDEF"/><path clip-rule="evenodd" d="M289.151 28.618l33.554-8.99s5.702 11.916 8.483 22.296c2.782 10.38 4.002 21.177 4.002 21.177l-33.554 8.99s-.93-9.714-4.002-21.176c-3.071-11.462-8.483-22.297-8.483-22.297z" fill="url(#paint12_linear)"/><path clip-rule="evenodd" d="M308.074 45.653l34.654-2.423s3.323 12.787 4.073 23.506c.749 10.72-.113 21.552-.113 21.552l-34.653 2.423s.94-9.715.113-21.552c-.828-11.837-4.074-23.506-4.074-23.506z" fill="url(#paint13_linear)"/><path clip-rule="evenodd" d="M318.431 53.91l-11.365-4.052-8.562 10.203 11.488 3.905 8.439-10.057z" fill="#172750"/><path clip-rule="evenodd" d="M318.369 53.982l-11.357-4.063-5.971-10.477 11.48 3.917 5.848 10.623z" fill="#29407A"/><path clip-rule="evenodd" d="M301.103 39.37l5.963 10.488-8.562 10.203-5.84-10.635 8.439-10.057z" fill="#344B89"/><path clip-rule="evenodd" d="M273.129 46.262l-4.043 6.689 5.294 6.538 3.967-6.783-5.218-6.444z" fill="#172750"/><path clip-rule="evenodd" d="M273.167 46.309l-4.05 6.683-7.377 2.57 3.974-6.776 7.453-2.477z" fill="#344B89"/><path clip-rule="evenodd" d="M261.702 55.515l7.384-2.564 5.294 6.538-7.46 2.47-5.218-6.444z" fill="#29407A"/><path clip-rule="evenodd" d="M366.351 91.829l-24.974 1.048-7.788 23.97 25.096-1.426 7.666-23.592z" fill="#172750"/><path clip-rule="evenodd" d="M366.29 92.017l-24.968 1.02-19.594-15.499 25.091-1.396 19.471 15.875z" fill="#29407A"/><path clip-rule="evenodd" d="M321.777 77.549l19.6 15.328-7.788 23.97-19.466-15.905 7.654-23.393z" fill="#344B89"/><path clip-rule="evenodd" d="M333.925 114.677l49.278-16.7v49.388l-49.278 16.854v-49.542z" fill="#A9BCDC"/><path clip-rule="evenodd" d="M333.925 114.955l49.266-16.979v27.875l-26.645 10.092-22.621-20.988z" fill="url(#paint14_linear)"/><path clip-rule="evenodd" d="M333.89 114.684l49.298-16.708 8.087 15.061-49.914 17.272-7.471-15.625z" fill="#E0E7F7"/><path clip-rule="evenodd" d="M287.07 95.553l46.855 19.499v49.145l-46.855-19.395V95.554z" fill="#DFE6F6"/><path clip-rule="evenodd" d="M287.17 95.553l46.765 19.102-.049 25.828-46.816-19.435.1-25.495z" fill="url(#paint15_linear)"/><path clip-rule="evenodd" d="M287.09 95.66l46.854 19.101-9.444-14.118-47.125-19.626 9.715 14.643z" fill="#fff"/><path d="M314.549 121.641c.058-2.979-1.882-5.973-5.819-8.246-7.728-4.462-20.215-4.462-27.893 0-3.826 2.224-5.735 5.137-5.731 8.051v-.028 34.498c-.009 2.943 1.828 5.89 5.716 8.136 7.727 4.462 20.215 4.462 27.892 0 3.814-2.217 5.83-5.118 5.838-8.023v-34.498c0 .037-.002.073-.003.11z" fill="#A66206"/><path d="M314.552 121.531v34.498c-.008 2.905-2.023 5.806-5.837 8.023-7.678 4.462-20.166 4.462-27.893 0-3.888-2.245-5.724-5.193-5.716-8.136v-34.498c-.008 2.943 1.934 5.891 5.822 8.136 7.727 4.462 20.215 4.463 27.893 0 3.814-2.217 5.723-5.118 5.731-8.023z" fill="url(#paint16_linear)"/><path d="M313.45 122.395l-.1 32.571c-.008 2.743-1.81 5.481-5.411 7.574-7.248 4.213-19.038 4.213-26.334.001-3.671-2.12-5.405-4.903-5.397-7.682v-32.57c-.008 2.779 1.826 5.561 5.497 7.681 7.295 4.213 19.086 4.213 26.334 0 3.601-2.093 5.403-4.832 5.411-7.575z" fill="url(#paint17_linear)"/><path d="M294.184 139.047c-4.809-.099-9.573-1.211-13.256-3.338-3.888-2.246-5.83-5.193-5.822-8.136L275 151.199c-.008 2.943 1.934 5.89 5.822 8.136 3.71 2.142 8.517 3.255 13.362 3.341v-23.629z" fill="#fff"/><path d="M289.253 147.891a28.52 28.52 0 01-4.661-1.201v-4.572a22.13 22.13 0 01-3.664-1.669c-.28-.162-.548-.328-.809-.497v4.572c-1.136-.739-2.082-1.541-2.832-2.386v5.119c.756.828 1.702 1.613 2.832 2.335v3.846c.227.145.462.288.703.427 1.16.67 2.428 1.239 3.77 1.708v-3.846c1.478.515 3.046.909 4.661 1.182v-5.018z" fill="#5884C3"/><path d="M308.73 113.395c7.727 4.462 7.768 11.697.091 16.159-7.678 4.463-20.166 4.462-27.893 0s-7.768-11.696-.091-16.159c7.678-4.462 20.165-4.462 27.893 0z" fill="url(#paint18_linear)"/><path d="M306.37 111.235c.034-1.754-1.108-3.515-3.425-4.853-4.547-2.626-11.896-2.626-16.413 0-2.252 1.309-3.375 3.023-3.373 4.738v-.016l-.031 7.142c-.005 1.732 1.138 3.466 3.426 4.787 4.547 2.626 11.896 2.626 16.414 0 2.244-1.304 3.367-3.011 3.372-4.721l.031-7.142-.001.065z" fill="#A66206"/><path d="M306.371 111.17l-.031 7.142c-.005 1.71-1.128 3.417-3.373 4.722-4.518 2.625-11.866 2.625-16.413 0-2.288-1.322-3.431-3.056-3.426-4.788l.031-7.142c-.005 1.731 1.138 3.466 3.426 4.787 4.547 2.626 11.896 2.626 16.413 0 2.245-1.304 3.368-3.011 3.373-4.721z" fill="url(#paint19_linear)"/><path d="M302.945 106.382c4.547 2.626 4.571 6.883.053 9.509-4.517 2.626-11.866 2.626-16.413 0-4.547-2.626-4.571-6.883-.054-9.509 4.518-2.626 11.866-2.626 16.414 0z" fill="#D07400"/><path d="M310.018 106.964c.045-2.304-1.455-4.618-4.5-6.376-5.975-3.45-15.631-3.45-21.567 0-2.959 1.72-4.435 3.972-4.432 6.226v-.022l-.041 6.124c-.006 2.276 1.495 4.555 4.502 6.291 5.975 3.451 15.631 3.451 21.568 0 2.949-1.714 4.425-3.957 4.432-6.203l.04-6.125-.002.085z" fill="#D8D8DA"/><path d="M310.02 106.879l-.04 6.124c-.007 2.247-1.483 4.49-4.432 6.204-5.937 3.451-15.593 3.45-21.568 0-3.007-1.736-4.508-4.015-4.502-6.291l.041-6.124c-.007 2.275 1.495 4.554 4.502 6.291 5.975 3.45 15.631 3.45 21.568 0 2.949-1.714 4.425-3.958 4.431-6.204z" fill="#EBEFF8"/><path d="M305.518 100.588c5.975 3.45 6.007 9.044.071 12.495-5.937 3.45-15.593 3.45-21.568 0-5.975-3.451-6.007-9.044-.07-12.495 5.936-3.45 15.592-3.45 21.567 0z" fill="#DEE5F5"/><path d="M284.078 119.261c.317.18.644.35.98.511v-6.145a15.908 15.908 0 01-.98-.513v6.147zM290.107 115.238a23.941 23.941 0 01-.98-.203v6.133c.323.074.651.141.98.202v-6.132zM292.631 115.58a28.706 28.706 0 01-.979-.103v6.129c.325.039.651.074.979.101v-6.127zM287.582 114.615a20.099 20.099 0 01-.979-.334v6.139c.321.118.647.23.979.333v-6.138zM306.799 118.384c.357-.266.683-.542.979-.824v-6.086c-.296.28-.623.552-.979.815v6.095zM297.68 115.514c-.325.036-.652.063-.979.087v6.122c.328-.024.654-.052.979-.088v-6.121zM281.554 117.388c.295.293.621.578.979.854v-6.155a10.32 10.32 0 01-.979-.864v6.165zM305.254 113.268c-.318.173-.644.338-.98.493v6.106c.337-.156.663-.322.98-.497v-6.102zM300.205 115.1c-.324.071-.65.137-.98.195v6.117c.33-.058.656-.124.98-.196V115.1zM302.729 114.386c-.321.114-.647.22-.979.318v6.113c.332-.099.658-.207.979-.321v-6.11zM295.156 121.79v-6.124c-.327.004-.653.003-.98-.004v6.125c.327.007.653.007.98.003z" fill="#DEE5F5"/><path d="M207.5 144.5L367 80l3.155 89.253c.2 5.658-4.333 10.353-9.994 10.353H170l37.5-35.106z" fill="url(#paint20_linear)"/><path clip-rule="evenodd" d="M336.349 78.67l46.869 19.354 12.132-12.431-46.677-19.112-12.324 12.189z" fill="#A9BCDC"/><path clip-rule="evenodd" d="M336.349 78.594l46.855 19.346-.039 25.878-46.816-7.106V78.594z" fill="url(#paint21_linear)"/><path clip-rule="evenodd" d="M287.136 95.664l49.443-17.07h-14.225l-49.826 17.48 14.608-.41z" fill="#E0E7F7"/><path clip-rule="evenodd" d="M287.07 95.613l50.087-17.333v49.067l-50.087 17.469V95.613z" fill="#A9BCDC"/><path clip-rule="evenodd" d="M336.349 78.594l46.855 19.348v48.488l-46.855-19.382V78.594z" fill="#D4DDEF"/><path clip-rule="evenodd" d="M289.151 28.618l33.554-8.99s5.702 11.916 8.483 22.296c2.782 10.38 4.002 21.177 4.002 21.177l-33.554 8.99s-.93-9.714-4.002-21.176c-3.071-11.462-8.483-22.297-8.483-22.297z" fill="url(#paint22_linear)"/><path clip-rule="evenodd" d="M308.074 45.653l34.654-2.423s3.323 12.787 4.073 23.506c.749 10.72-.113 21.552-.113 21.552l-34.653 2.423s.94-9.715.113-21.552c-.828-11.837-4.074-23.506-4.074-23.506z" fill="url(#paint23_linear)"/><path clip-rule="evenodd" d="M318.431 53.91l-11.365-4.052-8.562 10.203 11.488 3.905 8.439-10.057z" fill="#172750"/><path clip-rule="evenodd" d="M318.369 53.982l-11.357-4.063-5.971-10.477 11.48 3.917 5.848 10.623z" fill="#29407A"/><path clip-rule="evenodd" d="M301.103 39.37l5.963 10.488-8.562 10.203-5.84-10.635 8.439-10.057z" fill="#344B89"/><path clip-rule="evenodd" d="M273.129 46.262l-4.043 6.689 5.294 6.538 3.967-6.783-5.218-6.444z" fill="#172750"/><path clip-rule="evenodd" d="M273.167 46.309l-4.05 6.683-7.377 2.57 3.974-6.776 7.453-2.477z" fill="#344B89"/><path clip-rule="evenodd" d="M261.702 55.515l7.384-2.564 5.294 6.538-7.46 2.47-5.218-6.444z" fill="#29407A"/><path clip-rule="evenodd" d="M366.351 91.829l-24.974 1.048-7.788 23.97 25.096-1.426 7.666-23.592z" fill="#172750"/><path clip-rule="evenodd" d="M366.29 92.017l-24.968 1.02-19.594-15.499 25.091-1.396 19.471 15.875z" fill="#29407A"/><path clip-rule="evenodd" d="M321.777 77.549l19.6 15.328-7.788 23.97-19.466-15.905 7.654-23.393z" fill="#344B89"/><path clip-rule="evenodd" d="M333.925 114.677l49.278-16.7v49.388l-49.278 16.854v-49.542z" fill="#A9BCDC"/><path clip-rule="evenodd" d="M333.925 114.955l49.266-16.979v27.875l-26.645 10.092-22.621-20.988z" fill="url(#paint24_linear)"/><path clip-rule="evenodd" d="M333.89 114.684l49.298-16.708 8.087 15.061-49.914 17.272-7.471-15.625z" fill="#E0E7F7"/><path clip-rule="evenodd" d="M287.07 95.553l46.855 19.499v49.145l-46.855-19.395V95.554z" fill="#DFE6F6"/><path clip-rule="evenodd" d="M287.17 95.553l46.765 19.102-.049 25.828-46.816-19.435.1-25.495z" fill="url(#paint25_linear)"/><path clip-rule="evenodd" d="M287.09 95.66l46.854 19.101-9.444-14.118-47.125-19.626 9.715 14.643z" fill="#fff"/><path d="M314.549 121.641c.058-2.979-1.882-5.973-5.819-8.246-7.728-4.462-20.215-4.462-27.893 0-3.826 2.224-5.735 5.137-5.731 8.051v-.028 34.498c-.009 2.943 1.828 5.89 5.716 8.136 7.727 4.462 20.215 4.462 27.892 0 3.814-2.217 5.83-5.118 5.838-8.023v-34.498c0 .037-.002.073-.003.11z" fill="#A66206"/><path d="M314.552 121.531v34.498c-.008 2.905-2.023 5.806-5.837 8.023-7.678 4.462-20.166 4.462-27.893 0-3.888-2.245-5.724-5.193-5.716-8.136v-34.498c-.008 2.943 1.934 5.891 5.822 8.136 7.727 4.462 20.215 4.463 27.893 0 3.814-2.217 5.723-5.118 5.731-8.023z" fill="url(#paint26_linear)"/><path d="M313.45 122.395l-.1 32.571c-.008 2.743-1.81 5.481-5.411 7.574-7.248 4.213-19.038 4.213-26.334.001-3.671-2.12-5.405-4.903-5.397-7.682v-32.57c-.008 2.779 1.826 5.561 5.497 7.681 7.295 4.213 19.086 4.213 26.334 0 3.601-2.093 5.403-4.832 5.411-7.575z" fill="url(#paint27_linear)"/><path d="M294.184 139.047c-4.809-.099-9.573-1.211-13.256-3.338-3.888-2.246-5.83-5.193-5.822-8.136L275 151.199c-.008 2.943 1.934 5.89 5.822 8.136 3.71 2.142 8.517 3.255 13.362 3.341v-23.629z" fill="#fff"/><path d="M289.253 147.891a28.52 28.52 0 01-4.661-1.201v-4.572a22.13 22.13 0 01-3.664-1.669c-.28-.162-.548-.328-.809-.497v4.572c-1.136-.739-2.082-1.541-2.832-2.386v5.119c.756.828 1.702 1.613 2.832 2.335v3.846c.227.145.462.288.703.427 1.16.67 2.428 1.239 3.77 1.708v-3.846c1.478.515 3.046.909 4.661 1.182v-5.018z" fill="#5884C3"/><path d="M308.73 113.395c7.727 4.462 7.768 11.697.091 16.159-7.678 4.463-20.166 4.462-27.893 0s-7.768-11.696-.091-16.159c7.678-4.462 20.165-4.462 27.893 0z" fill="url(#paint28_linear)"/><path d="M306.37 111.235c.034-1.754-1.108-3.515-3.425-4.853-4.547-2.626-11.896-2.626-16.413 0-2.252 1.309-3.375 3.023-3.373 4.738v-.016l-.031 7.142c-.005 1.732 1.138 3.466 3.426 4.787 4.547 2.626 11.896 2.626 16.414 0 2.244-1.304 3.367-3.011 3.372-4.721l.031-7.142-.001.065z" fill="#A66206"/><path d="M306.371 111.17l-.031 7.142c-.005 1.71-1.128 3.417-3.373 4.722-4.518 2.625-11.866 2.625-16.413 0-2.288-1.322-3.431-3.056-3.426-4.788l.031-7.142c-.005 1.731 1.138 3.466 3.426 4.787 4.547 2.626 11.896 2.626 16.413 0 2.245-1.304 3.368-3.011 3.373-4.721z" fill="url(#paint29_linear)"/><path d="M302.945 106.382c4.547 2.626 4.571 6.883.053 9.509-4.517 2.626-11.866 2.626-16.413 0-4.547-2.626-4.571-6.883-.054-9.509 4.518-2.626 11.866-2.626 16.414 0z" fill="#D07400"/><path d="M310.018 106.964c.045-2.304-1.455-4.618-4.5-6.376-5.975-3.45-15.631-3.45-21.567 0-2.959 1.72-4.435 3.972-4.432 6.226v-.022l-.041 6.124c-.006 2.276 1.495 4.555 4.502 6.291 5.975 3.451 15.631 3.451 21.568 0 2.949-1.714 4.425-3.957 4.432-6.203l.04-6.125-.002.085z" fill="#D8D8DA"/><path d="M310.02 106.879l-.04 6.124c-.007 2.247-1.483 4.49-4.432 6.204-5.937 3.451-15.593 3.45-21.568 0-3.007-1.736-4.508-4.015-4.502-6.291l.041-6.124c-.007 2.275 1.495 4.554 4.502 6.291 5.975 3.45 15.631 3.45 21.568 0 2.949-1.714 4.425-3.958 4.431-6.204z" fill="#EBEFF8"/><path d="M305.518 100.588c5.975 3.45 6.007 9.044.071 12.495-5.937 3.45-15.593 3.45-21.568 0-5.975-3.451-6.007-9.044-.07-12.495 5.936-3.45 15.592-3.45 21.567 0z" fill="#DEE5F5"/><path d="M284.078 119.261c.317.18.644.35.98.511v-6.145a15.908 15.908 0 01-.98-.513v6.147zM290.107 115.238a23.941 23.941 0 01-.98-.203v6.133c.323.074.651.141.98.202v-6.132zM292.631 115.58a28.706 28.706 0 01-.979-.103v6.129c.325.039.651.074.979.101v-6.127zM287.582 114.615a20.099 20.099 0 01-.979-.334v6.139c.321.118.647.23.979.333v-6.138zM306.799 118.384c.357-.266.683-.542.979-.824v-6.086c-.296.28-.623.552-.979.815v6.095zM297.68 115.514c-.325.036-.652.063-.979.087v6.122c.328-.024.654-.052.979-.088v-6.121zM281.554 117.388c.295.293.621.578.979.854v-6.155a10.32 10.32 0 01-.979-.864v6.165zM305.254 113.268c-.318.173-.644.338-.98.493v6.106c.337-.156.663-.322.98-.497v-6.102zM300.205 115.1c-.324.071-.65.137-.98.195v6.117c.33-.058.656-.124.98-.196V115.1zM302.729 114.386c-.321.114-.647.22-.979.318v6.113c.332-.099.658-.207.979-.321v-6.11zM295.156 121.79v-6.124c-.327.004-.653.003-.98-.004v6.125c.327.007.653.007.98.003z" fill="#DEE5F5"/></g><defs xmlns="http://www.w3.org/2000/svg"><linearGradient id="paint0_linear" x1="30.946" y1="107.4" x2="56.242" y2="256.531" gradientUnits="userSpaceOnUse"><stop stop-color="#93A9D6"/><stop offset="1" stop-color="#E0E7F7"/></linearGradient><linearGradient id="paint1_linear" x1="350.752" y1="73.933" x2="331.329" y2="106.502" gradientUnits="userSpaceOnUse"><stop stop-color="#E8EDF7" stop-opacity=".01"/><stop offset="1" stop-color="#C2CCE1"/></linearGradient><linearGradient id="paint2_linear" x1="251.948" y1="16.288" x2="299.774" y2="91.457" gradientUnits="userSpaceOnUse"><stop stop-color="#93A9D6"/><stop offset="1" stop-color="#E0E7F7"/></linearGradient><linearGradient id="paint3_linear" x1="299.103" y1="51.6" x2="315.515" y2="104.336" gradientUnits="userSpaceOnUse"><stop stop-color="#93A9D6"/><stop offset="1" stop-color="#E0E7F7"/></linearGradient><linearGradient id="paint4_linear" x1="444.801" y1="130.029" x2="397.932" y2="72.12" gradientUnits="userSpaceOnUse"><stop stop-color="#C5D5EA" stop-opacity=".01"/><stop offset="1" stop-color="#93AAD0"/></linearGradient><linearGradient id="paint5_linear" x1="291.862" y1="164.916" x2="346.612" y2="137.005" gradientUnits="userSpaceOnUse"><stop stop-color="#E8EDF7" stop-opacity=".01"/><stop offset="1" stop-color="#CCD6EC"/></linearGradient><linearGradient id="paint6_linear" x1="242.777" y1="178.187" x2="316.174" y2="191.131" gradientUnits="userSpaceOnUse"><stop stop-color="#6BA3DE"/><stop offset="1" stop-color="#202873"/></linearGradient><linearGradient id="paint7_linear" x1="195.914" y1="191.592" x2="310.889" y2="211.726" gradientUnits="userSpaceOnUse"><stop stop-color="#6BA3DE"/><stop offset="1" stop-color="#202873"/></linearGradient><linearGradient id="paint8_linear" x1="242.777" y1="138.263" x2="309.993" y2="162.114" gradientUnits="userSpaceOnUse"><stop stop-color="#6BA3DE"/><stop offset="1" stop-color="#202873"/></linearGradient><linearGradient id="paint9_linear" x1="216.39" y1="132.653" x2="291.569" y2="165.628" gradientUnits="userSpaceOnUse"><stop stop-color="#6BA3DE"/><stop offset="1" stop-color="#202873"/></linearGradient><linearGradient id="paint10_linear" x1="30.946" y1="107.4" x2="56.242" y2="256.531" gradientUnits="userSpaceOnUse"><stop stop-color="#93A9D6"/><stop offset="1" stop-color="#E0E7F7"/></linearGradient><linearGradient id="paint11_linear" x1="350.752" y1="73.933" x2="331.329" y2="106.502" gradientUnits="userSpaceOnUse"><stop stop-color="#E8EDF7" stop-opacity=".01"/><stop offset="1" stop-color="#C2CCE1"/></linearGradient><linearGradient id="paint12_linear" x1="251.948" y1="16.288" x2="299.774" y2="91.457" gradientUnits="userSpaceOnUse"><stop stop-color="#93A9D6"/><stop offset="1" stop-color="#E0E7F7"/></linearGradient><linearGradient id="paint13_linear" x1="299.103" y1="51.6" x2="315.515" y2="104.336" gradientUnits="userSpaceOnUse"><stop stop-color="#93A9D6"/><stop offset="1" stop-color="#E0E7F7"/></linearGradient><linearGradient id="paint14_linear" x1="444.801" y1="130.029" x2="397.932" y2="72.12" gradientUnits="userSpaceOnUse"><stop stop-color="#C5D5EA" stop-opacity=".01"/><stop offset="1" stop-color="#93AAD0"/></linearGradient><linearGradient id="paint15_linear" x1="291.862" y1="164.916" x2="346.612" y2="137.005" gradientUnits="userSpaceOnUse"><stop stop-color="#E8EDF7" stop-opacity=".01"/><stop offset="1" stop-color="#CCD6EC"/></linearGradient><linearGradient id="paint16_linear" x1="242.777" y1="178.187" x2="316.174" y2="191.131" gradientUnits="userSpaceOnUse"><stop stop-color="#6BA3DE"/><stop offset="1" stop-color="#202873"/></linearGradient><linearGradient id="paint17_linear" x1="195.914" y1="191.592" x2="310.889" y2="211.726" gradientUnits="userSpaceOnUse"><stop stop-color="#6BA3DE"/><stop offset="1" stop-color="#202873"/></linearGradient><linearGradient id="paint18_linear" x1="242.777" y1="138.263" x2="309.993" y2="162.114" gradientUnits="userSpaceOnUse"><stop stop-color="#6BA3DE"/><stop offset="1" stop-color="#202873"/></linearGradient><linearGradient id="paint19_linear" x1="216.39" y1="132.653" x2="291.569" y2="165.628" gradientUnits="userSpaceOnUse"><stop stop-color="#6BA3DE"/><stop offset="1" stop-color="#202873"/></linearGradient><linearGradient id="paint20_linear" x1="30.946" y1="107.4" x2="56.242" y2="256.531" gradientUnits="userSpaceOnUse"><stop stop-color="#93A9D6"/><stop offset="1" stop-color="#E0E7F7"/></linearGradient><linearGradient id="paint21_linear" x1="350.752" y1="73.933" x2="331.329" y2="106.502" gradientUnits="userSpaceOnUse"><stop stop-color="#E8EDF7" stop-opacity=".01"/><stop offset="1" stop-color="#C2CCE1"/></linearGradient><linearGradient id="paint22_linear" x1="251.948" y1="16.288" x2="299.774" y2="91.457" gradientUnits="userSpaceOnUse"><stop stop-color="#93A9D6"/><stop offset="1" stop-color="#E0E7F7"/></linearGradient><linearGradient id="paint23_linear" x1="299.103" y1="51.6" x2="315.515" y2="104.336" gradientUnits="userSpaceOnUse"><stop stop-color="#93A9D6"/><stop offset="1" stop-color="#E0E7F7"/></linearGradient><linearGradient id="paint24_linear" x1="444.801" y1="130.029" x2="397.932" y2="72.12" gradientUnits="userSpaceOnUse"><stop stop-color="#C5D5EA" stop-opacity=".01"/><stop offset="1" stop-color="#93AAD0"/></linearGradient><linearGradient id="paint25_linear" x1="291.862" y1="164.916" x2="346.612" y2="137.005" gradientUnits="userSpaceOnUse"><stop stop-color="#E8EDF7" stop-opacity=".01"/><stop offset="1" stop-color="#CCD6EC"/></linearGradient><linearGradient id="paint26_linear" x1="242.777" y1="178.187" x2="316.174" y2="191.131" gradientUnits="userSpaceOnUse"><stop stop-color="#6BA3DE"/><stop offset="1" stop-color="#202873"/></linearGradient><linearGradient id="paint27_linear" x1="195.914" y1="191.592" x2="310.889" y2="211.726" gradientUnits="userSpaceOnUse"><stop stop-color="#6BA3DE"/><stop offset="1" stop-color="#202873"/></linearGradient><linearGradient id="paint28_linear" x1="242.777" y1="138.263" x2="309.993" y2="162.114" gradientUnits="userSpaceOnUse"><stop stop-color="#6BA3DE"/><stop offset="1" stop-color="#202873"/></linearGradient><linearGradient id="paint29_linear" x1="216.39" y1="132.653" x2="291.569" y2="165.628" gradientUnits="userSpaceOnUse"><stop stop-color="#6BA3DE"/><stop offset="1" stop-color="#202873"/></linearGradient><clipPath id="clip0"><rect width="370" height="180" rx="10" fill="#fff"/></clipPath></defs></svg>