<svg width="370" height="180" xmlns="http://www.w3.org/2000/svg" xmlns:xlink="http://www.w3.org/1999/xlink"><defs><linearGradient id="c" x1="100%" y1="-31.414%" x2="-9.579%" y2="160.3%"><stop stop-color="#6BA3DE" offset="0%"/><stop stop-color="#202873" offset="100%"/></linearGradient><linearGradient id="d" x1="0%" y1="12.255%" x2="50%" y2="100%"><stop stop-color="#F1F4FB" offset="0%"/><stop stop-color="#DFE6F6" offset="100%"/></linearGradient><linearGradient id="e" x1="103.773%" y1="50%" x2="4.901%" y2="57.827%"><stop stop-color="#F1F4FB" offset="0%"/><stop stop-color="#DFE6F6" offset="100%"/></linearGradient><linearGradient id="f" x1="50%" y1="0%" x2="50%" y2="100%"><stop stop-color="#F1F4FB" offset="0%"/><stop stop-color="#CED6EA" offset="100%"/></linearGradient><rect id="a" x="0" y="0" width="370" height="180" rx="10"/></defs><g fill="none" fill-rule="evenodd"><mask id="b" fill="#fff"><use xlink:href="#a"/></mask><use fill="#FFF" xlink:href="#a"/><g mask="url(#b)"><path fill="url(#c)" d="M83.64 131.355l-35.814 9.205-2.803 7.68 34.122 3.848 4.495-20.733M94.389 135.307l21.43 30.277-2.79 7.68-28.53-19.209 9.89-18.748" transform="rotate(27 174.142 431.758)"/><path d="M28.035 91.349a3.237 3.237 0 01-4.152 1.931c-1.665-.615-2.525-2.478-1.917-4.162l6.055-16.596a3.22 3.22 0 014.138-1.936 3.24 3.24 0 011.917 4.165l-6.041 16.598M54.053 94.317a3.235 3.235 0 01-4.152 1.931c-1.665-.616-2.525-2.479-1.917-4.162l6.056-16.598a3.217 3.217 0 014.138-1.934 3.24 3.24 0 011.917 4.166l-6.042 16.597M80.07 97.283a3.22 3.22 0 01-4.137 1.933 3.246 3.246 0 01-1.93-4.166l6.041-16.597a3.235 3.235 0 014.152-1.933 3.259 3.259 0 011.93 4.168L80.07 97.283M162.554 140.852a3.253 3.253 0 001.93 4.162c1.666.616 3.517-.25 4.138-1.932l6.042-16.598a3.236 3.236 0 00-1.917-4.163 3.216 3.216 0 00-4.138 1.933l-6.055 16.598M140.78 126.233a3.253 3.253 0 001.93 4.162 3.22 3.22 0 004.138-1.93l6.042-16.598a3.238 3.238 0 00-1.917-4.165 3.216 3.216 0 00-4.138 1.933l-6.055 16.598M119.005 111.612a3.256 3.256 0 001.93 4.165 3.214 3.214 0 004.139-1.93l6.055-16.597c.608-1.685-.251-3.552-1.93-4.169a3.222 3.222 0 00-4.138 1.936l-6.056 16.595" fill="url(#d)" transform="rotate(27 174.142 431.758)"/><path d="M53.735 47.372l-3.622 9.947a6.351 6.351 0 00.727 5.808l2.406 3.526 7.272-1.996 4.746-13.04-11.529-4.245M79.278 44.794l-3.636 9.95a6.422 6.422 0 00.727 5.804l2.406 3.525 7.272-1.996 4.759-13.04-11.528-4.243" fill="url(#c)" transform="rotate(27 174.142 431.758)"/><path d="M107.847 55.792L94.336 92.857l-15.706-5.78L.337 79.454C4.938 71.34 6.67 66.003 13.373 65.327l94.474-9.535" fill="url(#e)" transform="rotate(27 174.142 431.758)"/><path d="M171.2 90.598l-3.622 9.947a6.39 6.39 0 01-4.297 3.962l-4.098 1.127-4.27-6.24 4.746-13.04 11.541 4.244M153.353 72.055l-3.623 9.95a6.369 6.369 0 01-4.283 3.96l-4.112 1.126-4.27-6.24 4.76-13.04 11.528 4.244" fill="url(#c)" transform="rotate(27 174.142 431.758)"/><path d="M124.466 61.91l-13.499 37.066 15.706 5.778 64.676 44.99c1.692-9.186 3.807-14.381-.873-19.246l-66.01-68.588" fill="url(#d)" transform="rotate(27 174.142 431.758)"/><path d="M137.54.156c9.493 8.345 5.21 25.076-7.337 55.304-11.171 26.138-19.42 46.222-25.833 61.325-11.726 27.602-17.372 38.571-23.704 39.46-4.27-4.79-1.52-16.823 7.258-45.507 4.812-15.697 11.422-36.382 19.685-63.593C117.472 15.931 124.955.378 137.541.155z" fill="url(#f)" transform="rotate(27 174.142 431.758)"/><path d="M80.309 165.704a2.903 2.903 0 01-3.728 1.737c-1.508-.552-2.274-2.232-1.732-3.746l8.844-24.257a2.904 2.904 0 013.729-1.739 2.923 2.923 0 011.731 3.747l-8.844 24.258" fill="url(#c)" transform="rotate(27 174.142 431.758)"/></g></g></svg>