<?xml version="1.0" encoding="UTF-8" standalone="no"?>
<svg
   xmlns:dc="http://purl.org/dc/elements/1.1/"
   xmlns:cc="http://creativecommons.org/ns#"
   xmlns:rdf="http://www.w3.org/1999/02/22-rdf-syntax-ns#"
   xmlns:svg="http://www.w3.org/2000/svg"
   xmlns="http://www.w3.org/2000/svg"
   xmlns:xlink="http://www.w3.org/1999/xlink"
   xmlns:sodipodi="http://sodipodi.sourceforge.net/DTD/sodipodi-0.dtd"
   xmlns:inkscape="http://www.inkscape.org/namespaces/inkscape"
   width="370"
   height="180"
   version="1.1"
   id="svg144"
   sodipodi:docname="postal-service-1.svg"
   inkscape:version="1.0.1 (3bc2e813f5, 2020-09-07)">
  <metadata
     id="metadata148">
    <rdf:RDF>
      <cc:Work
         rdf:about="">
        <dc:format>image/svg+xml</dc:format>
        <dc:type
           rdf:resource="http://purl.org/dc/dcmitype/StillImage" />
        <dc:title></dc:title>
      </cc:Work>
    </rdf:RDF>
  </metadata>
  <sodipodi:namedview
     pagecolor="#ffffff"
     bordercolor="#666666"
     borderopacity="1"
     objecttolerance="10"
     gridtolerance="10"
     guidetolerance="10"
     inkscape:pageopacity="0"
     inkscape:pageshadow="2"
     inkscape:window-width="1368"
     inkscape:window-height="850"
     id="namedview146"
     showgrid="false"
     inkscape:zoom="1.1590818"
     inkscape:cx="139.05049"
     inkscape:cy="40.492581"
     inkscape:window-x="-6"
     inkscape:window-y="-6"
     inkscape:window-maximized="1"
     inkscape:current-layer="svg144" />
  <defs
     id="defs63">
    <linearGradient
       id="c"
       x1="171.302%"
       y1="169.409%"
       x2="-4.664%"
       y2="4.482%">
      <stop
         stop-color="#93A9D6"
         offset="0%"
         id="stop2" />
      <stop
         stop-color="#E0E7F7"
         offset="100%"
         id="stop4" />
    </linearGradient>
    <linearGradient
       id="d"
       x1="101.33477"
       y1="113.00811"
       x2="82.031374"
       y2="144.24878"
       gradientTransform="scale(1.0178879,0.98242646)"
       gradientUnits="userSpaceOnUse">
      <stop
         stop-color="#E8EDF7"
         stop-opacity="0"
         offset="0%"
         id="stop7" />
      <stop
         stop-color="#C2CCE1"
         offset="100%"
         id="stop9" />
    </linearGradient>
    <linearGradient
       id="e"
       x1="8.68%"
       y1="-72.654%"
       x2="58.734%"
       y2="120.934%">
      <stop
         stop-color="#93A9D6"
         offset="0%"
         id="stop12" />
      <stop
         stop-color="#E0E7F7"
         offset="100%"
         id="stop14" />
    </linearGradient>
    <linearGradient
       id="f"
       x1="42.907558"
       y1="84.009232"
       x2="31.780981"
       y2="92.950457"
       gradientTransform="scale(0.9998194,1.0001806)"
       gradientUnits="userSpaceOnUse">
      <stop
         stop-color="#6BA3DE"
         offset="0%"
         id="stop17" />
      <stop
         stop-color="#5677BF"
         offset="100%"
         id="stop19" />
    </linearGradient>
    <linearGradient
       id="g"
       x1="100%"
       y1="-31.414%"
       x2="-9.579%"
       y2="160.3%">
      <stop
         stop-color="#6BA3DE"
         offset="0%"
         id="stop22" />
      <stop
         stop-color="#202873"
         offset="100%"
         id="stop24" />
    </linearGradient>
    <linearGradient
       id="h"
       x1="17.146264"
       y1="37.038731"
       x2="29.947578"
       y2="55.536156"
       gradientTransform="scale(0.7731844,1.2933525)"
       gradientUnits="userSpaceOnUse">
      <stop
         stop-color="#6BA3DE"
         offset="0%"
         id="stop27" />
      <stop
         stop-color="#485CAC"
         offset="100%"
         id="stop29" />
    </linearGradient>
    <linearGradient
       id="i"
       x1="29.261529"
       y1="56.980908"
       x2="86.370412"
       y2="21.262205"
       gradientTransform="scale(0.41729148,2.3964065)"
       gradientUnits="userSpaceOnUse">
      <stop
         stop-color="#4551A2"
         offset="0%"
         id="stop32" />
      <stop
         stop-color="#95D0F6"
         offset="100%"
         id="stop34" />
    </linearGradient>
    <linearGradient
       id="j"
       x1="-22.437661"
       y1="65.108225"
       x2="135.65748"
       y2="-20.058857"
       gradientTransform="scale(0.3844927,2.6008296)"
       gradientUnits="userSpaceOnUse">
      <stop
         stop-color="#4551A2"
         offset="0%"
         id="stop37" />
      <stop
         stop-color="#95D0F6"
         offset="100%"
         id="stop39" />
    </linearGradient>
    <linearGradient
       id="k"
       x1="-19.402716"
       y1="73.425548"
       x2="172.65172"
       y2="-18.753935"
       gradientTransform="scale(0.42234526,2.3677311)"
       gradientUnits="userSpaceOnUse">
      <stop
         stop-color="#4551A2"
         offset="0%"
         id="stop42" />
      <stop
         stop-color="#95D0F6"
         offset="100%"
         id="stop44" />
    </linearGradient>
    <linearGradient
       id="l"
       x1="42.402252"
       y1="69.063455"
       x2="6.4630302"
       y2="122.72578"
       gradientTransform="scale(1.0390014,0.9624626)"
       gradientUnits="userSpaceOnUse">
      <stop
         stop-color="#6BA3DE"
         offset="0%"
         id="stop47" />
      <stop
         stop-color="#202873"
         offset="100%"
         id="stop49" />
    </linearGradient>
    <linearGradient
       id="m"
       x1="130.96404"
       y1="203.23015"
       x2="78.591727"
       y2="153.3641"
       gradientTransform="scale(1.1391204,0.87787035)"
       gradientUnits="userSpaceOnUse">
      <stop
         stop-color="#C5D5EA"
         stop-opacity="0"
         offset="0%"
         id="stop52" />
      <stop
         stop-color="#93AAD0"
         offset="100%"
         id="stop54" />
    </linearGradient>
    <linearGradient
       id="n"
       x1="17.243913"
       y1="166.77572"
       x2="69.610559"
       y2="141.1817"
       gradientTransform="scale(1.0213106,0.97913409)"
       gradientUnits="userSpaceOnUse">
      <stop
         stop-color="#E8EDF7"
         stop-opacity="0"
         offset="0%"
         id="stop57" />
      <stop
         stop-color="#CCD6EC"
         offset="100%"
         id="stop59" />
    </linearGradient>
    <rect
       id="a"
       x="0"
       y="0"
       width="370"
       height="180"
       rx="7" />
    <linearGradient
       inkscape:collect="always"
       xlink:href="#c"
       id="linearGradient973"
       x1="347.70536"
       y1="415.31474"
       x2="-9.466894"
       y2="80.549219"
       gradientTransform="scale(1.0001084,0.9998916)"
       gradientUnits="userSpaceOnUse" />
    <linearGradient
       inkscape:collect="always"
       xlink:href="#c"
       id="linearGradient975"
       x1="30.423233"
       y1="115.0706"
       x2="-0.82832638"
       y2="85.779569"
       gradientTransform="scale(1.0001126,0.9998874)"
       gradientUnits="userSpaceOnUse" />
    <linearGradient
       inkscape:collect="always"
       xlink:href="#e"
       id="linearGradient977"
       x1="39.921303"
       y1="19.12138"
       x2="59.631111"
       y2="95.350696"
       gradientTransform="scale(0.9064916,1.1031542)"
       gradientUnits="userSpaceOnUse" />
    <linearGradient
       inkscape:collect="always"
       xlink:href="#e"
       id="linearGradient979"
       x1="56.065965"
       y1="37.635564"
       x2="75.775773"
       y2="113.86488"
       gradientTransform="scale(0.9064916,1.1031542)"
       gradientUnits="userSpaceOnUse" />
    <linearGradient
       inkscape:collect="always"
       xlink:href="#g"
       id="linearGradient981"
       x1="47.089616"
       y1="-14.793113"
       x2="-4.5120455"
       y2="75.486603"
       gradientTransform="scale(0.51461452,1.9432021)"
       gradientUnits="userSpaceOnUse" />
    <linearGradient
       inkscape:collect="always"
       xlink:href="#g"
       id="linearGradient983"
       x1="72.210455"
       y1="-9.2943414"
       x2="26.995684"
       y2="69.811188"
       gradientTransform="scale(0.6312882,1.5840626)"
       gradientUnits="userSpaceOnUse" />
    <linearGradient
       inkscape:collect="always"
       xlink:href="#g"
       id="linearGradient985"
       x1="106.78064"
       y1="85.025226"
       x2="92.15453"
       y2="110.61434"
       gradientTransform="scale(0.88790772,1.1262432)"
       gradientUnits="userSpaceOnUse" />
    <mask
       id="b"
       fill="#fff">
      <use
         xlink:href="#a"
         id="use65" />
    </mask>
  </defs>
  <use
     fill="#ffffff"
     xlink:href="#a"
     id="use68"
     style="fill-rule:evenodd;fill:none"
     x="0"
     y="0"
     width="100%"
     height="100%" />
  <g
     mask="url(#b)"
     id="g140"
     style="fill:none;fill-rule:evenodd">
    <g
       transform="translate(192.7,5.9)"
       id="g138">
      <ellipse
         fill="url(#c)"
         cx="101.5"
         cy="172.922"
         rx="101.5"
         ry="101.478"
         id="ellipse70"
         style="fill:url(#linearGradient973)" />
      <ellipse
         fill="url(#c)"
         cx="8.8809996"
         cy="93.852997"
         rx="8.8809996"
         ry="8.8789997"
         id="ellipse72"
         style="fill:url(#linearGradient975)" />
      <path
         fill="#a9bcdc"
         d="m 101.412,106.09 45.02,18.59 11.654,-11.94 -44.835,-18.358 z"
         id="path74" />
      <path
         fill="url(#d)"
         d="m 73.412,106.017 45.008,18.583 -0.038,24.857 -44.969,-6.826 z"
         transform="translate(28)"
         id="path76"
         style="fill:url(#d)" />
      <path
         fill="#e0e7f7"
         d="m 54.142,122.413 47.492,-16.396 H 87.971 l -47.86,16.79 z"
         id="path78" />
      <path
         fill="#a9bcdc"
         d="m 54.078,122.364 48.11,-16.649 v 47.13 l -48.11,16.78 z"
         id="path80" />
      <path
         fill="#d4ddef"
         d="m 101.412,106.017 45.007,18.584 v 46.575 l -45.007,-18.617 z"
         id="path82" />
      <path
         d="m 33.09,52.654 h 33.367 c 1.552,8.316 2.328,15.915 2.328,22.796 0,6.88 -0.517,13.762 -1.552,20.643 H 33.866 c 1.035,-6.163 1.552,-13.044 1.552,-20.643 0,-7.599 -0.776,-15.198 -2.328,-22.796 z"
         fill="url(#e)"
         transform="rotate(-15,64.938,-31.967)"
         id="path84"
         style="fill:url(#linearGradient977)" />
      <path
         d="m 47.725,73.078 h 33.367 c 1.552,8.316 2.328,15.915 2.328,22.796 0,6.881 -0.517,13.762 -1.552,20.643 H 48.501 c 1.035,-6.163 1.552,-13.044 1.552,-20.643 0,-7.598 -0.776,-15.197 -2.328,-22.796 z"
         fill="url(#e)"
         transform="rotate(-4,79.573,-306.11)"
         id="path86"
         style="fill:url(#linearGradient979)" />
      <path
         fill="#172750"
         d="m 84.201,82.306 -10.916,-3.891 -8.224,9.8 11.035,3.751 z"
         id="path88" />
      <path
         fill="#29407a"
         d="M 84.142,82.376 73.234,78.473 67.498,68.41 78.525,72.173 Z"
         id="path90" />
      <path
         fill="#344b89"
         d="m 67.557,68.34 5.728,10.075 -8.224,9.8 L 59.451,78 Z"
         id="path92" />
      <path
         fill="#172750"
         d="m 40.687,74.96 -3.883,6.426 5.085,6.28 3.81,-6.516 z"
         id="path94" />
      <path
         fill="#344b89"
         d="m 40.724,75.006 -3.89,6.419 -7.086,2.469 3.817,-6.51 z"
         id="path96" />
      <path
         fill="#29407a"
         d="m 29.712,83.849 7.092,-2.463 5.085,6.28 -7.165,2.372 z"
         id="path98" />
      <path
         d="m 41.244,83.519 c -6.584,2.818 -9.255,5.35 -8.01,7.594 1.063,1.916 4.168,-0.355 5.884,-2.802 0.523,-0.746 1.232,-2.343 2.126,-4.792 z"
         fill="url(#f)"
         transform="translate(97.926)"
         id="path100"
         style="fill:url(#f)" />
      <path
         d="m 23.155,91.507 c -4.953,-2.541 -8.314,-4.539 -10.082,-5.991 -1.77,-1.453 -3.715,-3.45 -5.837,-5.992 7.782,-0.726 12.381,-0.363 13.796,1.09 1.415,1.452 2.123,5.083 2.123,10.893 z M 24.233,59.089 C 13.719,50.256 8.112,43.709 7.413,39.444 6.363,33.048 2.165,30.916 0.59,21.321 -0.46,14.925 -0.11,7.818 1.64,0 c 7.696,4.62 12.07,10.128 13.119,16.524 1.574,9.594 1.574,19.722 2.623,24.52 0.7,3.197 2.983,7.436 6.85,12.714 v 5.33 z"
         fill="url(#g)"
         transform="translate(97.926)"
         id="path102"
         style="fill:url(#linearGradient981)" />
      <path
         d="m 23.155,68.994 c -3.618,0 -6.15,-1.614 -7.598,-4.842 -1.447,-3.228 -1.447,-6.456 0,-9.683 2.533,3.048 4.16,5.469 4.884,7.262 0.724,1.793 1.628,4.214 2.714,7.263 z"
         fill="url(#h)"
         transform="translate(97.926)"
         id="path104"
         style="fill:url(#h)" />
      <path
         d="m 30.39,82.792 c -3.376,11.762 -5.065,24.592 -5.065,38.492"
         stroke="url(#i)"
         stroke-width="1.983"
         stroke-linecap="round"
         transform="translate(97.926)"
         id="path106"
         style="stroke:url(#i)" />
      <path
         d="m 23.818,47.206 c -3.171,-3.584 -4.58,-6.81 -4.228,-9.677 0.528,-4.3 4.228,-6.989 4.228,-10.214 0,-3.226 1.586,-10.753 4.757,-14.516 2.115,-2.509 5.462,-4.839 10.043,-6.989 2.114,5.018 2.466,11.29 1.057,18.816 -1.41,7.527 -6.695,15.054 -15.857,22.58 z M 36.37,71.172 C 33.61,68.675 31.884,63.681 31.194,56.189 30.586,49.592 33.457,42.165 39.806,33.908 a 1.487,1.487 0 0 1 2.665,0.85 c 0.088,2.297 0.47,3.91 1.145,4.842 1.553,2.14 2.588,4.816 1.553,8.027 -1.035,3.21 -1.553,6.421 -2.588,10.702 -0.69,2.854 -2.76,7.135 -6.211,12.843 z"
         fill="url(#g)"
         transform="translate(97.926)"
         id="path108"
         style="fill:url(#linearGradient983)" />
      <path
         d="m 39.073,6.536 c -8.49,13.53 -13.265,27.061 -14.327,40.592 -1.06,13.53 -1.591,39.702 -1.591,78.513"
         stroke="url(#j)"
         stroke-width="1.983"
         stroke-linecap="round"
         transform="translate(97.926)"
         id="path110"
         style="stroke:url(#j)" />
      <path
         d="m 42.114,31.824 c -2.871,7.532 -4.488,16.26 -4.85,26.185 -0.361,9.926 -4.37,35.78 -12.027,77.564"
         stroke="url(#k)"
         stroke-width="1.983"
         stroke-linecap="round"
         transform="translate(97.926)"
         id="path112"
         style="stroke:url(#k)" />
      <path
         d="m 30.636,79.087 c 1.431,-3.24 5.905,-6.12 13.42,-8.64 0,5.76 -1.61,9 -4.83,9.72 -1.272,0.284 -2.654,1.044 -4.147,2.28 a 2.862,2.862 0 0 1 -4.443,-3.36 z"
         fill="url(#l)"
         transform="translate(97.926)"
         id="path114"
         style="fill:url(#l)" />
      <g
         id="g122">
        <path
           fill="#172750"
           d="m 130.23,118.73 -23.988,1.006 -7.48,23.024 24.106,-1.37 z"
           id="path116" />
        <path
           fill="#29407a"
           d="m 130.172,118.91 -23.983,0.98 -18.82,-14.888 24.1,-1.34 z"
           id="path118" />
        <path
           fill="#344b89"
           d="m 87.416,105.013 18.826,14.723 -7.48,23.024 -18.698,-15.277 z"
           id="path120" />
      </g>
      <path
         fill="#a9bcdc"
         d="m 99.085,140.676 47.333,-16.042 v 47.44 l -47.333,16.189 z"
         id="path124" />
      <path
         fill="url(#m)"
         d="m 71.085,140.943 47.322,-16.309 v 26.775 l -25.594,9.694 z"
         transform="translate(28)"
         id="path126"
         style="fill:url(#m)" />
      <path
         fill="#e0e7f7"
         d="m 99.051,140.683 47.352,-16.049 7.768,14.467 -47.945,16.59 z"
         id="path128" />
      <path
         fill="#dfe6f6"
         d="m 54.078,122.307 45.007,18.73 v 47.205 l -45.007,-18.63 z"
         id="path130" />
      <path
         fill="url(#n)"
         d="m 26.175,122.307 44.919,18.348 -0.047,24.809 -44.969,-18.669 z"
         transform="translate(28)"
         id="path132"
         style="fill:url(#n)" />
      <path
         fill="#ffffff"
         d="m 54.098,122.41 45.005,18.346 -9.072,-13.56 -45.265,-18.851 z"
         id="path134" />
      <path
         d="m 92.575,100.959 c -2.826,-1.05 -5.987,-0.52 -8.164,3.119 -1.451,2.426 -1.814,6.238 -1.088,11.436 5.805,-4.158 9.252,-7.104 10.34,-8.837 1.633,-2.599 1.737,-4.669 -1.088,-5.718 z"
         fill="url(#g)"
         transform="translate(28)"
         id="path136"
         style="fill:url(#linearGradient985)" />
    </g>
  </g>
</svg>
