<?xml version="1.0" encoding="UTF-8" standalone="no"?>
<svg
   xmlns:dc="http://purl.org/dc/elements/1.1/"
   xmlns:cc="http://creativecommons.org/ns#"
   xmlns:rdf="http://www.w3.org/1999/02/22-rdf-syntax-ns#"
   xmlns:svg="http://www.w3.org/2000/svg"
   xmlns="http://www.w3.org/2000/svg"
   xmlns:xlink="http://www.w3.org/1999/xlink"
   xmlns:sodipodi="http://sodipodi.sourceforge.net/DTD/sodipodi-0.dtd"
   xmlns:inkscape="http://www.inkscape.org/namespaces/inkscape"
   width="370"
   height="180"
   version="1.1"
   id="svg50"
   sodipodi:docname="postal-service-3.svg"
   inkscape:version="1.0.1 (3bc2e813f5, 2020-09-07)">
  <metadata
     id="metadata54">
    <rdf:RDF>
      <cc:Work
         rdf:about="">
        <dc:format>image/svg+xml</dc:format>
        <dc:type
           rdf:resource="http://purl.org/dc/dcmitype/StillImage" />
      </cc:Work>
    </rdf:RDF>
  </metadata>
  <sodipodi:namedview
     pagecolor="#ffffff"
     bordercolor="#666666"
     borderopacity="1"
     objecttolerance="10"
     gridtolerance="10"
     guidetolerance="10"
     inkscape:pageopacity="0"
     inkscape:pageshadow="2"
     inkscape:window-width="1368"
     inkscape:window-height="850"
     id="namedview52"
     showgrid="false"
     inkscape:zoom="1.6391892"
     inkscape:cx="179.45378"
     inkscape:cy="85.435267"
     inkscape:window-x="-6"
     inkscape:window-y="-6"
     inkscape:window-maximized="1"
     inkscape:current-layer="svg50" />
  <defs
     id="defs23">
    <linearGradient
       id="c"
       x1="100%"
       y1="-31.414%"
       x2="-9.579%"
       y2="160.3%">
      <stop
         stop-color="#6BA3DE"
         offset="0%"
         id="stop2" />
      <stop
         stop-color="#202873"
         offset="100%"
         id="stop4" />
    </linearGradient>
    <linearGradient
       id="d"
       x1="0%"
       y1="12.255%"
       x2="50%"
       y2="100%">
      <stop
         stop-color="#F1F4FB"
         offset="0%"
         id="stop7" />
      <stop
         stop-color="#DFE6F6"
         offset="100%"
         id="stop9" />
    </linearGradient>
    <linearGradient
       id="e"
       x1="65.705339"
       y1="126.58272"
       x2="3.2916657"
       y2="131.52357"
       gradientTransform="scale(1.7031089,0.5871615)"
       gradientUnits="userSpaceOnUse">
      <stop
         stop-color="#F1F4FB"
         offset="0%"
         id="stop12" />
      <stop
         stop-color="#DFE6F6"
         offset="100%"
         id="stop14" />
    </linearGradient>
    <linearGradient
       id="f"
       x1="172.85782"
       y1="0.099258283"
       x2="172.85782"
       y2="100.05555"
       gradientTransform="scale(0.64037602,1.5615825)"
       gradientUnits="userSpaceOnUse">
      <stop
         stop-color="#F1F4FB"
         offset="0%"
         id="stop17" />
      <stop
         stop-color="#CED6EA"
         offset="100%"
         id="stop19" />
    </linearGradient>
    <rect
       id="a"
       x="0"
       y="0"
       width="370"
       height="180"
       rx="10" />
    <linearGradient
       inkscape:collect="always"
       xlink:href="#c"
       id="linearGradient940"
       x1="89.110545"
       y1="153.61385"
       x2="29.422776"
       y2="258.04062"
       gradientTransform="scale(1.2997227,0.76939487)"
       gradientUnits="userSpaceOnUse" />
    <linearGradient
       inkscape:collect="always"
       xlink:href="#d"
       id="linearGradient942"
       x1="15.219849"
       y1="113.80314"
       x2="68.733934"
       y2="207.715"
       gradientTransform="scale(1.4304212,0.69909477)"
       gradientUnits="userSpaceOnUse" />
    <linearGradient
       inkscape:collect="always"
       xlink:href="#c"
       id="linearGradient944"
       x1="66.232926"
       y1="51.998588"
       x2="33.393297"
       y2="109.45318"
       gradientTransform="scale(1.3710099,0.72938931)"
       gradientUnits="userSpaceOnUse" />
    <linearGradient
       inkscape:collect="always"
       xlink:href="#c"
       id="linearGradient946"
       x1="180.21121"
       y1="53.132619"
       x2="140.83759"
       y2="122.01875"
       gradientTransform="scale(0.94999642,1.0526355)"
       gradientUnits="userSpaceOnUse" />
    <linearGradient
       inkscape:collect="always"
       xlink:href="#d"
       id="linearGradient948"
       x1="114.59749"
       y1="70.371714"
       x2="157.12319"
       y2="145.00005"
       gradientTransform="scale(0.9683196,1.0327169)"
       gradientUnits="userSpaceOnUse" />
    <linearGradient
       inkscape:collect="always"
       xlink:href="#c"
       id="linearGradient950"
       x1="128.01137"
       y1="89.370609"
       x2="104.99731"
       y2="129.63487"
       gradientTransform="scale(0.69783914,1.432995)"
       gradientUnits="userSpaceOnUse" />
    <mask
       id="b"
       fill="#fff">
      <use
         xlink:href="#a"
         id="use25" />
    </mask>
  </defs>
  <g
     mask="url(#b)"
     id="g46"
     style="fill:none;fill-rule:evenodd">
    <path
       fill="url(#c)"
       d="m 83.64,131.355 -35.814,9.205 -2.803,7.68 34.122,3.848 4.495,-20.733 m 10.749,3.952 21.43,30.277 -2.79,7.68 -28.53,-19.209 9.89,-18.748"
       transform="rotate(27,174.142,431.758)"
       id="path30"
       style="fill:url(#linearGradient940)" />
    <path
       d="m 28.035,91.349 a 3.237,3.237 0 0 1 -4.152,1.931 c -1.665,-0.615 -2.525,-2.478 -1.917,-4.162 l 6.055,-16.596 a 3.22,3.22 0 0 1 4.138,-1.936 3.24,3.24 0 0 1 1.917,4.165 l -6.041,16.598 m 26.018,2.968 a 3.235,3.235 0 0 1 -4.152,1.931 C 48.236,95.632 47.376,93.769 47.984,92.086 L 54.04,75.488 a 3.217,3.217 0 0 1 4.138,-1.934 3.24,3.24 0 0 1 1.917,4.166 l -6.042,16.597 m 26.017,2.966 a 3.22,3.22 0 0 1 -4.137,1.933 3.246,3.246 0 0 1 -1.93,-4.166 l 6.041,-16.597 a 3.235,3.235 0 0 1 4.152,-1.933 3.259,3.259 0 0 1 1.93,4.168 L 80.07,97.283 m 82.484,43.569 a 3.253,3.253 0 0 0 1.93,4.162 c 1.666,0.616 3.517,-0.25 4.138,-1.932 l 6.042,-16.598 a 3.236,3.236 0 0 0 -1.917,-4.163 3.216,3.216 0 0 0 -4.138,1.933 l -6.055,16.598 M 140.78,126.233 a 3.253,3.253 0 0 0 1.93,4.162 3.22,3.22 0 0 0 4.138,-1.93 l 6.042,-16.598 a 3.238,3.238 0 0 0 -1.917,-4.165 3.216,3.216 0 0 0 -4.138,1.933 l -6.055,16.598 m -21.775,-14.621 a 3.256,3.256 0 0 0 1.93,4.165 3.214,3.214 0 0 0 4.139,-1.93 l 6.055,-16.597 c 0.608,-1.685 -0.251,-3.552 -1.93,-4.169 a 3.222,3.222 0 0 0 -4.138,1.936 l -6.056,16.595"
       fill="url(#d)"
       transform="rotate(27,174.142,431.758)"
       id="path32"
       style="fill:url(#linearGradient942)" />
    <path
       d="m 53.735,47.372 -3.622,9.947 a 6.351,6.351 0 0 0 0.727,5.808 l 2.406,3.526 7.272,-1.996 4.746,-13.04 -11.529,-4.245 m 25.543,-2.578 -3.636,9.95 a 6.422,6.422 0 0 0 0.727,5.804 l 2.406,3.525 7.272,-1.996 4.759,-13.04 -11.528,-4.243"
       fill="url(#c)"
       transform="rotate(27,174.142,431.758)"
       id="path34"
       style="fill:url(#linearGradient944)" />
    <path
       d="M 107.847,55.792 94.336,92.857 78.63,87.077 0.337,79.454 C 4.938,71.34 6.67,66.003 13.373,65.327 l 94.474,-9.535"
       fill="url(#e)"
       transform="rotate(27,174.142,431.758)"
       id="path36"
       style="fill:url(#e)" />
    <path
       d="m 171.2,90.598 -3.622,9.947 a 6.39,6.39 0 0 1 -4.297,3.962 l -4.098,1.127 -4.27,-6.24 4.746,-13.04 11.541,4.244 m -17.847,-18.543 -3.623,9.95 a 6.369,6.369 0 0 1 -4.283,3.96 l -4.112,1.126 -4.27,-6.24 4.76,-13.04 11.528,4.244"
       fill="url(#c)"
       transform="rotate(27,174.142,431.758)"
       id="path38"
       style="fill:url(#linearGradient946)" />
    <path
       d="m 124.466,61.91 -13.499,37.066 15.706,5.778 64.676,44.99 c 1.692,-9.186 3.807,-14.381 -0.873,-19.246 L 124.466,61.91"
       fill="url(#d)"
       transform="rotate(27,174.142,431.758)"
       id="path40"
       style="fill:url(#linearGradient948)" />
    <path
       d="m 137.54,0.156 c 9.493,8.345 5.21,25.076 -7.337,55.304 -11.171,26.138 -19.42,46.222 -25.833,61.325 -11.726,27.602 -17.372,38.571 -23.704,39.46 -4.27,-4.79 -1.52,-16.823 7.258,-45.507 4.812,-15.697 11.422,-36.382 19.685,-63.593 9.863,-31.214 17.346,-46.767 29.932,-46.99 z"
       fill="url(#f)"
       transform="rotate(27,174.142,431.758)"
       id="path42"
       style="fill:url(#f)" />
    <path
       d="m 80.309,165.704 a 2.903,2.903 0 0 1 -3.728,1.737 c -1.508,-0.552 -2.274,-2.232 -1.732,-3.746 l 8.844,-24.257 a 2.904,2.904 0 0 1 3.729,-1.739 2.923,2.923 0 0 1 1.731,3.747 l -8.844,24.258"
       fill="url(#c)"
       transform="rotate(27,174.142,431.758)"
       id="path44"
       style="fill:url(#linearGradient950)" />
  </g>
</svg>
