<?xml version="1.0" encoding="UTF-8" standalone="no"?>
<svg
   xmlns:dc="http://purl.org/dc/elements/1.1/"
   xmlns:cc="http://creativecommons.org/ns#"
   xmlns:rdf="http://www.w3.org/1999/02/22-rdf-syntax-ns#"
   xmlns:svg="http://www.w3.org/2000/svg"
   xmlns="http://www.w3.org/2000/svg"
   xmlns:sodipodi="http://sodipodi.sourceforge.net/DTD/sodipodi-0.dtd"
   xmlns:inkscape="http://www.inkscape.org/namespaces/inkscape"
   width="370"
   height="180"
   fill="none"
   version="1.1"
   id="svg384"
   sodipodi:docname="postal-service-2.svg"
   inkscape:version="1.0.1 (3bc2e813f5, 2020-09-07)">
  <metadata
     id="metadata388">
    <rdf:RDF>
      <cc:Work
         rdf:about="">
        <dc:format>image/svg+xml</dc:format>
        <dc:type
           rdf:resource="http://purl.org/dc/dcmitype/StillImage" />
        <dc:title />
      </cc:Work>
    </rdf:RDF>
  </metadata>
  <sodipodi:namedview
     pagecolor="#ffffff"
     bordercolor="#666666"
     borderopacity="1"
     objecttolerance="10"
     gridtolerance="10"
     guidetolerance="10"
     inkscape:pageopacity="0"
     inkscape:pageshadow="2"
     inkscape:window-width="1368"
     inkscape:window-height="850"
     id="namedview386"
     showgrid="false"
     inkscape:zoom="1.1590818"
     inkscape:cx="197.03084"
     inkscape:cy="78.177906"
     inkscape:window-x="-6"
     inkscape:window-y="-6"
     inkscape:window-maximized="1"
     inkscape:current-layer="svg384"
     inkscape:document-rotation="0" />
  <rect
     y="-1"
     width="370"
     height="180"
     rx="7"
     fill="#ffffff"
     id="rect4"
     x="0"
     style="fill-rule:evenodd;fill:none" />
  <rect
     y="-1"
     width="370"
     height="180"
     rx="10"
     fill="#ffffff"
     class="liki"
     id="rect9"
     x="0"
     style="fill-rule:evenodd;fill:none" />
  <path
     d="M 207.5,144.5 367,80 l 3.155,89.253 c 0.2,5.658 -4.333,10.353 -9.994,10.353 H 170 Z"
     fill="url(#paint0_linear)"
     id="path11"
     style="fill:url(#paint0_linear);fill-rule:evenodd" />
  <path
     clip-rule="evenodd"
     d="M 336.349,78.67 383.218,98.024 395.35,85.593 348.673,66.481 Z"
     fill="#a9bcdc"
     id="path13"
     style="fill-rule:evenodd" />
  <path
     clip-rule="evenodd"
     d="m 336.349,78.594 46.855,19.346 -0.039,25.878 -46.816,-7.106 z"
     fill="url(#paint1_linear)"
     id="path15"
     style="fill:url(#paint1_linear);fill-rule:evenodd" />
  <path
     clip-rule="evenodd"
     d="m 287.136,95.664 49.443,-17.07 h -14.225 l -49.826,17.48 z"
     fill="#e0e7f7"
     id="path17"
     style="fill-rule:evenodd" />
  <path
     clip-rule="evenodd"
     d="M 287.07,95.613 337.157,78.28 v 49.067 l -50.087,17.469 z"
     fill="#a9bcdc"
     id="path19"
     style="fill-rule:evenodd" />
  <path
     clip-rule="evenodd"
     d="m 336.349,78.594 46.855,19.348 v 48.488 l -46.855,-19.382 z"
     fill="#d4ddef"
     id="path21"
     style="fill-rule:evenodd" />
  <path
     clip-rule="evenodd"
     d="m 289.151,28.618 33.554,-8.99 c 0,0 5.702,11.916 8.483,22.296 2.782,10.38 4.002,21.177 4.002,21.177 l -33.554,8.99 c 0,0 -0.93,-9.714 -4.002,-21.176 -3.071,-11.462 -8.483,-22.297 -8.483,-22.297 z"
     fill="url(#paint2_linear)"
     id="path23"
     style="fill:url(#paint2_linear);fill-rule:evenodd" />
  <path
     clip-rule="evenodd"
     d="m 308.074,45.653 34.654,-2.423 c 0,0 3.323,12.787 4.073,23.506 0.749,10.72 -0.113,21.552 -0.113,21.552 l -34.653,2.423 c 0,0 0.94,-9.715 0.113,-21.552 -0.828,-11.837 -4.074,-23.506 -4.074,-23.506 z"
     fill="url(#paint3_linear)"
     id="path25"
     style="fill:url(#paint3_linear);fill-rule:evenodd" />
  <path
     clip-rule="evenodd"
     d="m 318.431,53.91 -11.365,-4.052 -8.562,10.203 11.488,3.905 8.439,-10.057 z"
     fill="#172750"
     id="path27"
     style="fill-rule:evenodd" />
  <path
     clip-rule="evenodd"
     d="m 318.369,53.982 -11.357,-4.063 -5.971,-10.477 11.48,3.917 z"
     fill="#29407a"
     id="path29"
     style="fill-rule:evenodd" />
  <path
     clip-rule="evenodd"
     d="m 301.103,39.37 5.963,10.488 -8.562,10.203 -5.84,-10.635 8.439,-10.057 z"
     fill="#344b89"
     id="path31"
     style="fill-rule:evenodd" />
  <path
     clip-rule="evenodd"
     d="m 273.129,46.262 -4.043,6.689 5.294,6.538 3.967,-6.783 z"
     fill="#172750"
     id="path33"
     style="fill-rule:evenodd" />
  <path
     clip-rule="evenodd"
     d="m 273.167,46.309 -4.05,6.683 -7.377,2.57 3.974,-6.776 z"
     fill="#344b89"
     id="path35"
     style="fill-rule:evenodd" />
  <path
     clip-rule="evenodd"
     d="m 261.702,55.515 7.384,-2.564 5.294,6.538 -7.46,2.47 z"
     fill="#29407a"
     id="path37"
     style="fill-rule:evenodd" />
  <path
     clip-rule="evenodd"
     d="m 366.351,91.829 -24.974,1.048 -7.788,23.97 25.096,-1.426 z"
     fill="#172750"
     id="path39"
     style="fill-rule:evenodd" />
  <path
     clip-rule="evenodd"
     d="m 366.29,92.017 -24.968,1.02 -19.594,-15.499 25.091,-1.396 z"
     fill="#29407a"
     id="path41"
     style="fill-rule:evenodd" />
  <path
     clip-rule="evenodd"
     d="m 321.777,77.549 19.6,15.328 -7.788,23.97 -19.466,-15.905 z"
     fill="#344b89"
     id="path43"
     style="fill-rule:evenodd" />
  <path
     clip-rule="evenodd"
     d="m 333.925,114.677 49.278,-16.7 v 49.388 l -49.278,16.854 z"
     fill="#a9bcdc"
     id="path45"
     style="fill-rule:evenodd" />
  <path
     clip-rule="evenodd"
     d="m 333.925,114.955 49.266,-16.979 v 27.875 l -26.645,10.092 z"
     fill="url(#paint4_linear)"
     id="path47"
     style="fill:url(#paint4_linear);fill-rule:evenodd" />
  <path
     clip-rule="evenodd"
     d="m 333.89,114.684 49.298,-16.708 8.087,15.061 -49.914,17.272 z"
     fill="#e0e7f7"
     id="path49"
     style="fill-rule:evenodd" />
  <path
     clip-rule="evenodd"
     d="m 287.07,95.553 46.855,19.499 v 49.145 L 287.07,144.802 V 95.554 Z"
     fill="#dfe6f6"
     id="path51"
     style="fill-rule:evenodd" />
  <path
     clip-rule="evenodd"
     d="m 287.17,95.553 46.765,19.102 -0.049,25.828 -46.816,-19.435 z"
     fill="url(#paint5_linear)"
     id="path53"
     style="fill:url(#paint5_linear);fill-rule:evenodd" />
  <path
     clip-rule="evenodd"
     d="M 287.09,95.66 333.944,114.761 324.5,100.643 277.375,81.017 Z"
     fill="#ffffff"
     id="path55"
     style="fill-rule:evenodd" />
  <path
     d="m 314.549,121.641 c 0.058,-2.979 -1.882,-5.973 -5.819,-8.246 -7.728,-4.462 -20.215,-4.462 -27.893,0 -3.826,2.224 -5.735,5.137 -5.731,8.051 v -0.028 34.498 c -0.009,2.943 1.828,5.89 5.716,8.136 7.727,4.462 20.215,4.462 27.892,0 3.814,-2.217 5.83,-5.118 5.838,-8.023 v -34.498 c 0,0.037 -0.002,0.073 -0.003,0.11 z"
     fill="#a66206"
     id="path57"
     style="fill-rule:evenodd" />
  <path
     d="m 314.552,121.531 v 34.498 c -0.008,2.905 -2.023,5.806 -5.837,8.023 -7.678,4.462 -20.166,4.462 -27.893,0 -3.888,-2.245 -5.724,-5.193 -5.716,-8.136 v -34.498 c -0.008,2.943 1.934,5.891 5.822,8.136 7.727,4.462 20.215,4.463 27.893,0 3.814,-2.217 5.723,-5.118 5.731,-8.023 z"
     fill="url(#paint6_linear)"
     id="path59"
     style="fill:url(#paint6_linear);fill-rule:evenodd" />
  <path
     d="m 313.45,122.395 -0.1,32.571 c -0.008,2.743 -1.81,5.481 -5.411,7.574 -7.248,4.213 -19.038,4.213 -26.334,0.001 -3.671,-2.12 -5.405,-4.903 -5.397,-7.682 v -32.57 c -0.008,2.779 1.826,5.561 5.497,7.681 7.295,4.213 19.086,4.213 26.334,0 3.601,-2.093 5.403,-4.832 5.411,-7.575 z"
     fill="url(#paint7_linear)"
     id="path61"
     style="fill:url(#paint7_linear);fill-rule:evenodd" />
  <path
     d="m 294.184,139.047 c -4.809,-0.099 -9.573,-1.211 -13.256,-3.338 -3.888,-2.246 -5.83,-5.193 -5.822,-8.136 L 275,151.199 c -0.008,2.943 1.934,5.89 5.822,8.136 3.71,2.142 8.517,3.255 13.362,3.341 z"
     fill="#ffffff"
     id="path63"
     style="fill-rule:evenodd" />
  <path
     d="m 289.253,147.891 a 28.52,28.52 0 0 1 -4.661,-1.201 v -4.572 a 22.13,22.13 0 0 1 -3.664,-1.669 c -0.28,-0.162 -0.548,-0.328 -0.809,-0.497 v 4.572 c -1.136,-0.739 -2.082,-1.541 -2.832,-2.386 v 5.119 c 0.756,0.828 1.702,1.613 2.832,2.335 v 3.846 c 0.227,0.145 0.462,0.288 0.703,0.427 1.16,0.67 2.428,1.239 3.77,1.708 v -3.846 c 1.478,0.515 3.046,0.909 4.661,1.182 z"
     fill="#5884c3"
     id="path65"
     style="fill-rule:evenodd" />
  <path
     d="m 308.73,113.395 c 7.727,4.462 7.768,11.697 0.091,16.159 -7.678,4.463 -20.166,4.462 -27.893,0 -7.727,-4.462 -7.768,-11.696 -0.091,-16.159 7.678,-4.462 20.165,-4.462 27.893,0 z"
     fill="url(#paint8_linear)"
     id="path67"
     style="fill:url(#paint8_linear);fill-rule:evenodd" />
  <path
     d="m 306.37,111.235 c 0.034,-1.754 -1.108,-3.515 -3.425,-4.853 -4.547,-2.626 -11.896,-2.626 -16.413,0 -2.252,1.309 -3.375,3.023 -3.373,4.738 v -0.016 l -0.031,7.142 c -0.005,1.732 1.138,3.466 3.426,4.787 4.547,2.626 11.896,2.626 16.414,0 2.244,-1.304 3.367,-3.011 3.372,-4.721 l 0.031,-7.142 z"
     fill="#a66206"
     id="path69"
     style="fill-rule:evenodd" />
  <path
     d="m 306.371,111.17 -0.031,7.142 c -0.005,1.71 -1.128,3.417 -3.373,4.722 -4.518,2.625 -11.866,2.625 -16.413,0 -2.288,-1.322 -3.431,-3.056 -3.426,-4.788 l 0.031,-7.142 c -0.005,1.731 1.138,3.466 3.426,4.787 4.547,2.626 11.896,2.626 16.413,0 2.245,-1.304 3.368,-3.011 3.373,-4.721 z"
     fill="url(#paint9_linear)"
     id="path71"
     style="fill:url(#paint9_linear);fill-rule:evenodd" />
  <path
     d="m 302.945,106.382 c 4.547,2.626 4.571,6.883 0.053,9.509 -4.517,2.626 -11.866,2.626 -16.413,0 -4.547,-2.626 -4.571,-6.883 -0.054,-9.509 4.518,-2.626 11.866,-2.626 16.414,0 z"
     fill="#d07400"
     id="path73"
     style="fill-rule:evenodd" />
  <path
     d="m 310.018,106.964 c 0.045,-2.304 -1.455,-4.618 -4.5,-6.376 -5.975,-3.45 -15.631,-3.45 -21.567,0 -2.959,1.72 -4.435,3.972 -4.432,6.226 v -0.022 l -0.041,6.124 c -0.006,2.276 1.495,4.555 4.502,6.291 5.975,3.451 15.631,3.451 21.568,0 2.949,-1.714 4.425,-3.957 4.432,-6.203 l 0.04,-6.125 z"
     fill="#d8d8da"
     id="path75"
     style="fill-rule:evenodd" />
  <path
     d="m 310.02,106.879 -0.04,6.124 c -0.007,2.247 -1.483,4.49 -4.432,6.204 -5.937,3.451 -15.593,3.45 -21.568,0 -3.007,-1.736 -4.508,-4.015 -4.502,-6.291 l 0.041,-6.124 c -0.007,2.275 1.495,4.554 4.502,6.291 5.975,3.45 15.631,3.45 21.568,0 2.949,-1.714 4.425,-3.958 4.431,-6.204 z"
     fill="#ebeff8"
     id="path77"
     style="fill-rule:evenodd" />
  <path
     d="m 305.518,100.588 c 5.975,3.45 6.007,9.044 0.071,12.495 -5.937,3.45 -15.593,3.45 -21.568,0 -5.975,-3.451 -6.007,-9.044 -0.07,-12.495 5.936,-3.45 15.592,-3.45 21.567,0 z"
     fill="#dee5f5"
     id="path79"
     style="fill-rule:evenodd" />
  <path
     d="m 284.078,119.261 c 0.317,0.18 0.644,0.35 0.98,0.511 v -6.145 a 15.908,15.908 0 0 1 -0.98,-0.513 z m 6.029,-4.023 a 23.941,23.941 0 0 1 -0.98,-0.203 v 6.133 c 0.323,0.074 0.651,0.141 0.98,0.202 z m 2.524,0.342 a 28.706,28.706 0 0 1 -0.979,-0.103 v 6.129 c 0.325,0.039 0.651,0.074 0.979,0.101 z m -5.049,-0.965 a 20.099,20.099 0 0 1 -0.979,-0.334 v 6.139 c 0.321,0.118 0.647,0.23 0.979,0.333 z m 19.217,3.769 c 0.357,-0.266 0.683,-0.542 0.979,-0.824 v -6.086 c -0.296,0.28 -0.623,0.552 -0.979,0.815 z m -9.119,-2.87 c -0.325,0.036 -0.652,0.063 -0.979,0.087 v 6.122 c 0.328,-0.024 0.654,-0.052 0.979,-0.088 z m -16.126,1.874 c 0.295,0.293 0.621,0.578 0.979,0.854 v -6.155 a 10.32,10.32 0 0 1 -0.979,-0.864 z m 23.7,-4.12 c -0.318,0.173 -0.644,0.338 -0.98,0.493 v 6.106 c 0.337,-0.156 0.663,-0.322 0.98,-0.497 z m -5.049,1.832 c -0.324,0.071 -0.65,0.137 -0.98,0.195 v 6.117 c 0.33,-0.058 0.656,-0.124 0.98,-0.196 z m 2.524,-0.714 c -0.321,0.114 -0.647,0.22 -0.979,0.318 v 6.113 c 0.332,-0.099 0.658,-0.207 0.979,-0.321 z m -7.573,7.404 v -6.124 c -0.327,0.004 -0.653,0.003 -0.98,-0.004 v 6.125 c 0.327,0.007 0.653,0.007 0.98,0.003 z"
     fill="#dee5f5"
     id="path81"
     style="fill-rule:evenodd" />
  <path
     d="M 207.5,144.5 367,80 l 3.155,89.253 c 0.2,5.658 -4.333,10.353 -9.994,10.353 H 170 Z"
     fill="url(#paint10_linear)"
     id="path83"
     style="fill:url(#paint10_linear);fill-rule:evenodd" />
  <path
     clip-rule="evenodd"
     d="M 336.349,78.67 383.218,98.024 395.35,85.593 348.673,66.481 Z"
     fill="#a9bcdc"
     id="path85"
     style="fill-rule:evenodd" />
  <path
     clip-rule="evenodd"
     d="m 336.349,78.594 46.855,19.346 -0.039,25.878 -46.816,-7.106 z"
     fill="url(#paint11_linear)"
     id="path87"
     style="fill:url(#paint11_linear);fill-rule:evenodd" />
  <path
     clip-rule="evenodd"
     d="m 287.136,95.664 49.443,-17.07 h -14.225 l -49.826,17.48 z"
     fill="#e0e7f7"
     id="path89"
     style="fill-rule:evenodd" />
  <path
     clip-rule="evenodd"
     d="M 287.07,95.613 337.157,78.28 v 49.067 l -50.087,17.469 z"
     fill="#a9bcdc"
     id="path91"
     style="fill-rule:evenodd" />
  <path
     clip-rule="evenodd"
     d="m 336.349,78.594 46.855,19.348 v 48.488 l -46.855,-19.382 z"
     fill="#d4ddef"
     id="path93"
     style="fill-rule:evenodd" />
  <path
     clip-rule="evenodd"
     d="m 289.151,28.618 33.554,-8.99 c 0,0 5.702,11.916 8.483,22.296 2.782,10.38 4.002,21.177 4.002,21.177 l -33.554,8.99 c 0,0 -0.93,-9.714 -4.002,-21.176 -3.071,-11.462 -8.483,-22.297 -8.483,-22.297 z"
     fill="url(#paint12_linear)"
     id="path95"
     style="fill:url(#paint12_linear);fill-rule:evenodd" />
  <path
     clip-rule="evenodd"
     d="m 308.074,45.653 34.654,-2.423 c 0,0 3.323,12.787 4.073,23.506 0.749,10.72 -0.113,21.552 -0.113,21.552 l -34.653,2.423 c 0,0 0.94,-9.715 0.113,-21.552 -0.828,-11.837 -4.074,-23.506 -4.074,-23.506 z"
     fill="url(#paint13_linear)"
     id="path97"
     style="fill:url(#paint13_linear);fill-rule:evenodd" />
  <path
     clip-rule="evenodd"
     d="m 318.431,53.91 -11.365,-4.052 -8.562,10.203 11.488,3.905 8.439,-10.057 z"
     fill="#172750"
     id="path99"
     style="fill-rule:evenodd" />
  <path
     clip-rule="evenodd"
     d="m 318.369,53.982 -11.357,-4.063 -5.971,-10.477 11.48,3.917 z"
     fill="#29407a"
     id="path101"
     style="fill-rule:evenodd" />
  <path
     clip-rule="evenodd"
     d="m 301.103,39.37 5.963,10.488 -8.562,10.203 -5.84,-10.635 8.439,-10.057 z"
     fill="#344b89"
     id="path103"
     style="fill-rule:evenodd" />
  <path
     clip-rule="evenodd"
     d="m 273.129,46.262 -4.043,6.689 5.294,6.538 3.967,-6.783 z"
     fill="#172750"
     id="path105"
     style="fill-rule:evenodd" />
  <path
     clip-rule="evenodd"
     d="m 273.167,46.309 -4.05,6.683 -7.377,2.57 3.974,-6.776 z"
     fill="#344b89"
     id="path107"
     style="fill-rule:evenodd" />
  <path
     clip-rule="evenodd"
     d="m 261.702,55.515 7.384,-2.564 5.294,6.538 -7.46,2.47 z"
     fill="#29407a"
     id="path109"
     style="fill-rule:evenodd" />
  <path
     clip-rule="evenodd"
     d="m 366.351,91.829 -24.974,1.048 -7.788,23.97 25.096,-1.426 z"
     fill="#172750"
     id="path111"
     style="fill-rule:evenodd" />
  <path
     clip-rule="evenodd"
     d="m 366.29,92.017 -24.968,1.02 -19.594,-15.499 25.091,-1.396 z"
     fill="#29407a"
     id="path113"
     style="fill-rule:evenodd" />
  <path
     clip-rule="evenodd"
     d="m 321.777,77.549 19.6,15.328 -7.788,23.97 -19.466,-15.905 z"
     fill="#344b89"
     id="path115"
     style="fill-rule:evenodd" />
  <path
     clip-rule="evenodd"
     d="m 333.925,114.677 49.278,-16.7 v 49.388 l -49.278,16.854 z"
     fill="#a9bcdc"
     id="path117"
     style="fill-rule:evenodd" />
  <path
     clip-rule="evenodd"
     d="m 333.925,114.955 49.266,-16.979 v 27.875 l -26.645,10.092 z"
     fill="url(#paint14_linear)"
     id="path119"
     style="fill:url(#paint14_linear);fill-rule:evenodd" />
  <path
     clip-rule="evenodd"
     d="m 333.89,114.684 49.298,-16.708 8.087,15.061 -49.914,17.272 z"
     fill="#e0e7f7"
     id="path121"
     style="fill-rule:evenodd" />
  <path
     clip-rule="evenodd"
     d="m 287.07,95.553 46.855,19.499 v 49.145 L 287.07,144.802 V 95.554 Z"
     fill="#dfe6f6"
     id="path123"
     style="fill-rule:evenodd" />
  <path
     clip-rule="evenodd"
     d="m 287.17,95.553 46.765,19.102 -0.049,25.828 -46.816,-19.435 z"
     fill="url(#paint15_linear)"
     id="path125"
     style="fill:url(#paint15_linear);fill-rule:evenodd" />
  <path
     clip-rule="evenodd"
     d="M 287.09,95.66 333.944,114.761 324.5,100.643 277.375,81.017 Z"
     fill="#ffffff"
     id="path127"
     style="fill-rule:evenodd" />
  <path
     d="m 314.549,121.641 c 0.058,-2.979 -1.882,-5.973 -5.819,-8.246 -7.728,-4.462 -20.215,-4.462 -27.893,0 -3.826,2.224 -5.735,5.137 -5.731,8.051 v -0.028 34.498 c -0.009,2.943 1.828,5.89 5.716,8.136 7.727,4.462 20.215,4.462 27.892,0 3.814,-2.217 5.83,-5.118 5.838,-8.023 v -34.498 c 0,0.037 -0.002,0.073 -0.003,0.11 z"
     fill="#a66206"
     id="path129"
     style="fill-rule:evenodd" />
  <path
     d="m 314.552,121.531 v 34.498 c -0.008,2.905 -2.023,5.806 -5.837,8.023 -7.678,4.462 -20.166,4.462 -27.893,0 -3.888,-2.245 -5.724,-5.193 -5.716,-8.136 v -34.498 c -0.008,2.943 1.934,5.891 5.822,8.136 7.727,4.462 20.215,4.463 27.893,0 3.814,-2.217 5.723,-5.118 5.731,-8.023 z"
     fill="url(#paint16_linear)"
     id="path131"
     style="fill:url(#paint16_linear);fill-rule:evenodd" />
  <path
     d="m 313.45,122.395 -0.1,32.571 c -0.008,2.743 -1.81,5.481 -5.411,7.574 -7.248,4.213 -19.038,4.213 -26.334,0.001 -3.671,-2.12 -5.405,-4.903 -5.397,-7.682 v -32.57 c -0.008,2.779 1.826,5.561 5.497,7.681 7.295,4.213 19.086,4.213 26.334,0 3.601,-2.093 5.403,-4.832 5.411,-7.575 z"
     fill="url(#paint17_linear)"
     id="path133"
     style="fill:url(#paint17_linear);fill-rule:evenodd" />
  <path
     d="m 294.184,139.047 c -4.809,-0.099 -9.573,-1.211 -13.256,-3.338 -3.888,-2.246 -5.83,-5.193 -5.822,-8.136 L 275,151.199 c -0.008,2.943 1.934,5.89 5.822,8.136 3.71,2.142 8.517,3.255 13.362,3.341 z"
     fill="#ffffff"
     id="path135"
     style="fill-rule:evenodd" />
  <path
     d="m 289.253,147.891 a 28.52,28.52 0 0 1 -4.661,-1.201 v -4.572 a 22.13,22.13 0 0 1 -3.664,-1.669 c -0.28,-0.162 -0.548,-0.328 -0.809,-0.497 v 4.572 c -1.136,-0.739 -2.082,-1.541 -2.832,-2.386 v 5.119 c 0.756,0.828 1.702,1.613 2.832,2.335 v 3.846 c 0.227,0.145 0.462,0.288 0.703,0.427 1.16,0.67 2.428,1.239 3.77,1.708 v -3.846 c 1.478,0.515 3.046,0.909 4.661,1.182 z"
     fill="#5884c3"
     id="path137"
     style="fill-rule:evenodd" />
  <path
     d="m 308.73,113.395 c 7.727,4.462 7.768,11.697 0.091,16.159 -7.678,4.463 -20.166,4.462 -27.893,0 -7.727,-4.462 -7.768,-11.696 -0.091,-16.159 7.678,-4.462 20.165,-4.462 27.893,0 z"
     fill="url(#paint18_linear)"
     id="path139"
     style="fill:url(#paint18_linear);fill-rule:evenodd" />
  <path
     d="m 306.37,111.235 c 0.034,-1.754 -1.108,-3.515 -3.425,-4.853 -4.547,-2.626 -11.896,-2.626 -16.413,0 -2.252,1.309 -3.375,3.023 -3.373,4.738 v -0.016 l -0.031,7.142 c -0.005,1.732 1.138,3.466 3.426,4.787 4.547,2.626 11.896,2.626 16.414,0 2.244,-1.304 3.367,-3.011 3.372,-4.721 l 0.031,-7.142 z"
     fill="#a66206"
     id="path141"
     style="fill-rule:evenodd" />
  <path
     d="m 306.371,111.17 -0.031,7.142 c -0.005,1.71 -1.128,3.417 -3.373,4.722 -4.518,2.625 -11.866,2.625 -16.413,0 -2.288,-1.322 -3.431,-3.056 -3.426,-4.788 l 0.031,-7.142 c -0.005,1.731 1.138,3.466 3.426,4.787 4.547,2.626 11.896,2.626 16.413,0 2.245,-1.304 3.368,-3.011 3.373,-4.721 z"
     fill="url(#paint19_linear)"
     id="path143"
     style="fill:url(#paint19_linear);fill-rule:evenodd" />
  <path
     d="m 302.945,106.382 c 4.547,2.626 4.571,6.883 0.053,9.509 -4.517,2.626 -11.866,2.626 -16.413,0 -4.547,-2.626 -4.571,-6.883 -0.054,-9.509 4.518,-2.626 11.866,-2.626 16.414,0 z"
     fill="#d07400"
     id="path145"
     style="fill-rule:evenodd" />
  <path
     d="m 310.018,106.964 c 0.045,-2.304 -1.455,-4.618 -4.5,-6.376 -5.975,-3.45 -15.631,-3.45 -21.567,0 -2.959,1.72 -4.435,3.972 -4.432,6.226 v -0.022 l -0.041,6.124 c -0.006,2.276 1.495,4.555 4.502,6.291 5.975,3.451 15.631,3.451 21.568,0 2.949,-1.714 4.425,-3.957 4.432,-6.203 l 0.04,-6.125 z"
     fill="#d8d8da"
     id="path147"
     style="fill-rule:evenodd" />
  <path
     d="m 310.02,106.879 -0.04,6.124 c -0.007,2.247 -1.483,4.49 -4.432,6.204 -5.937,3.451 -15.593,3.45 -21.568,0 -3.007,-1.736 -4.508,-4.015 -4.502,-6.291 l 0.041,-6.124 c -0.007,2.275 1.495,4.554 4.502,6.291 5.975,3.45 15.631,3.45 21.568,0 2.949,-1.714 4.425,-3.958 4.431,-6.204 z"
     fill="#ebeff8"
     id="path149"
     style="fill-rule:evenodd" />
  <path
     d="m 305.518,100.588 c 5.975,3.45 6.007,9.044 0.071,12.495 -5.937,3.45 -15.593,3.45 -21.568,0 -5.975,-3.451 -6.007,-9.044 -0.07,-12.495 5.936,-3.45 15.592,-3.45 21.567,0 z"
     fill="#dee5f5"
     id="path151"
     style="fill-rule:evenodd" />
  <path
     d="m 284.078,119.261 c 0.317,0.18 0.644,0.35 0.98,0.511 v -6.145 a 15.908,15.908 0 0 1 -0.98,-0.513 z m 6.029,-4.023 a 23.941,23.941 0 0 1 -0.98,-0.203 v 6.133 c 0.323,0.074 0.651,0.141 0.98,0.202 z m 2.524,0.342 a 28.706,28.706 0 0 1 -0.979,-0.103 v 6.129 c 0.325,0.039 0.651,0.074 0.979,0.101 z m -5.049,-0.965 a 20.099,20.099 0 0 1 -0.979,-0.334 v 6.139 c 0.321,0.118 0.647,0.23 0.979,0.333 z m 19.217,3.769 c 0.357,-0.266 0.683,-0.542 0.979,-0.824 v -6.086 c -0.296,0.28 -0.623,0.552 -0.979,0.815 z m -9.119,-2.87 c -0.325,0.036 -0.652,0.063 -0.979,0.087 v 6.122 c 0.328,-0.024 0.654,-0.052 0.979,-0.088 z m -16.126,1.874 c 0.295,0.293 0.621,0.578 0.979,0.854 v -6.155 a 10.32,10.32 0 0 1 -0.979,-0.864 z m 23.7,-4.12 c -0.318,0.173 -0.644,0.338 -0.98,0.493 v 6.106 c 0.337,-0.156 0.663,-0.322 0.98,-0.497 z m -5.049,1.832 c -0.324,0.071 -0.65,0.137 -0.98,0.195 v 6.117 c 0.33,-0.058 0.656,-0.124 0.98,-0.196 z m 2.524,-0.714 c -0.321,0.114 -0.647,0.22 -0.979,0.318 v 6.113 c 0.332,-0.099 0.658,-0.207 0.979,-0.321 z m -7.573,7.404 v -6.124 c -0.327,0.004 -0.653,0.003 -0.98,-0.004 v 6.125 c 0.327,0.007 0.653,0.007 0.98,0.003 z"
     fill="#dee5f5"
     id="path153"
     style="fill-rule:evenodd" />
  <path
     d="M 207.5,144.5 367,80 l 3.155,89.253 c 0.2,5.658 -4.333,10.353 -9.994,10.353 H 170 Z"
     fill="url(#paint20_linear)"
     id="path155"
     style="fill:url(#paint20_linear);fill-rule:evenodd" />
  <path
     clip-rule="evenodd"
     d="M 336.349,78.67 383.218,98.024 395.35,85.593 348.673,66.481 Z"
     fill="#a9bcdc"
     id="path157"
     style="fill-rule:evenodd" />
  <path
     clip-rule="evenodd"
     d="m 336.349,78.594 46.855,19.346 -0.039,25.878 -46.816,-7.106 z"
     fill="url(#paint21_linear)"
     id="path159"
     style="fill:url(#paint21_linear);fill-rule:evenodd" />
  <path
     clip-rule="evenodd"
     d="m 287.136,95.664 49.443,-17.07 h -14.225 l -49.826,17.48 z"
     fill="#e0e7f7"
     id="path161"
     style="fill-rule:evenodd" />
  <path
     clip-rule="evenodd"
     d="M 287.07,95.613 337.157,78.28 v 49.067 l -50.087,17.469 z"
     fill="#a9bcdc"
     id="path163"
     style="fill-rule:evenodd" />
  <path
     clip-rule="evenodd"
     d="m 336.349,78.594 46.855,19.348 v 48.488 l -46.855,-19.382 z"
     fill="#d4ddef"
     id="path165"
     style="fill-rule:evenodd" />
  <path
     clip-rule="evenodd"
     d="m 289.151,28.618 33.554,-8.99 c 0,0 5.702,11.916 8.483,22.296 2.782,10.38 4.002,21.177 4.002,21.177 l -33.554,8.99 c 0,0 -0.93,-9.714 -4.002,-21.176 -3.071,-11.462 -8.483,-22.297 -8.483,-22.297 z"
     fill="url(#paint22_linear)"
     id="path167"
     style="fill:url(#paint22_linear);fill-rule:evenodd" />
  <path
     clip-rule="evenodd"
     d="m 308.074,45.653 34.654,-2.423 c 0,0 3.323,12.787 4.073,23.506 0.749,10.72 -0.113,21.552 -0.113,21.552 l -34.653,2.423 c 0,0 0.94,-9.715 0.113,-21.552 -0.828,-11.837 -4.074,-23.506 -4.074,-23.506 z"
     fill="url(#paint23_linear)"
     id="path169"
     style="fill:url(#paint23_linear);fill-rule:evenodd" />
  <path
     clip-rule="evenodd"
     d="m 318.431,53.91 -11.365,-4.052 -8.562,10.203 11.488,3.905 8.439,-10.057 z"
     fill="#172750"
     id="path171"
     style="fill-rule:evenodd" />
  <path
     clip-rule="evenodd"
     d="m 318.369,53.982 -11.357,-4.063 -5.971,-10.477 11.48,3.917 z"
     fill="#29407a"
     id="path173"
     style="fill-rule:evenodd" />
  <path
     clip-rule="evenodd"
     d="m 301.103,39.37 5.963,10.488 -8.562,10.203 -5.84,-10.635 8.439,-10.057 z"
     fill="#344b89"
     id="path175"
     style="fill-rule:evenodd" />
  <path
     clip-rule="evenodd"
     d="m 273.129,46.262 -4.043,6.689 5.294,6.538 3.967,-6.783 z"
     fill="#172750"
     id="path177"
     style="fill-rule:evenodd" />
  <path
     clip-rule="evenodd"
     d="m 273.167,46.309 -4.05,6.683 -7.377,2.57 3.974,-6.776 z"
     fill="#344b89"
     id="path179"
     style="fill-rule:evenodd" />
  <path
     clip-rule="evenodd"
     d="m 261.702,55.515 7.384,-2.564 5.294,6.538 -7.46,2.47 z"
     fill="#29407a"
     id="path181"
     style="fill-rule:evenodd" />
  <path
     clip-rule="evenodd"
     d="m 366.351,91.829 -24.974,1.048 -7.788,23.97 25.096,-1.426 z"
     fill="#172750"
     id="path183"
     style="fill-rule:evenodd" />
  <path
     clip-rule="evenodd"
     d="m 366.29,92.017 -24.968,1.02 -19.594,-15.499 25.091,-1.396 z"
     fill="#29407a"
     id="path185"
     style="fill-rule:evenodd" />
  <path
     clip-rule="evenodd"
     d="m 321.777,77.549 19.6,15.328 -7.788,23.97 -19.466,-15.905 z"
     fill="#344b89"
     id="path187"
     style="fill-rule:evenodd" />
  <path
     clip-rule="evenodd"
     d="m 333.925,114.677 49.278,-16.7 v 49.388 l -49.278,16.854 z"
     fill="#a9bcdc"
     id="path189"
     style="fill-rule:evenodd" />
  <path
     clip-rule="evenodd"
     d="m 333.925,114.955 49.266,-16.979 v 27.875 l -26.645,10.092 z"
     fill="url(#paint24_linear)"
     id="path191"
     style="fill:url(#paint24_linear);fill-rule:evenodd" />
  <path
     clip-rule="evenodd"
     d="m 333.89,114.684 49.298,-16.708 8.087,15.061 -49.914,17.272 z"
     fill="#e0e7f7"
     id="path193"
     style="fill-rule:evenodd" />
  <path
     clip-rule="evenodd"
     d="m 287.07,95.553 46.855,19.499 v 49.145 L 287.07,144.802 V 95.554 Z"
     fill="#dfe6f6"
     id="path195"
     style="fill-rule:evenodd" />
  <path
     clip-rule="evenodd"
     d="m 287.17,95.553 46.765,19.102 -0.049,25.828 -46.816,-19.435 z"
     fill="url(#paint25_linear)"
     id="path197"
     style="fill:url(#paint25_linear);fill-rule:evenodd" />
  <path
     clip-rule="evenodd"
     d="M 287.09,95.66 333.944,114.761 324.5,100.643 277.375,81.017 Z"
     fill="#ffffff"
     id="path199"
     style="fill-rule:evenodd" />
  <path
     d="m 314.549,121.641 c 0.058,-2.979 -1.882,-5.973 -5.819,-8.246 -7.728,-4.462 -20.215,-4.462 -27.893,0 -3.826,2.224 -5.735,5.137 -5.731,8.051 v -0.028 34.498 c -0.009,2.943 1.828,5.89 5.716,8.136 7.727,4.462 20.215,4.462 27.892,0 3.814,-2.217 5.83,-5.118 5.838,-8.023 v -34.498 c 0,0.037 -0.002,0.073 -0.003,0.11 z"
     fill="#a66206"
     id="path201"
     style="fill-rule:evenodd" />
  <path
     d="m 314.552,121.531 v 34.498 c -0.008,2.905 -2.023,5.806 -5.837,8.023 -7.678,4.462 -20.166,4.462 -27.893,0 -3.888,-2.245 -5.724,-5.193 -5.716,-8.136 v -34.498 c -0.008,2.943 1.934,5.891 5.822,8.136 7.727,4.462 20.215,4.463 27.893,0 3.814,-2.217 5.723,-5.118 5.731,-8.023 z"
     fill="url(#paint26_linear)"
     id="path203"
     style="fill:url(#paint26_linear);fill-rule:evenodd" />
  <path
     d="m 313.45,122.395 -0.1,32.571 c -0.008,2.743 -1.81,5.481 -5.411,7.574 -7.248,4.213 -19.038,4.213 -26.334,0.001 -3.671,-2.12 -5.405,-4.903 -5.397,-7.682 v -32.57 c -0.008,2.779 1.826,5.561 5.497,7.681 7.295,4.213 19.086,4.213 26.334,0 3.601,-2.093 5.403,-4.832 5.411,-7.575 z"
     fill="url(#paint27_linear)"
     id="path205"
     style="fill:url(#paint27_linear);fill-rule:evenodd" />
  <path
     d="m 294.184,139.047 c -4.809,-0.099 -9.573,-1.211 -13.256,-3.338 -3.888,-2.246 -5.83,-5.193 -5.822,-8.136 L 275,151.199 c -0.008,2.943 1.934,5.89 5.822,8.136 3.71,2.142 8.517,3.255 13.362,3.341 z"
     fill="#ffffff"
     id="path207"
     style="fill-rule:evenodd" />
  <path
     d="m 289.253,147.891 a 28.52,28.52 0 0 1 -4.661,-1.201 v -4.572 a 22.13,22.13 0 0 1 -3.664,-1.669 c -0.28,-0.162 -0.548,-0.328 -0.809,-0.497 v 4.572 c -1.136,-0.739 -2.082,-1.541 -2.832,-2.386 v 5.119 c 0.756,0.828 1.702,1.613 2.832,2.335 v 3.846 c 0.227,0.145 0.462,0.288 0.703,0.427 1.16,0.67 2.428,1.239 3.77,1.708 v -3.846 c 1.478,0.515 3.046,0.909 4.661,1.182 z"
     fill="#5884c3"
     id="path209"
     style="fill-rule:evenodd" />
  <path
     d="m 308.73,113.395 c 7.727,4.462 7.768,11.697 0.091,16.159 -7.678,4.463 -20.166,4.462 -27.893,0 -7.727,-4.462 -7.768,-11.696 -0.091,-16.159 7.678,-4.462 20.165,-4.462 27.893,0 z"
     fill="url(#paint28_linear)"
     id="path211"
     style="fill:url(#paint28_linear);fill-rule:evenodd" />
  <path
     d="m 306.37,111.235 c 0.034,-1.754 -1.108,-3.515 -3.425,-4.853 -4.547,-2.626 -11.896,-2.626 -16.413,0 -2.252,1.309 -3.375,3.023 -3.373,4.738 v -0.016 l -0.031,7.142 c -0.005,1.732 1.138,3.466 3.426,4.787 4.547,2.626 11.896,2.626 16.414,0 2.244,-1.304 3.367,-3.011 3.372,-4.721 l 0.031,-7.142 z"
     fill="#a66206"
     id="path213"
     style="fill-rule:evenodd" />
  <path
     d="m 306.371,111.17 -0.031,7.142 c -0.005,1.71 -1.128,3.417 -3.373,4.722 -4.518,2.625 -11.866,2.625 -16.413,0 -2.288,-1.322 -3.431,-3.056 -3.426,-4.788 l 0.031,-7.142 c -0.005,1.731 1.138,3.466 3.426,4.787 4.547,2.626 11.896,2.626 16.413,0 2.245,-1.304 3.368,-3.011 3.373,-4.721 z"
     fill="url(#paint29_linear)"
     id="path215"
     style="fill:url(#paint29_linear);fill-rule:evenodd" />
  <path
     d="m 302.945,106.382 c 4.547,2.626 4.571,6.883 0.053,9.509 -4.517,2.626 -11.866,2.626 -16.413,0 -4.547,-2.626 -4.571,-6.883 -0.054,-9.509 4.518,-2.626 11.866,-2.626 16.414,0 z"
     fill="#d07400"
     id="path217"
     style="fill-rule:evenodd" />
  <path
     d="m 310.018,106.964 c 0.045,-2.304 -1.455,-4.618 -4.5,-6.376 -5.975,-3.45 -15.631,-3.45 -21.567,0 -2.959,1.72 -4.435,3.972 -4.432,6.226 v -0.022 l -0.041,6.124 c -0.006,2.276 1.495,4.555 4.502,6.291 5.975,3.451 15.631,3.451 21.568,0 2.949,-1.714 4.425,-3.957 4.432,-6.203 l 0.04,-6.125 z"
     fill="#d8d8da"
     id="path219"
     style="fill-rule:evenodd" />
  <path
     d="m 310.02,106.879 -0.04,6.124 c -0.007,2.247 -1.483,4.49 -4.432,6.204 -5.937,3.451 -15.593,3.45 -21.568,0 -3.007,-1.736 -4.508,-4.015 -4.502,-6.291 l 0.041,-6.124 c -0.007,2.275 1.495,4.554 4.502,6.291 5.975,3.45 15.631,3.45 21.568,0 2.949,-1.714 4.425,-3.958 4.431,-6.204 z"
     fill="#ebeff8"
     id="path221"
     style="fill-rule:evenodd" />
  <path
     d="m 305.518,100.588 c 5.975,3.45 6.007,9.044 0.071,12.495 -5.937,3.45 -15.593,3.45 -21.568,0 -5.975,-3.451 -6.007,-9.044 -0.07,-12.495 5.936,-3.45 15.592,-3.45 21.567,0 z"
     fill="#dee5f5"
     id="path223"
     style="fill-rule:evenodd" />
  <path
     d="m 284.078,119.261 c 0.317,0.18 0.644,0.35 0.98,0.511 v -6.145 a 15.908,15.908 0 0 1 -0.98,-0.513 z m 6.029,-4.023 a 23.941,23.941 0 0 1 -0.98,-0.203 v 6.133 c 0.323,0.074 0.651,0.141 0.98,0.202 z m 2.524,0.342 a 28.706,28.706 0 0 1 -0.979,-0.103 v 6.129 c 0.325,0.039 0.651,0.074 0.979,0.101 z m -5.049,-0.965 a 20.099,20.099 0 0 1 -0.979,-0.334 v 6.139 c 0.321,0.118 0.647,0.23 0.979,0.333 z m 19.217,3.769 c 0.357,-0.266 0.683,-0.542 0.979,-0.824 v -6.086 c -0.296,0.28 -0.623,0.552 -0.979,0.815 z m -9.119,-2.87 c -0.325,0.036 -0.652,0.063 -0.979,0.087 v 6.122 c 0.328,-0.024 0.654,-0.052 0.979,-0.088 z m -16.126,1.874 c 0.295,0.293 0.621,0.578 0.979,0.854 v -6.155 a 10.32,10.32 0 0 1 -0.979,-0.864 z m 23.7,-4.12 c -0.318,0.173 -0.644,0.338 -0.98,0.493 v 6.106 c 0.337,-0.156 0.663,-0.322 0.98,-0.497 z m -5.049,1.832 c -0.324,0.071 -0.65,0.137 -0.98,0.195 v 6.117 c 0.33,-0.058 0.656,-0.124 0.98,-0.196 z m 2.524,-0.714 c -0.321,0.114 -0.647,0.22 -0.979,0.318 v 6.113 c 0.332,-0.099 0.658,-0.207 0.979,-0.321 z m -7.573,7.404 v -6.124 c -0.327,0.004 -0.653,0.003 -0.98,-0.004 v 6.125 c 0.327,0.007 0.653,0.007 0.98,0.003 z"
     fill="#dee5f5"
     id="path225"
     style="fill-rule:evenodd" />
  <defs
     id="defs382">
    <linearGradient
       id="paint0_linear"
       x1="30.946"
       y1="107.4"
       x2="56.242"
       y2="256.531"
       gradientUnits="userSpaceOnUse">
      <stop
         stop-color="#93A9D6"
         id="stop229" />
      <stop
         offset="1"
         stop-color="#E0E7F7"
         id="stop231" />
    </linearGradient>
    <linearGradient
       id="paint1_linear"
       x1="350.752"
       y1="73.933"
       x2="331.329"
       y2="106.502"
       gradientUnits="userSpaceOnUse">
      <stop
         stop-color="#E8EDF7"
         stop-opacity=".01"
         id="stop234" />
      <stop
         offset="1"
         stop-color="#C2CCE1"
         id="stop236" />
    </linearGradient>
    <linearGradient
       id="paint2_linear"
       x1="251.948"
       y1="16.288"
       x2="299.774"
       y2="91.457"
       gradientUnits="userSpaceOnUse">
      <stop
         stop-color="#93A9D6"
         id="stop239" />
      <stop
         offset="1"
         stop-color="#E0E7F7"
         id="stop241" />
    </linearGradient>
    <linearGradient
       id="paint3_linear"
       x1="299.103"
       y1="51.6"
       x2="315.515"
       y2="104.336"
       gradientUnits="userSpaceOnUse">
      <stop
         stop-color="#93A9D6"
         id="stop244" />
      <stop
         offset="1"
         stop-color="#E0E7F7"
         id="stop246" />
    </linearGradient>
    <linearGradient
       id="paint4_linear"
       x1="444.801"
       y1="130.029"
       x2="397.932"
       y2="72.12"
       gradientUnits="userSpaceOnUse">
      <stop
         stop-color="#C5D5EA"
         stop-opacity=".01"
         id="stop249" />
      <stop
         offset="1"
         stop-color="#93AAD0"
         id="stop251" />
    </linearGradient>
    <linearGradient
       id="paint5_linear"
       x1="291.862"
       y1="164.916"
       x2="346.612"
       y2="137.005"
       gradientUnits="userSpaceOnUse">
      <stop
         stop-color="#E8EDF7"
         stop-opacity=".01"
         id="stop254" />
      <stop
         offset="1"
         stop-color="#CCD6EC"
         id="stop256" />
    </linearGradient>
    <linearGradient
       id="paint6_linear"
       x1="242.777"
       y1="178.187"
       x2="316.174"
       y2="191.131"
       gradientUnits="userSpaceOnUse">
      <stop
         stop-color="#6BA3DE"
         id="stop259" />
      <stop
         offset="1"
         stop-color="#202873"
         id="stop261" />
    </linearGradient>
    <linearGradient
       id="paint7_linear"
       x1="195.914"
       y1="191.592"
       x2="310.889"
       y2="211.726"
       gradientUnits="userSpaceOnUse">
      <stop
         stop-color="#6BA3DE"
         id="stop264" />
      <stop
         offset="1"
         stop-color="#202873"
         id="stop266" />
    </linearGradient>
    <linearGradient
       id="paint8_linear"
       x1="242.777"
       y1="138.263"
       x2="309.993"
       y2="162.114"
       gradientUnits="userSpaceOnUse">
      <stop
         stop-color="#6BA3DE"
         id="stop269" />
      <stop
         offset="1"
         stop-color="#202873"
         id="stop271" />
    </linearGradient>
    <linearGradient
       id="paint9_linear"
       x1="216.39"
       y1="132.653"
       x2="291.569"
       y2="165.628"
       gradientUnits="userSpaceOnUse">
      <stop
         stop-color="#6BA3DE"
         id="stop274" />
      <stop
         offset="1"
         stop-color="#202873"
         id="stop276" />
    </linearGradient>
    <linearGradient
       id="paint10_linear"
       x1="30.946"
       y1="107.4"
       x2="56.242"
       y2="256.531"
       gradientUnits="userSpaceOnUse">
      <stop
         stop-color="#93A9D6"
         id="stop279" />
      <stop
         offset="1"
         stop-color="#E0E7F7"
         id="stop281" />
    </linearGradient>
    <linearGradient
       id="paint11_linear"
       x1="350.752"
       y1="73.933"
       x2="331.329"
       y2="106.502"
       gradientUnits="userSpaceOnUse">
      <stop
         stop-color="#E8EDF7"
         stop-opacity=".01"
         id="stop284" />
      <stop
         offset="1"
         stop-color="#C2CCE1"
         id="stop286" />
    </linearGradient>
    <linearGradient
       id="paint12_linear"
       x1="251.948"
       y1="16.288"
       x2="299.774"
       y2="91.457"
       gradientUnits="userSpaceOnUse">
      <stop
         stop-color="#93A9D6"
         id="stop289" />
      <stop
         offset="1"
         stop-color="#E0E7F7"
         id="stop291" />
    </linearGradient>
    <linearGradient
       id="paint13_linear"
       x1="299.103"
       y1="51.6"
       x2="315.515"
       y2="104.336"
       gradientUnits="userSpaceOnUse">
      <stop
         stop-color="#93A9D6"
         id="stop294" />
      <stop
         offset="1"
         stop-color="#E0E7F7"
         id="stop296" />
    </linearGradient>
    <linearGradient
       id="paint14_linear"
       x1="444.801"
       y1="130.029"
       x2="397.932"
       y2="72.12"
       gradientUnits="userSpaceOnUse">
      <stop
         stop-color="#C5D5EA"
         stop-opacity=".01"
         id="stop299" />
      <stop
         offset="1"
         stop-color="#93AAD0"
         id="stop301" />
    </linearGradient>
    <linearGradient
       id="paint15_linear"
       x1="291.862"
       y1="164.916"
       x2="346.612"
       y2="137.005"
       gradientUnits="userSpaceOnUse">
      <stop
         stop-color="#E8EDF7"
         stop-opacity=".01"
         id="stop304" />
      <stop
         offset="1"
         stop-color="#CCD6EC"
         id="stop306" />
    </linearGradient>
    <linearGradient
       id="paint16_linear"
       x1="242.777"
       y1="178.187"
       x2="316.174"
       y2="191.131"
       gradientUnits="userSpaceOnUse">
      <stop
         stop-color="#6BA3DE"
         id="stop309" />
      <stop
         offset="1"
         stop-color="#202873"
         id="stop311" />
    </linearGradient>
    <linearGradient
       id="paint17_linear"
       x1="195.914"
       y1="191.592"
       x2="310.889"
       y2="211.726"
       gradientUnits="userSpaceOnUse">
      <stop
         stop-color="#6BA3DE"
         id="stop314" />
      <stop
         offset="1"
         stop-color="#202873"
         id="stop316" />
    </linearGradient>
    <linearGradient
       id="paint18_linear"
       x1="242.777"
       y1="138.263"
       x2="309.993"
       y2="162.114"
       gradientUnits="userSpaceOnUse">
      <stop
         stop-color="#6BA3DE"
         id="stop319" />
      <stop
         offset="1"
         stop-color="#202873"
         id="stop321" />
    </linearGradient>
    <linearGradient
       id="paint19_linear"
       x1="216.39"
       y1="132.653"
       x2="291.569"
       y2="165.628"
       gradientUnits="userSpaceOnUse">
      <stop
         stop-color="#6BA3DE"
         id="stop324" />
      <stop
         offset="1"
         stop-color="#202873"
         id="stop326" />
    </linearGradient>
    <linearGradient
       id="paint20_linear"
       x1="30.946"
       y1="107.4"
       x2="56.242"
       y2="256.531"
       gradientUnits="userSpaceOnUse">
      <stop
         stop-color="#93A9D6"
         id="stop329" />
      <stop
         offset="1"
         stop-color="#E0E7F7"
         id="stop331" />
    </linearGradient>
    <linearGradient
       id="paint21_linear"
       x1="350.752"
       y1="73.933"
       x2="331.329"
       y2="106.502"
       gradientUnits="userSpaceOnUse">
      <stop
         stop-color="#E8EDF7"
         stop-opacity=".01"
         id="stop334" />
      <stop
         offset="1"
         stop-color="#C2CCE1"
         id="stop336" />
    </linearGradient>
    <linearGradient
       id="paint22_linear"
       x1="251.948"
       y1="16.288"
       x2="299.774"
       y2="91.457"
       gradientUnits="userSpaceOnUse">
      <stop
         stop-color="#93A9D6"
         id="stop339" />
      <stop
         offset="1"
         stop-color="#E0E7F7"
         id="stop341" />
    </linearGradient>
    <linearGradient
       id="paint23_linear"
       x1="299.103"
       y1="51.6"
       x2="315.515"
       y2="104.336"
       gradientUnits="userSpaceOnUse">
      <stop
         stop-color="#93A9D6"
         id="stop344" />
      <stop
         offset="1"
         stop-color="#E0E7F7"
         id="stop346" />
    </linearGradient>
    <linearGradient
       id="paint24_linear"
       x1="444.801"
       y1="130.029"
       x2="397.932"
       y2="72.12"
       gradientUnits="userSpaceOnUse">
      <stop
         stop-color="#C5D5EA"
         stop-opacity=".01"
         id="stop349" />
      <stop
         offset="1"
         stop-color="#93AAD0"
         id="stop351" />
    </linearGradient>
    <linearGradient
       id="paint25_linear"
       x1="291.862"
       y1="164.916"
       x2="346.612"
       y2="137.005"
       gradientUnits="userSpaceOnUse">
      <stop
         stop-color="#E8EDF7"
         stop-opacity=".01"
         id="stop354" />
      <stop
         offset="1"
         stop-color="#CCD6EC"
         id="stop356" />
    </linearGradient>
    <linearGradient
       id="paint26_linear"
       x1="242.777"
       y1="178.187"
       x2="316.174"
       y2="191.131"
       gradientUnits="userSpaceOnUse">
      <stop
         stop-color="#6BA3DE"
         id="stop359" />
      <stop
         offset="1"
         stop-color="#202873"
         id="stop361" />
    </linearGradient>
    <linearGradient
       id="paint27_linear"
       x1="195.914"
       y1="191.592"
       x2="310.889"
       y2="211.726"
       gradientUnits="userSpaceOnUse">
      <stop
         stop-color="#6BA3DE"
         id="stop364" />
      <stop
         offset="1"
         stop-color="#202873"
         id="stop366" />
    </linearGradient>
    <linearGradient
       id="paint28_linear"
       x1="242.777"
       y1="138.263"
       x2="309.993"
       y2="162.114"
       gradientUnits="userSpaceOnUse">
      <stop
         stop-color="#6BA3DE"
         id="stop369" />
      <stop
         offset="1"
         stop-color="#202873"
         id="stop371" />
    </linearGradient>
    <linearGradient
       id="paint29_linear"
       x1="216.39"
       y1="132.653"
       x2="291.569"
       y2="165.628"
       gradientUnits="userSpaceOnUse">
      <stop
         stop-color="#6BA3DE"
         id="stop374" />
      <stop
         offset="1"
         stop-color="#202873"
         id="stop376" />
    </linearGradient>
    <clipPath
       id="clip0">
      <rect
         width="370"
         height="180"
         rx="10"
         fill="#fff"
         id="rect379" />
    </clipPath>
    <mask
       id="a"
       maskUnits="userSpaceOnUse"
       x="0"
       y="-1"
       width="370"
       height="180">
      <rect
         y="-1"
         width="370"
         height="180"
         rx="7"
         fill="#fff"
         id="rect6" />
    </mask>
  </defs>
</svg>
