<svg width="370" height="180" xmlns="http://www.w3.org/2000/svg" xmlns:xlink="http://www.w3.org/1999/xlink"><defs><linearGradient id="b" x1="-67.703%" y1="55.32%" x2="120.475%" y2="92.681%"><stop stop-color="#93A9D6" offset="0%"/><stop stop-color="#E0E7F7" offset="100%"/></linearGradient><linearGradient id="e" x1="35.268%" y1="0%" x2="124.222%" y2="317.767%"><stop stop-color="#93A9D6" offset="0%"/><stop stop-color="#E0E7F7" offset="100%"/></linearGradient><linearGradient id="h" x1="-52.981%" y1="150.13%" x2="107.134%" y2="-5.401%"><stop stop-color="#93A9D6" offset="0%"/><stop stop-color="#E0E7F7" offset="100%"/></linearGradient><linearGradient id="j" x1="209.318%" y1="142.723%" x2="-348.412%" y2="-131.291%"><stop stop-color="#6BA3DE" offset="0%"/><stop stop-color="#202873" offset="100%"/></linearGradient><linearGradient id="k" x1="209.318%" y1="142.723%" x2="-38.323%" y2="-24.562%"><stop stop-color="#6BA3DE" offset="0%"/><stop stop-color="#202873" offset="100%"/></linearGradient><linearGradient id="l" x1="61.745%" y1="-51.243%" x2="82.561%" y2="161.993%"><stop stop-color="#93A9D6" offset="0%"/><stop stop-color="#E0E7F7" offset="100%"/></linearGradient><linearGradient id="m" x1="209.318%" y1="142.723%" x2="21.515%" y2="17.853%"><stop stop-color="#6BA3DE" offset="0%"/><stop stop-color="#202873" offset="100%"/></linearGradient><linearGradient id="n" x1="-600.437%" y1="-742.672%" x2="83.442%" y2="100%"><stop stop-color="#93A9D6" offset="0%"/><stop stop-color="#E0E7F7" offset="100%"/></linearGradient><linearGradient id="o" x1="0%" y1="26.572%" x2="514.68%" y2="305.839%"><stop stop-color="#93A9D6" offset="0%"/><stop stop-color="#E0E7F7" offset="100%"/></linearGradient><linearGradient id="p" x1="0%" y1="26.572%" x2="83.442%" y2="100%"><stop stop-color="#93A9D6" offset="0%"/><stop stop-color="#E0E7F7" offset="100%"/></linearGradient><linearGradient id="q" x1="-8.032%" y1="21.589%" x2="740.31%" y2="185.71%"><stop stop-color="#93A9D6" offset="0%"/><stop stop-color="#E0E7F7" offset="100%"/></linearGradient><linearGradient id="r" x1="-8.032%" y1="21.589%" x2="294.833%" y2="142.072%"><stop stop-color="#93A9D6" offset="0%"/><stop stop-color="#E0E7F7" offset="100%"/></linearGradient><linearGradient id="s" x1="-1076.625%" y1="-1048.607%" x2="286.317%" y2="231.548%"><stop stop-color="#93A9D6" offset="0%"/><stop stop-color="#E0E7F7" offset="100%"/></linearGradient><linearGradient id="t" x1="-32.605%" y1="-27.566%" x2="286.317%" y2="231.548%"><stop stop-color="#93A9D6" offset="0%"/><stop stop-color="#E0E7F7" offset="100%"/></linearGradient><linearGradient id="u" x1="-1261.098%" y1="665.98%" x2="70.152%" y2="34.894%"><stop stop-color="#93A9D6" offset="0%"/><stop stop-color="#E0E7F7" offset="100%"/></linearGradient><linearGradient id="v" x1="-52.981%" y1="150.13%" x2="70.152%" y2="34.894%"><stop stop-color="#93A9D6" offset="0%"/><stop stop-color="#E0E7F7" offset="100%"/></linearGradient><linearGradient id="w" x1="126.819%" y1="-165.022%" x2="62.523%" y2="100%"><stop stop-color="#93A9D6" offset="0%"/><stop stop-color="#E0E7F7" offset="100%"/></linearGradient><linearGradient id="x" x1="-8.032%" y1="21.589%" x2="2002.253%" y2="258.399%"><stop stop-color="#93A9D6" offset="0%"/><stop stop-color="#E0E7F7" offset="100%"/></linearGradient><linearGradient id="y" x1="100%" y1="0%" x2="174.483%" y2="160.688%"><stop stop-color="#93A9D6" offset="0%"/><stop stop-color="#E0E7F7" offset="100%"/></linearGradient><linearGradient id="z" x1="50%" y1="-20.86%" x2="0%" y2="108.016%"><stop stop-color="#93A9D6" offset="0%"/><stop stop-color="#E0E7F7" offset="100%"/></linearGradient><path id="d" d="M.516.376h162.699v94.373H.516z"/><path id="g" d="M.03.23h138.895v77.546H.03z"/><path id="A" d="M0 .063h27.799v27.795H0z"/><rect id="a" x="0" y="0" width="370" height="180" rx="7.5"/></defs><g fill="none" fill-rule="evenodd"><path d="M0 0h370v180H0z"/><g><mask id="c" fill="#fff"><use xlink:href="#a"/></mask><use fill="#FFF" xlink:href="#a"/><path fill="url(#b)" mask="url(#c)" d="M109 200L390 41v159z"/><g mask="url(#c)"><g transform="translate(221.201 72.487)"><mask id="f" fill="#fff"><use xlink:href="#d"/></mask><path d="M66.345 90.846l90.141-52.286c8.134-4.718 9.018-11.856 1.973-15.942L124.87 3.134C117.826-.952 105.52-.439 97.387 4.28L7.246 56.565C-.89 61.284-1.772 68.42 5.273 72.507l33.589 19.484c7.044 4.086 19.35 3.573 27.483-1.145" fill="url(#e)" mask="url(#f)"/></g><g transform="translate(240.401 4.404)"><mask id="i" fill="#fff"><use xlink:href="#g"/></mask><path d="M.03 47.137L79.085 1.085c2.27-1.322 4.844-1.024 6.727.295l.014-.007 53.099 30.638-85.796 45.765L.03 47.137z" fill="url(#h)" mask="url(#i)"/></g><path fill="#344B89" d="M268.221 67.576l5.465 3.154 82.337-47.76-5.466-3.154zM260.033 62.852l5.454 3.147 82.338-47.76-5.464-3.152z"/><path d="M142.777 82.077c2.595-1.505 5.123-2.268 7.518-2.268 6.148 0 10.12 4.866 10.12 12.395 0 .243-.023.491-.03.736l-18.142-10.522c.179-.112.354-.236.534-.34M76.715 120.396c2.594-1.504 5.123-2.267 7.518-2.267 6.148 0 10.12 4.865 10.12 12.395 0 .242-.023.49-.03.735L76.18 120.737c.179-.111.354-.236.534-.34" fill="url(#j)" transform="translate(216.119 4.067)"/><path d="M67.743 118.381c3.812-2.21 7.253-2.383 9.709-.88l9.519 5.522c-2.394-1.102-5.566-.78-9.045 1.238-7.46 4.327-13.507 14.807-13.507 23.407 0 4.103 1.38 7.034 3.63 8.51l-.013.02-9.552-5.543a6.455 6.455 0 01-.659-.382c-2.226-1.484-3.59-4.406-3.59-8.486 0-8.6 6.048-19.08 13.508-23.406" fill="url(#k)" transform="translate(216.119 4.067)"/><path d="M307.552 136.064c0-8.599-6.047-12.063-13.507-7.736-7.46 4.327-13.507 14.806-13.507 23.406s6.047 12.064 13.507 7.737 13.507-14.807 13.507-23.407" fill="#344B89"/><path d="M294.608 152.532c.227-.21.458-.403.686-.598.216-.213.436-.414.641-.632.423-.42.821-.86 1.19-1.322.733-.927 1.416-1.89 1.997-2.915.599-1.015 1.093-2.087 1.53-3.187.217-.552.397-1.117.55-1.694.087-.286.149-.58.226-.872.054-.296.105-.594.173-.897h.057c-.001 1.22-.222 2.434-.579 3.597a16.649 16.649 0 01-1.458 3.344 16.578 16.578 0 01-2.167 2.931c-.829.89-1.766 1.685-2.817 2.296l-.03-.05z" fill="#353836"/><path d="M85.51 136.348c0-4.46-3.136-6.258-7.006-4.013-3.87 2.244-7.007 7.68-7.007 12.142 0 4.46 3.137 6.258 7.007 4.013 3.87-2.244 7.007-7.68 7.007-12.142" fill="url(#l)" transform="translate(216.119 4.067)"/><path d="M78.503 148.49c-.63.38-1.295.72-2.019.908-.722.18-1.495.231-2.237.037a3.541 3.541 0 01-1.882-1.266c-.474-.611-.768-1.34-.938-2.084-.302-1.5-.171-3.045.195-4.5a16.76 16.76 0 011.684-4.166 16.788 16.788 0 012.764-3.535c1.075-1.042 2.342-1.925 3.783-2.418.725-.223 1.497-.342 2.262-.245a3.548 3.548 0 012.05.965c.55.54.902 1.235 1.112 1.952.202.724.246 1.472.233 2.21-.05-.737-.146-1.471-.379-2.164-.245-.685-.623-1.324-1.157-1.789a3.25 3.25 0 00-1.9-.81c-.699-.063-1.408.07-2.078.303a10.543 10.543 0 00-3.561 2.376 16.323 16.323 0 00-2.63 3.446 16.202 16.202 0 00-1.674 4.005c-.38 1.398-.487 2.869-.271 4.282.136.7.382 1.38.795 1.951a3.248 3.248 0 001.67 1.215c.673.22 1.414.22 2.125.085.713-.146 1.393-.432 2.053-.758" fill="url(#m)" transform="translate(216.119 4.067)"/><path d="M76.19 144.693c.788.226 1.538-.097 2.17-.494a7.187 7.187 0 001.66-1.567c.482-.6.887-1.265 1.217-1.969a8.407 8.407 0 00.709-2.247c.104.803-.008 1.646-.284 2.42a7.279 7.279 0 01-1.182 2.165c-.514.646-1.15 1.214-1.896 1.598a3.38 3.38 0 01-1.2.363c-.419.026-.857-.039-1.195-.27" fill="url(#n)" transform="translate(216.119 4.067)"/><path d="M81.946 138.416c-.075-.615-.22-1.249-.619-1.681-.37-.456-.957-.61-1.51-.52-.556.1-1.094.364-1.562.725-.474.353-.9.78-1.268 1.254a8.402 8.402 0 00-1.59 3.214c-.131.584-.202 1.193-.113 1.785.075.59.362 1.172.906 1.5-.61-.203-1.015-.819-1.188-1.439-.168-.634-.156-1.297-.055-1.935.21-1.281.787-2.475 1.58-3.492a6.914 6.914 0 011.406-1.341c.535-.369 1.152-.666 1.833-.727.338-.023.69.011 1.012.149.32.137.589.375.776.652.375.565.445 1.238.392 1.856" fill="url(#o)" transform="translate(216.119 4.067)"/><path d="M86.97 123.023c-1.825-.772-3.88-.653-5.716-.065-.928.283-1.82.68-2.67 1.148-.427.23-.836.494-1.24.766l-.609.4c-.199.139-.386.296-.579.443-3.107 2.353-5.594 5.461-7.55 8.827-1.923 3.384-3.372 7.1-3.83 10.981-.083.482-.097.97-.124 1.456l-.04.73.007.731c.03.975.149 1.946.382 2.891.435 1.885 1.424 3.707 3.047 4.847-1.701-1.03-2.786-2.872-3.321-4.774a13.99 13.99 0 01-.472-2.947l-.026-.747.018-.745c.016-.498.017-.997.088-1.49.176-1.985.654-3.933 1.313-5.805a33.867 33.867 0 012.459-5.418 34.563 34.563 0 013.443-4.845c1.283-1.512 2.73-2.893 4.343-4.049.201-.145.396-.299.603-.435l.633-.392a15.04 15.04 0 011.286-.748c.88-.453 1.802-.838 2.76-1.097 1.9-.511 4.02-.56 5.796.337" fill="url(#m)" transform="translate(216.119 4.067)"/><path d="M133.797 79.858c3.813-2.211 7.253-2.383 9.71-.88l9.519 5.522c-2.395-1.102-5.566-.78-9.045 1.238-7.46 4.327-13.507 14.807-13.507 23.407 0 4.103 1.38 7.034 3.629 8.51l-.012.02-9.553-5.543a6.356 6.356 0 01-.658-.382c-2.227-1.484-3.59-4.406-3.59-8.486 0-8.6 6.048-19.08 13.507-23.406" fill="url(#k)" transform="translate(216.119 4.067)"/><path d="M373.607 97.542c0-8.6-6.048-12.064-13.507-7.737-7.46 4.327-13.507 14.806-13.507 23.406s6.047 12.064 13.507 7.737 13.507-14.806 13.507-23.406" fill="#344B89"/><path d="M360.662 114.01c.227-.211.46-.404.687-.6.215-.212.436-.413.64-.63.423-.42.821-.86 1.19-1.323.734-.927 1.416-1.89 1.998-2.915.598-1.015 1.092-2.088 1.53-3.187.217-.552.397-1.117.55-1.694.087-.287.149-.579.225-.873.055-.295.105-.594.173-.896h.057c0 1.22-.222 2.433-.578 3.597a16.662 16.662 0 01-1.459 3.344 16.583 16.583 0 01-2.166 2.931c-.83.89-1.766 1.685-2.818 2.295l-.029-.05z" fill="#353836"/><path d="M151.565 97.825c0-4.461-3.137-6.258-7.007-4.013-3.87 2.244-7.007 7.68-7.007 12.142 0 4.461 3.137 6.258 7.007 4.014 3.87-2.245 7.007-7.681 7.007-12.143" fill="url(#l)" transform="translate(216.119 4.067)"/><path d="M144.558 109.968c-.63.378-1.295.719-2.02.906-.721.181-1.495.232-2.237.038a3.54 3.54 0 01-1.88-1.267c-.476-.61-.769-1.34-.94-2.083-.302-1.5-.17-3.045.196-4.5a16.76 16.76 0 011.683-4.166 16.773 16.773 0 012.765-3.535c1.074-1.042 2.342-1.925 3.782-2.418.726-.224 1.497-.342 2.262-.246a3.552 3.552 0 012.05.966c.55.54.903 1.235 1.112 1.952.203.724.247 1.472.234 2.21-.05-.738-.147-1.471-.38-2.164-.244-.685-.622-1.324-1.157-1.79a3.252 3.252 0 00-1.9-.81c-.699-.062-1.408.071-2.077.304a10.536 10.536 0 00-3.562 2.376 16.326 16.326 0 00-2.63 3.446 16.176 16.176 0 00-1.674 4.004c-.38 1.399-.486 2.87-.27 4.283.135.7.382 1.38.794 1.95a3.243 3.243 0 001.671 1.217c.673.22 1.413.22 2.124.084.714-.146 1.393-.432 2.054-.757" fill="url(#m)" transform="translate(216.119 4.067)"/><path d="M142.243 106.17c.79.225 1.54-.096 2.17-.494a7.172 7.172 0 001.66-1.567c.483-.6.888-1.265 1.218-1.969.33-.704.583-1.448.71-2.247a5.263 5.263 0 01-.285 2.42 7.244 7.244 0 01-1.182 2.164c-.514.648-1.15 1.215-1.896 1.598-.372.19-.78.324-1.2.364-.418.026-.857-.038-1.195-.27" fill="url(#n)" transform="translate(216.119 4.067)"/><path d="M148 99.893c-.075-.615-.219-1.249-.619-1.68-.37-.457-.957-.612-1.51-.52-.555.099-1.093.363-1.562.724a6.7 6.7 0 00-1.267 1.254 8.394 8.394 0 00-1.59 3.214c-.132.584-.203 1.193-.114 1.785.076.589.362 1.172.906 1.5-.61-.204-1.014-.82-1.187-1.439-.169-.633-.157-1.297-.056-1.935.21-1.282.788-2.475 1.58-3.493a6.927 6.927 0 011.406-1.34c.535-.369 1.152-.666 1.834-.727.338-.022.69.011 1.012.149.32.137.589.375.776.652.374.565.445 1.238.391 1.856" fill="url(#o)" transform="translate(216.119 4.067)"/><path d="M153.025 84.5c-1.825-.772-3.88-.653-5.716-.066-.928.284-1.82.68-2.67 1.149-.428.23-.837.494-1.24.766l-.61.4c-.199.139-.385.296-.578.443-3.107 2.353-5.595 5.46-7.55 8.827-1.924 3.384-3.373 7.1-3.83 10.981-.083.482-.097.97-.125 1.456l-.039.73.007.731c.03.975.148 1.946.381 2.891.436 1.885 1.424 3.707 3.048 4.846-1.702-1.03-2.786-2.87-3.322-4.773a13.96 13.96 0 01-.471-2.947l-.027-.746.019-.746c.015-.498.017-.998.087-1.49.177-1.985.654-3.933 1.313-5.805a33.913 33.913 0 012.46-5.418 34.497 34.497 0 013.443-4.845c1.282-1.512 2.73-2.893 4.343-4.049.201-.145.395-.299.603-.435l.633-.392c.418-.267.842-.523 1.285-.747.881-.454 1.802-.839 2.761-1.098 1.9-.511 4.019-.56 5.795.337" fill="url(#m)" transform="translate(216.119 4.067)"/><path d="M53.1 127.256l14.809-13.147 9.503-35.996 79.055-46.052c4.175-2.433 9.405.593 9.407 5.441l.013 24.331h.001-.001L53.099 127.256zM165.888 63.76v25.988l-5.503 3.192c.002-.143.017-.29.017-.432 0-7.493-4.162-12.528-10.359-12.528-2.409 0-4.939.76-7.52 2.256-8.39 4.868-14.963 16.263-14.963 25.942 0 1.276.13 2.473.36 3.593l-33.598 19.488c-.268-7.079-4.345-11.79-10.333-11.79-2.409 0-4.939.76-7.52 2.257-8.39 4.867-14.964 16.263-14.964 25.942 0 .878.062 1.72.174 2.526l-8.58 4.977v-25.987L165.888 63.76z" fill="url(#p)" transform="translate(216.119 4.067)"/><path d="M62.666 140.207c-.749 2.509-1.161 5.038-1.161 7.46 0 .879.063 1.72.174 2.528l-8.58 4.976v-9.408l9.567-5.556zM53.1 127.256v1.927l112.788-65.422v-1.928z" fill="url(#j)" transform="translate(216.119 4.067)"/><path fill="url(#q)" d="M78.763 108.325l-7.592 4.403 7.592-30.52z" transform="translate(216.119 4.067)"/><path fill="url(#r)" d="M105.575 65.526L80.07 80.321v27.228l25.506-14.794z" transform="translate(216.119 4.067)"/><path fill="url(#h)" d="M0 124.607l53.1 30.638v-26.056L0 98.55z" transform="translate(216.119 4.067)"/><path fill="url(#j)" d="M0 115.125l53.1 30.638v9.482L0 124.607z" transform="translate(216.119 4.067)"/><path d="M46.61 147.228c0 1.234.867 2.737 1.938 3.357 1.07.621 1.936.125 1.936-1.11 0-1.233-.867-2.735-1.936-3.356-1.07-.62-1.937-.124-1.937 1.11M2.577 121.687c0 1.234.867 2.737 1.937 3.357 1.07.62 1.937.124 1.937-1.11 0-1.233-.867-2.736-1.937-3.357-1.07-.62-1.937-.123-1.937 1.11" fill="url(#s)" transform="translate(216.119 4.067)"/><path d="M237.45 139.442l10.398 6.031c.614.356 1.111-.022 1.111-.843v-2.66c0-.822-.497-1.777-1.11-2.133l-10.398-6.031c-.614-.356-1.111.022-1.111.843v2.66c0 .822.497 1.777 1.11 2.133" fill="#F7F1E7"/><path d="M39.236 129.958c0 3.665 2.577 8.132 5.757 9.976 3.18 1.844 5.757.368 5.757-3.297 0-3.666-2.577-8.133-5.757-9.977-3.18-1.844-5.757-.368-5.757 3.298" fill="url(#t)" transform="translate(216.119 4.067)"/><path d="M40.189 130.51c0 3.06 2.151 6.787 4.804 8.326 2.654 1.54 4.805.307 4.805-2.752 0-3.059-2.151-6.786-4.805-8.326-2.653-1.538-4.804-.307-4.804 2.753" fill="url(#u)" transform="translate(216.119 4.067)"/><path d="M1.74 108.209c0 3.665 2.578 8.132 5.757 9.976 3.18 1.844 5.758.368 5.758-3.298 0-3.665-2.578-8.132-5.758-9.976-3.179-1.844-5.756-.368-5.756 3.298" fill="url(#t)" transform="translate(216.119 4.067)"/><path d="M2.693 108.761c0 3.06 2.152 6.787 4.805 8.326 2.653 1.539 4.804.307 4.804-2.752 0-3.06-2.151-6.787-4.804-8.326-2.653-1.539-4.805-.307-4.805 2.752" fill="url(#u)" transform="translate(216.119 4.067)"/><path d="M17.813 122.95l16.913 9.81c1.06.615 1.918-.037 1.918-1.456v-5.7c0-1.418-.859-3.066-1.918-3.68l-16.913-9.811c-1.06-.614-1.918.038-1.918 1.456v5.7c0 1.419.858 3.066 1.918 3.68" fill="url(#t)" transform="translate(216.119 4.067)"/><path d="M35.608 124.126L16.93 113.293c.126-.264.416-.333.754-.136l17.169 9.958c.338.196.628.601.754 1.01zm.067.612v.574L16.864 114.4v-.574l18.81 10.911zm0 1.147v.574l-18.811-10.911v-.574l18.81 10.911zm0 1.147v.574l-18.811-10.911v-.574l18.81 10.911zm0 1.147v.573l-18.811-10.91v-.574l18.81 10.91zm0 1.147v.573l-18.811-10.91v-.574l18.81 10.91zm0 1.147v.573l-18.811-10.91v-.574l18.81 10.91zm-18.744-9.726l18.677 10.834c-.126.264-.416.332-.754.136l-17.169-9.959c-.338-.196-.628-.6-.754-1.01z" fill="url(#m)" transform="translate(216.119 4.067)"/><path fill="url(#j)" d="M0 96.617v1.933l53.1 30.639v-1.934z" transform="translate(216.119 4.067)"/><path fill="url(#v)" d="M67.908 114.11L14.81 83.47 0 96.617l53.1 30.639z" transform="translate(216.119 4.067)"/><path fill="url(#w)" d="M24.313 47.475L14.809 83.47l53.1 30.638 9.503-35.996z" transform="translate(216.119 4.067)"/><path fill="url(#t)" d="M73.86 79.44L25.902 51.768l-7.541 30.377 47.958 27.671z" transform="translate(216.119 4.067)"/><g><path fill="url(#r)" d="M20.257 117.188l-6.963-4.02-6.965 4.02 6.965 4.02z" transform="translate(332.281 12.248)"/><path fill="url(#x)" d="M13.294 121.209v29.015l6.963-4.02v-29.016z" transform="translate(332.281 12.248)"/><path fill="url(#r)" d="M6.33 146.204l6.964 4.02v-29.016l-6.964-4.02z" transform="translate(332.281 12.248)"/><path d="M16.071 27.212h-5.158v88.781c-.002.384.249.767.752 1.058 1.005.579 2.643.579 3.648 0 .501-.29.75-.672.75-1.054h.008V27.212z" fill="url(#y)" transform="translate(332.281 12.7)"/><path d="M10.914 27.212v88.781c0 .047.015.093.022.139 1.003.402 2.398.347 3.29-.167.504-.29.752-.672.752-1.053h.008v-87.7h-4.072z" fill="url(#z)" transform="translate(332.281 12.7)"/><g transform="translate(332.281 12.7)"><mask id="B" fill="#fff"><use xlink:href="#A"/></mask><path d="M27.799 13.96c0 7.677-6.223 13.898-13.9 13.898-7.675 0-13.9-6.221-13.9-13.897S6.225.063 13.9.063c7.677 0 13.9 6.222 13.9 13.898" fill="url(#v)" mask="url(#B)"/></g><path d="M346.18 12.763c-7.675 0-13.899 6.222-13.899 13.897 0 2.726.786 5.265 2.143 7.41a13.844 13.844 0 009.622 3.874c7.678 0 13.9-6.222 13.9-13.898 0-2.724-.787-5.264-2.142-7.409a13.855 13.855 0 00-9.624-3.874" fill="#DEE5F6"/><path d="M347.769 21.621a5.04 5.04 0 11-10.08-.001 5.04 5.04 0 0110.08.001" fill="#FFF" opacity=".5"/><path d="M3.45 25.487c6.085 5.43 14.813 5.43 20.9 0 1.24-1.106-.587-2.92-1.821-1.819-5.003 4.465-12.256 4.465-17.26 0-1.233-1.102-3.06.712-1.82 1.82" fill="url(#r)" transform="translate(332.281 12.7)"/></g></g></g></g></svg>