<?xml version="1.0" encoding="UTF-8" standalone="no"?>
<svg
   xmlns:dc="http://purl.org/dc/elements/1.1/"
   xmlns:cc="http://creativecommons.org/ns#"
   xmlns:rdf="http://www.w3.org/1999/02/22-rdf-syntax-ns#"
   xmlns:svg="http://www.w3.org/2000/svg"
   xmlns="http://www.w3.org/2000/svg"
   xmlns:xlink="http://www.w3.org/1999/xlink"
   xmlns:sodipodi="http://sodipodi.sourceforge.net/DTD/sodipodi-0.dtd"
   xmlns:inkscape="http://www.inkscape.org/namespaces/inkscape"
   width="370"
   height="180"
   version="1.1"
   id="svg133"
   sodipodi:docname="postal-service-6.svg"
   inkscape:version="1.0.1 (3bc2e813f5, 2020-09-07)">
  <metadata
     id="metadata137">
    <rdf:RDF>
      <cc:Work
         rdf:about="">
        <dc:format>image/svg+xml</dc:format>
        <dc:type
           rdf:resource="http://purl.org/dc/dcmitype/StillImage" />
      </cc:Work>
    </rdf:RDF>
  </metadata>
  <sodipodi:namedview
     pagecolor="#ffffff"
     bordercolor="#666666"
     borderopacity="1"
     objecttolerance="10"
     gridtolerance="10"
     guidetolerance="10"
     inkscape:pageopacity="0"
     inkscape:pageshadow="2"
     inkscape:window-width="1368"
     inkscape:window-height="850"
     id="namedview135"
     showgrid="false"
     inkscape:zoom="1.6391892"
     inkscape:cx="191.31823"
     inkscape:cy="86.013391"
     inkscape:window-x="-6"
     inkscape:window-y="-6"
     inkscape:window-maximized="1"
     inkscape:current-layer="svg133" />
  <defs
     id="defs8">
    <linearGradient
       id="b"
       x1="121.32464"
       y1="-84.728176"
       x2="661.74528"
       y2="466.04384"
       gradientTransform="scale(1.3444859,0.74377873)"
       gradientUnits="userSpaceOnUse">
      <stop
         stop-color="#93A9D6"
         offset="0%"
         id="stop2" />
      <stop
         stop-color="#E0E7F7"
         offset="100%"
         id="stop4" />
    </linearGradient>
    <rect
       id="a"
       x="0"
       y="0"
       width="370"
       height="180"
       rx="7" />
    <mask
       id="c"
       fill="#ffffff">
      <use
         xlink:href="#a"
         id="use12"
         x="0"
         y="0"
         width="100%"
         height="100%" />
    </mask>
  </defs>
  <path
     d="M 0,0 H 370 V 180 H 0 Z"
     id="path10"
     style="fill:none;fill-rule:evenodd" />
  <path
     fill="url(#b)"
     mask="url(#c)"
     d="M 128.17,180 370,46.218 V 180 Z"
     id="path17"
     style="fill:url(#b);fill-rule:evenodd" />
  <g
     mask="url(#c)"
     id="g127"
     style="fill:none;fill-rule:evenodd">
    <path
       fill="#e0e7f7"
       d="m 317.882,84.65 -0.08,28.34 -26.586,-15.47 0.08,-28.34 z"
       id="path19" />
    <path
       fill="#ebeef6"
       d="M 344.295,69.18 317.88,84.65 291.295,69.18 317.708,53.71 Z"
       id="path21" />
    <path
       fill="#dde4f6"
       d="m 300.459,74.512 7.333,4.267 26.5,-15.42 -7.334,-4.266 z"
       id="path23" />
    <path
       d="m 300.459,74.507 v 10.536 l 0.09,0.052 a 0.84,0.84 0 0 1 0.182,-0.04 c 0.034,0.007 0.802,0.23 0.802,0.23 l 0.307,0.377 0.07,0.225 0.23,0.134 c 0.115,-0.05 0.255,-0.105 0.31,-0.11 0.102,-0.006 0.623,0.008 0.623,0.008 0,0 0.215,0.572 0.238,0.625 0.01,0.025 0.057,0.12 0.106,0.22 l 0.61,0.355 0.166,-0.12 c 0,0 0.125,0.09 0.204,0.177 0.033,0.036 0.146,0.17 0.267,0.312 l 0.48,0.28 c 0.041,-0.03 0.084,-0.052 0.113,-0.039 0.08,0.032 0.26,-0.005 0.373,0.106 0.114,0.111 0.284,0.381 0.386,0.44 l 0.6,0.35 a 0.259,0.259 0 0 1 0.146,-0.034 c 0.125,0.02 0.464,0.007 0.464,0.007 l 0.18,0.21 0.137,0.238 0.102,0.177 0.147,0.086 V 78.774 Z"
       fill="#b0c0e3"
       id="path25" />
    <path
       fill="#26327c"
       d="m 344.295,69.18 -0.08,28.34 -26.413,15.47 0.08,-28.34 z"
       id="path27" />
    <path
       fill="#ffffff"
       d="m 291.296,69.18 v 10e-4 l 26.549,15.45 -0.08,28.338 0.037,0.02 0.08,-28.339 z"
       id="path29" />
    <g
       id="g37">
      <path
         fill="#a9bcdc"
         d="m 331.626,89.633 -0.08,28.34 -26.413,15.47 0.08,-28.34 z"
         id="path31" />
      <path
         fill="#e0e7f7"
         d="m 305.213,105.102 -0.08,28.342 -26.586,-15.47 0.08,-28.34 z"
         id="path33" />
      <path
         fill="#ebeef6"
         d="m 331.626,89.633 -26.414,15.47 -26.585,-15.47 26.413,-15.47 z"
         id="path35" />
    </g>
    <g
       id="g45">
      <path
         fill="#a9bcdc"
         d="m 352.882,111.707 -0.08,28.34 -26.413,15.47 0.08,-28.34 z"
         id="path39" />
      <path
         fill="#e0e7f7"
         d="m 326.47,127.177 -0.081,28.34 -26.585,-15.47 0.08,-28.34 z"
         id="path41" />
      <path
         fill="#ebeef6"
         d="m 352.882,111.707 -26.413,15.47 -26.586,-15.47 26.414,-15.47 z"
         id="path43" />
    </g>
    <g
       id="g51">
      <path
         fill="#e0e7f7"
         d="m 377.325,128.895 -0.08,28.34 -26.585,-15.47 0.08,-28.34 z"
         id="path47" />
      <path
         fill="#ebeef6"
         d="m 403.738,113.425 -26.413,15.47 -26.586,-15.47 26.414,-15.47 z"
         id="path49" />
    </g>
    <g
       id="g59">
      <path
         fill="#a9bcdc"
         d="m 350.906,50.139 -0.08,28.34 -26.413,15.47 0.08,-28.34 z"
         id="path53" />
      <path
         fill="#e0e7f7"
         d="m 324.493,65.608 -0.08,28.34 -26.585,-15.468 0.079,-28.34 z"
         id="path55" />
      <path
         fill="#ebeef6"
         d="m 350.906,50.139 -26.413,15.47 -26.586,-15.47 26.413,-15.47 z"
         id="path57" />
    </g>
    <g
       id="g71">
      <path
         fill="#a9bcdc"
         d="m 376.275,75.37 -0.08,28.34 -26.413,15.47 0.08,-28.34 z"
         id="path61" />
      <path
         fill="#ffffff"
         d="m 323.277,75.371 v 0.001 l 26.548,15.448 -0.08,28.34 0.038,0.02 0.079,-28.339 z"
         id="path63" />
      <path
         fill="#ffffff"
         d="m 349.862,90.784 -26.537,-15.44 -0.048,0.027 26.585,15.47 26.414,-15.47 -0.049,-0.028 z"
         id="path65" />
      <path
         fill="#e0e7f7"
         d="m 349.862,90.84 -0.08,28.341 -26.585,-15.47 0.08,-28.34 z"
         id="path67" />
      <path
         fill="#ebeef6"
         d="M 376.275,75.37 349.862,90.84 323.277,75.37 349.69,59.9 Z"
         id="path69" />
    </g>
    <g
       id="g125">
      <path
         d="m 302.117,41.448 c 0,2.51 -1.337,4.544 -2.986,4.544 -1.649,0 -2.985,-2.034 -2.985,-4.544 0,-2.51 1.336,-4.544 2.985,-4.544 1.649,0 2.986,2.034 2.986,4.544 m -23.548,-0.602 c 0,2.51 -1.336,4.544 -2.986,4.544 -1.648,0 -2.985,-2.035 -2.985,-4.544 0,-2.51 1.337,-4.545 2.985,-4.545 1.65,0 2.986,2.035 2.986,4.545"
         fill="#b2c2e4"
         id="path73" />
      <path
         d="m 291.501,162.867 -7.608,7.526 c 0,0 -1.104,2.955 2.863,3.774 3.968,0.818 7.035,-0.615 9.449,-2.784 2.412,-2.17 6.38,-6.101 6.38,-6.101 v -4.872 z"
         fill="#344b89"
         id="path75" />
      <path
         d="m 291.501,161.365 -7.403,8.189 c 0,0 -1.309,2.293 2.658,3.111 3.968,0.82 7.035,-0.614 9.449,-2.784 2.412,-2.17 6.38,-6.1 6.38,-6.1 v -4.872 z"
         fill="#ffffff"
         id="path77" />
      <path
         d="m 278.835,152.424 -8.09,7.004 c 0,0 -1.298,2.876 2.607,3.956 3.903,1.08 7.06,-0.145 9.611,-2.15 2.551,-2.005 6.77,-5.663 6.77,-5.663 l 0.323,-4.861 z"
         fill="#344b89"
         id="path79" />
      <path
         d="m 278.934,150.927 -7.93,7.679 c 0,0 -1.457,2.2 2.447,3.28 3.904,1.081 7.06,-0.144 9.612,-2.15 2.55,-2.004 6.77,-5.662 6.77,-5.662 l 0.323,-4.861 z"
         fill="#ffffff"
         id="path81" />
      <path
         d="m 271.425,82.646 -1.15,6.432 -12.474,10.18 c 0,0 -1.187,-0.042 -2.25,-0.491 -1.063,-0.451 -3.312,-1.393 -3.64,-1.393 -0.452,0 -1.152,-0.108 -1.358,0.435 -0.139,0.37 0.09,1.14 0.433,1.29 l 2.192,0.96 c 0.245,0.108 0.515,0.242 0.598,0.495 0.034,0.107 0.03,0.222 0.026,0.335 -0.024,0.618 -0.025,1.048 -0.299,1.583 -0.261,0.508 -0.545,0.995 -0.78,1.517 -0.426,0.953 -0.82,1.907 -1.753,2.475 -1.349,0.818 -3.066,1.596 -3.067,1.596 0.083,-0.037 0.488,0.147 0.577,0.169 0.746,0.189 1.543,0.278 2.308,0.33 0.738,0.05 1.423,-0.264 2.122,-0.502 7.907,-2.694 14.925,-7.035 21.923,-11.5 0.224,-0.142 0.448,-0.286 0.672,-0.43 0.25,-0.163 0.627,-0.325 0.823,-0.558 0.205,-0.242 1.594,-0.692 1.717,-2.658 0.123,-1.965 2.29,-10.563 2.29,-10.563 0,0 -3.925,-1.268 -4.335,-1.187 -0.409,0.082 -4.575,1.485 -4.575,1.485"
         fill="#fac59d"
         id="path83" />
      <path
         d="m 278.947,83.462 -6.631,-1.346 c -1.549,-0.315 -2.525,-1.947 -2.18,-3.647 l 2.752,-13.581 c 0.728,-3.594 3.974,-5.968 7.249,-5.303 l 0.377,0.077 c 3.276,0.665 5.34,4.117 4.612,7.712 l -2.752,13.58 c -0.345,1.7 -1.88,2.822 -3.427,2.508"
         fill="#344b89"
         id="path85" />
      <path
         d="m 281.084,82.64 -9.745,-1.979 a 3.87,3.87 0 0 1 -1.637,-0.767 c 0.019,1.415 0.92,2.649 2.246,2.917 l 6.63,1.346 c 1.198,0.244 2.384,-0.374 3.021,-1.452 a 3.804,3.804 0 0 1 -0.515,-0.065"
         fill="#ffffff"
         id="path87" />
      <path
         d="m 304.258,100.634 c 0.222,2.04 0.05,4.128 0.01,6.182 a 4663.37,4663.37 0 0 1 -0.242,11.451 19122.493,19122.493 0 0 1 -0.635,27.708 l -0.245,10.364 -0.098,4.112 c 0,0 -5.453,3.603 -11.888,1.747 l -1.09,-45.964 -0.272,0.159 0.271,33.25 c 0,0 -4.144,3.166 -11.451,1.528 l -2.945,-54.806 1.2,-2.294 h 21.239 c 0.677,0 1.36,0.03 2.034,-0.037 0.535,-0.053 1.158,-0.27 1.687,-0.085 1.46,0.51 1.785,3.103 2.03,4.376 l 0.225,1.169 c 0.073,0.378 0.128,0.758 0.17,1.14"
         fill="#344b89"
         id="path89" />
      <path
         d="m 296.122,105.072 c 7.444,-1.23 8.24,-4.095 8.24,-4.095 l -0.26,-7.329 c -0.082,-2.294 -0.145,-4.59 -0.245,-6.884 -0.03,-0.662 -0.137,-1.17 0.03,-1.827 0.272,-1.07 0.552,-2.139 0.808,-3.214 0.512,-2.149 0.97,-4.31 1.374,-6.482 0.428,-2.3 0.756,-4.832 -0.436,-6.843 -0.238,-0.404 -0.533,-0.771 -0.837,-1.129 -2.012,-2.362 -4.747,-4.621 -7.61,-5.84 0,0 0.127,-2.865 -2.572,-4.83 l -0.128,-2.95 h -12.923 v 3.52 c 0,0 -2.29,0.574 -2.536,0.983 -0.245,0.41 -0.327,0.9 -0.327,0.9 -0.99,0.6 -2.918,0.917 -2.972,2.275 -0.028,0.702 0,1.41 0,2.111 l 0.002,13.001 0.002,8.352 c -0.063,2.864 -0.044,5.727 -0.05,8.597 l -0.006,3.125 c -10e-4,0.33 -0.206,2.884 -0.003,2.99 0,0 13.007,6.796 20.449,5.569 z"
         fill="#344b89"
         id="path91" />
      <path
         d="m 285.158,64.071 c 0.068,0.018 0.136,0.034 0.204,0.05 1.09,0.24 2.23,0.143 3.325,-0.067 0.802,-0.152 1.601,-0.367 2.312,-0.766 1.149,-0.645 1.984,-1.718 2.788,-2.762 0.242,-0.317 0.486,-0.635 0.66,-0.993 0.579,-1.2 0.105,-2.338 0.169,-3.565 0.01,-0.182 -0.111,-2.32 -0.13,-2.32 h -12.923 c 0,0.928 0.008,1.857 0,2.786 -0.007,0.765 -0.053,1.486 0.053,2.262 0.122,0.897 0.331,1.782 0.626,2.638 0.114,0.332 0.242,0.66 0.421,0.964 0.53,0.903 1.48,1.503 2.495,1.773"
         fill="#b2c2e4"
         id="path93" />
      <path
         d="m 296.561,101.91 c -6.728,1.111 -17.726,-3.938 -20.888,-5.486 v 3.08 c 0,0 13.006,6.795 20.45,5.567 7.443,-1.228 8.24,-4.094 8.24,-4.094 l -0.073,-2.044 c -1.099,0.98 -3.316,2.249 -7.729,2.977"
         fill="#26327c"
         id="path95" />
      <path
         d="m 244.444,87.024 v 8.898 l 0.077,0.044 a 0.839,0.839 0 0 1 0.154,-0.033 c 0.029,0.006 0.683,0.195 0.683,0.195 l 0.26,0.317 0.06,0.19 0.196,0.113 c 0.097,-0.042 0.215,-0.09 0.263,-0.092 0.086,-0.006 0.53,0.005 0.53,0.005 l 0.201,0.529 0.091,0.185 0.52,0.3 c 0.068,-0.05 0.14,-0.1 0.14,-0.1 0,0 0.106,0.077 0.173,0.148 0.029,0.031 0.125,0.144 0.227,0.265 l 0.408,0.237 c 0.035,-0.028 0.071,-0.045 0.096,-0.035 0.068,0.029 0.222,-0.003 0.318,0.09 0.096,0.093 0.24,0.322 0.327,0.372 l 0.511,0.295 a 0.229,0.229 0 0 1 0.124,-0.028 c 0.106,0.017 0.395,0.005 0.395,0.005 l 0.154,0.179 0.115,0.2 0.087,0.15 0.124,0.072 v -8.897 z"
         fill="#ffeab0"
         id="path97" />
      <path
         fill="#a9bcdc"
         d="m 281.715,82.526 -0.068,23.933 -22.458,13.065 0.069,-23.934 z"
         id="path99" />
      <path
         fill="#e0e7f7"
         d="m 259.258,95.59 -0.069,23.934 -22.604,-13.065 0.069,-23.933 z"
         id="path101" />
      <path
         fill="#ebeef6"
         d="M 281.715,82.526 259.258,95.59 236.653,82.526 259.111,69.462 Z"
         id="path103" />
      <path
         d="m 278.855,106.437 c -0.1,0.056 -0.181,0.011 -0.181,-0.104 v -1.906 c 0,-0.037 0.026,-0.081 0.058,-0.1 0.032,-0.018 0.058,-0.003 0.058,0.034 v 1.905 c 0,0.04 0.03,0.058 0.065,0.037 a 0.143,0.143 0 0 0 0.065,-0.112 v -0.159 c 0,-0.037 0.025,-0.08 0.058,-0.1 0.032,-0.018 0.057,-0.003 0.057,0.034 v 0.159 c 0,0.114 -0.08,0.255 -0.18,0.312"
         fill="#7e4f01"
         id="path105" />
      <path
         d="m 293.592,87.64 -1.15,6.432 -12.475,10.18 c 0,0 -1.185,-0.04 -2.249,-0.49 -1.064,-0.451 -3.312,-1.393 -3.64,-1.393 -0.454,0 -1.035,-0.156 -1.234,0.388 -0.23,0.625 0.047,1.396 0.621,1.731 0.18,0.106 0.379,0.17 0.57,0.25 1.283,0.534 2.23,1.709 1.434,3.076 -0.859,1.474 -0.982,2.826 -2.332,3.645 -1.35,0.818 -3.067,1.596 -3.067,1.596 0,0 2.005,0.737 4.09,0.287 3.26,-0.705 6.475,-2.469 9.441,-3.948 4.51,-2.25 8.764,-4.924 13.024,-7.608 0.555,-0.35 1.438,-0.711 1.87,-1.222 0.205,-0.242 1.595,-0.692 1.718,-2.658 0.122,-1.965 2.29,-10.563 2.29,-10.563 0,0 -3.927,-1.269 -4.335,-1.187 -0.41,0.081 -4.576,1.485 -4.576,1.485"
         fill="#e0e7f7"
         id="path107" />
      <path
         d="m 300.929,89.052 -6.701,-0.939 c -1.565,-0.219 -2.64,-1.787 -2.4,-3.504 l 1.919,-13.726 c 0.508,-3.63 3.602,-6.199 6.912,-5.735 l 0.381,0.053 c 3.31,0.463 5.582,3.783 5.074,7.414 l -1.918,13.725 c -0.24,1.718 -1.702,2.931 -3.267,2.712"
         fill="#344b89"
         id="path109" />
      <path
         d="m 303.337,87.384 -9.849,-1.379 a 3.871,3.871 0 0 1 -1.68,-0.666 c 0.105,1.41 1.081,2.588 2.419,2.775 l 6.702,0.938 c 1.21,0.17 2.356,-0.52 2.926,-1.634 -0.172,-0.001 -0.345,-0.01 -0.518,-0.034 M 278.7,59.053 c 0,0 0.204,6.469 0.123,8.27 0,0 2.74,-3.194 5.93,-3.03 0,0 3.6,2.293 6.053,6.1 0,0 5.236,-3.035 6.55,-8.89 -0.058,-0.025 -0.11,-0.05 -0.17,-0.075 0,0 0.154,-3.03 -2.438,-4.999 -1.407,2.157 -4.811,6.597 -9.669,7.62 0,0 -2.29,-0.328 -3.517,-6.879 0,0 -2.29,0.573 -2.535,0.983 -0.245,0.41 -0.327,0.9 -0.327,0.9 z"
         fill="#ffffff"
         id="path111" />
      <path
         d="m 287.04,58.261 c -6.373,0 -11.539,-5.17 -11.539,-11.549 V 31.825 c 0,-2.102 -0.235,-4.035 1.668,-5.467 1.022,-0.768 2.324,-1.036 3.583,-1.258 2.938,-0.52 5.943,-0.903 8.9,-0.508 2.958,0.394 5.896,1.643 7.822,3.926 0.707,0.838 1.11,1.48 1.102,2.551 -0.008,0.99 0,1.978 0,2.966 v 12.677 c 0,6.379 -5.165,11.55 -11.537,11.55"
         fill="#e0e7f7"
         id="path113" />
      <path
         d="m 296.832,44.833 h 1.734 a 23.772,23.772 0 0 1 -0.324,-5.297 c 0.022,-0.423 0.07,-0.88 0.353,-1.194 0.394,-0.436 1.087,-0.423 1.645,-0.24 0.624,0.208 1.19,0.587 1.616,1.087 -0.397,-2.356 -0.129,-4.766 -0.057,-7.155 0.125,-4.21 -0.866,-8.685 -4.733,-10.986 -5.418,-3.226 -12.279,-3.5 -17.7,-0.229 -0.726,0.438 -1.436,0.91 -2.047,1.498 -2.093,2.01 -3.114,5.513 -3.38,8.323 -0.095,1.008 -0.419,11.529 -0.052,11.627 a 5.222,5.222 0 0 0 1.616,0.164 c 0.111,-0.006 -0.013,-7.097 0.017,-7.753 0.056,-1.242 0.435,-2.514 0.437,-3.74 0.001,-0.985 0.357,-1.808 1.302,-2.281 a 5.016,5.016 0 0 0 -0.787,2.245 c 0.909,-0.839 2.166,-1.163 3.366,-1.459 l -1.227,1.022 c 1.675,-0.586 3.51,-0.225 5.285,-0.185 a 14.314,14.314 0 0 0 4.252,-0.546 4.052,4.052 0 0 1 -2.74,1.034 c 3.551,0.108 7.127,-0.68 10.304,-2.271 -0.758,0.757 -1.568,1.634 -1.568,2.706 0.578,-0.76 1.357,-1.439 2.3,-1.578 a 6.056,6.056 0 0 0 -1.242,3.97 3.213,3.213 0 0 1 1.563,1.852 c 0.272,0.827 0.066,1.806 0.066,2.664 v 6.722"
         fill="#26327c"
         id="path115" />
      <path
         d="m 302.169,32.32 h -28.781 v -5.38 c 0,-5.216 4.225,-9.446 9.437,-9.446 h 9.908 c 5.21,0 9.436,4.23 9.436,9.446 z"
         fill="#5279ba"
         id="path117" />
      <path
         d="m 295.712,37.303 a 37.034,37.034 0 0 1 1.233,-1.365 c 0.406,-0.428 0.824,-0.845 1.254,-1.25 0.456,-0.427 0.928,-0.841 1.425,-1.22 0.44,-0.336 0.901,-0.655 1.404,-0.89 a 3.18,3.18 0 0 1 0.598,-0.215 c 0.09,-0.022 0.182,-0.038 0.276,-0.046 0.07,-0.005 0.24,0.027 0.293,-0.012 a 0.972,0.972 0 0 0 -0.297,-0.2 c -0.106,-0.043 -0.222,-0.057 -0.334,-0.08 -0.336,-0.069 -0.648,-0.225 -0.985,-0.284 a 3.515,3.515 0 0 0 -0.734,-0.028 c -0.033,10e-4 -0.065,0.002 -0.096,0.01 -0.14,0.031 -0.257,0.182 -0.358,0.28 l -0.203,0.192 -0.557,0.534 -1.352,1.296 -0.945,0.904 -0.074,0.071 -0.548,2.303"
         fill="#5178b9"
         id="path119" />
      <path
         d="m 295.99,36.492 c 0,0 -1.936,-0.478 -2.087,-0.556 -0.151,-0.079 -4.48,-1.787 -8.659,-2.795 -4.178,-1.008 -8.306,0.706 -10.773,1.613 -2.467,0.907 -4.382,1.738 -4.382,1.738 l 3.247,-4.232 c 0,0 8.41,-7.687 26.57,0 l -3.916,4.232"
         fill="#557fbf"
         id="path121" />
      <path
         d="m 295.153,37.516 a 0.832,0.832 0 0 1 -0.454,-0.134 c -12.742,-8.257 -23.147,-0.132 -23.25,-0.05 a 0.83701329,0.83701329 0 1 1 -1.046,-1.307 c 0.117,-0.093 2.904,-2.298 7.413,-3.414 4.158,-1.03 10.622,-1.282 17.792,3.365 a 0.838,0.838 0 0 1 -0.455,1.54"
         fill="#5178b9"
         id="path123" />
    </g>
  </g>
</svg>
