<svg width="20" height="20" xmlns="http://www.w3.org/2000/svg"><g fill="none" fill-rule="evenodd"><path d="M0 0h20v20H0z"/><g fill="#0E2F4B" fill-rule="nonzero"><path d="M10 10.1a2.5 2.5 0 100-5 2.5 2.5 0 000 5zm0 1.5a4 4 0 110-8 4 4 0 010 8z"/><path d="M15.5 17.1a5.502 5.502 0 00-11 0H3a7.002 7.002 0 0113.887-1.257c.074.408.113.828.113 1.257h-1.5zm0 0a5.502 5.502 0 00-11 0H3a7.002 7.002 0 0113.887-1.257c.074.408.113.828.113 1.257h-1.5z"/></g><path d="M10 18.5a8.5 8.5 0 100-17 8.5 8.5 0 000 17zm0 1.5C4.477 20 0 15.523 0 10S4.477 0 10 0s10 4.477 10 10-4.477 10-10 10z" fill="#0E2F4B" fill-rule="nonzero"/></g></svg>